<svg width="96" height="96" version="1.1" viewBox="0 0 33.867 33.867" xmlns="http://www.w3.org/2000/svg" xmlns:xlink="http://www.w3.org/1999/xlink">
    <g fill="#ffffff">
        <path d="m16.933 0c-9.3509 0-16.933 7.7731-16.933 17.362 0 7.671 4.852 14.179 11.58 16.475 0.84628 0.16072 1.157-0.37664 1.157-0.83521 0-0.41401-0.01571-1.7817-0.02299-3.2325-4.7109 1.0503-5.705-2.0485-5.705-2.0485-0.77029-2.0068-1.8802-2.5404-1.8802-2.5404-1.5364-1.0776 0.11581-1.0554 0.11581-1.0554 1.7004 0.12219 2.5958 1.7894 2.5958 1.7894 1.5103 2.654 3.9614 1.8866 4.9277 1.443 0.15198-1.1221 0.59083-1.8884 1.0751-2.3216-3.7612-0.43902-7.715-1.9277-7.715-8.5804 0-1.8955 0.66149-3.4443 1.7447-4.6602-0.17582-0.43759-0.75543-2.2032 0.16404-4.5947 0 0 1.422-0.46663 4.6579 1.7797 1.3507-0.38469 2.7993-0.5776 4.2384-0.58422 1.4391 0.0066 2.8888 0.19953 4.2421 0.58422 3.232-2.2463 4.652-1.7797 4.652-1.7797 0.92171 2.3915 0.34182 4.1571 0.166 4.5947 1.0858 1.2159 1.7428 2.7647 1.7428 4.6602 0 6.6685-3.9614 8.1368-7.7321 8.5666 0.60737 0.53879 1.1486 1.5954 1.1486 3.2152 0 2.3231-0.01962 4.1927-0.01962 4.7646 0 0.46203 0.30481 1.0034 1.1631 0.83291 6.7245-2.2983 11.57-8.8041 11.57-16.472-1.2e-5 -9.589-7.5815-17.362-16.933-17.362" fill-rule="evenodd"/>
        <g>
            <path d="m6.4136 24.928c-0.037295 0.08654-0.16965 0.11213-0.29023 0.0529-0.12282-0.05664-0.1918-0.17423-0.15198-0.26077 0.036452-0.08855 0.16909-0.11328 0.29163-0.05434 0.1231 0.05693 0.1932 0.17567 0.15058 0.26221"/>
            <path d="m7.0994 25.712c-0.080758 0.07676-0.23863 0.04112-0.34575-0.08022-0.11076-0.12104-0.13151-0.28291-0.049631-0.36082 0.083282-0.07648 0.23639-0.04054 0.34743 0.08021 0.11076 0.12248 0.13235 0.2832 0.047946 0.36082"/>
            <path d="m7.7671 26.712c-0.10375 0.07389-0.2734 0.0046-0.37828-0.14979-0.10375-0.15439-0.10375-0.33955 0.00222-0.41372 0.10515-0.07418 0.27228-0.0072 0.37856 0.14577 0.10347 0.15698 0.10347 0.34214-0.00254 0.41775"/>
            <path d="m8.6818 27.678c-0.092816 0.10494-0.29051 0.07676-0.4352-0.06641-0.14806-0.14002-0.18928-0.33868-0.09618-0.44363 0.093937-0.10523 0.29275-0.07561 0.43856 0.06641 0.14694 0.13973 0.1918 0.33983 0.092816 0.44363"/>
            <path d="m9.9437 28.239c-0.040943 0.13599-0.23134 0.1978-0.42314 0.14002-0.19152-0.05952-0.31686-0.21879-0.27817-0.35622 0.039823-0.13685 0.23106-0.20126 0.42426-0.13944 0.19124 0.05922 0.31686 0.21736 0.27705 0.35565"/>
            <path d="m11.329 28.343c0.0048 0.14318-0.15787 0.26192-0.35921 0.2645-0.20246 0.0046-0.36622-0.11126-0.36846-0.25214 0-0.14462 0.15899-0.26221 0.36145-0.26566 0.20134-4e-3 0.36622 0.11098 0.36622 0.2533"/>
            <path d="m12.619 28.118c0.02412 0.13973-0.11581 0.28319-0.31574 0.32143-0.19657 0.0368-0.37856-0.04945-0.40351-0.18803-0.02439-0.14318 0.11805-0.28664 0.31434-0.32373 0.20021-0.03565 0.3794 0.0483 0.40491 0.19033"/>
        </g>
    </g>
</svg>