<?xml version="1.0" encoding="UTF-8"?>
<svg width="96" height="96" version="1.1" viewBox="0 0 245 240" xmlns="http://www.w3.org/2000/svg">
    <style>.st0{fill:#FFFFFF;}</style>
    <path class="st0" d="m100.33 100.28c-6.9825 0-12.495 6.125-12.495 13.598s5.635 13.598 12.495 13.598c6.9825 0 12.495-6.125 12.495-13.598 0.1225-7.4725-5.5125-13.598-12.495-13.598zm44.712 0c-6.9825 0-12.495 6.125-12.495 13.598s5.635 13.598 12.495 13.598c6.9825 0 12.495-6.125 12.495-13.598s-5.5125-13.598-12.495-13.598z" fill="#fff" stroke-width="1.225"/>
    <path class="st0" d="m204.58-2.5h-164.15c-13.842 0-25.112 11.27-25.112 25.235v165.62c0 13.965 11.27 25.235 25.112 25.235h138.92l-6.4925-22.662 15.68 14.578 14.822 13.72 26.338 23.275v-219.76c0-13.965-11.27-25.235-25.112-25.235zm-47.285 159.98s-4.41-5.2675-8.085-9.9225c16.048-4.5325 22.172-14.578 22.172-14.578-5.0225 3.3075-9.8 5.635-14.088 7.2275-6.125 2.5725-12.005 4.2875-17.762 5.2675-11.76 2.205-22.54 1.5925-31.728-0.1225-6.9825-1.3475-12.985-3.3075-18.008-5.2675-2.8175-1.1025-5.88-2.45-8.9425-4.165-0.3675-0.245-0.735-0.3675-1.1025-0.6125-0.245-0.1225-0.3675-0.245-0.49-0.3675-2.205-1.225-3.43-2.0825-3.43-2.0825s5.88 9.8 21.438 14.455c-3.675 4.655-8.2075 10.168-8.2075 10.168-27.072-0.8575-37.362-18.62-37.362-18.62 0-39.445 17.64-71.418 17.64-71.418 17.64-13.23 34.422-12.862 34.422-12.862l1.225 1.47c-22.05 6.37-32.218 16.048-32.218 16.048s2.695-1.47 7.2275-3.5525c13.108-5.7575 23.52-7.35 27.808-7.7175 0.735-0.1225 1.3475-0.245 2.0825-0.245 7.4725-0.98 15.925-1.225 24.745-0.245 11.638 1.3475 24.132 4.7775 36.872 11.76 0 0-9.6775-9.1875-30.502-15.558l1.715-1.96s16.782-0.3675 34.422 12.862c0 0 17.64 31.972 17.64 71.418 0 0-10.412 17.762-37.485 18.62z" fill="#fff" stroke-width="1.225"/>
</svg>
