<svg width="38" height="18" version="1.1" viewBox="0 0 10.054 4.7625" xmlns="http://www.w3.org/2000/svg">
    <rect width="10.054" height="4.7625" fill="#008000" stroke-width=".57664"/>
    <path transform="scale(.26458)" d="m5 2v1h-1v1h-1v1h-1v8h1v1h1v1h1v1h28v-1h1v-1h1v-1h1v-8h-1v-1h-1v-1h-1v-1z" fill="#00d400" stroke-width="1.6733"/>
    <path d="m2.5135 1.3229v0.26458h-0.26458v0.26458h0.26458v1.3229h-0.52917v0.26458h1.3229v-0.26458h-0.52917v-1.8521zm-0.26458 0.52917h-0.26458v0.26458h0.26458zm1.5875-0.52917v0.26458h0.79375v-0.26458zm0.79375 0.26458v1.5875h0.26458v-1.5875zm0 1.5875h-0.79375v0.26458h0.79375zm-0.79375 0v-1.5875h-0.26458v1.5875zm1.5875-1.8521v0.26458h0.79375v-0.26458zm0.79375 0.26458v1.5875h0.26458v-1.5875zm0 1.5875h-0.79375v0.26458h0.79375zm-0.79375 0v-1.5875h-0.26458v1.5875zm1.8521-1.7198v0.26458h-0.26458v0.26458h0.26458v0.26458h-0.26458v0.26458h0.26458v0.26458h-0.26458v0.26458h0.26458v0.26458h0.26458v-0.26458h0.26458v-0.26458h-0.26458v-0.26458h0.26458v-0.26458h-0.26458v-0.26458h0.26458v-0.26458h-0.26458v-0.26458zm0.52917 1.0583v0.26458h0.26458v-0.26458zm-0.79375-0.26458v-0.26458h-0.26458v0.26458z" fill="#008000" stroke-width=".26458"/>
</svg>