<?xml version="1.0" encoding="UTF-8" standalone="no"?>
<!-- Created with Inkscape (http://www.inkscape.org/) -->

<svg
   width="128"
   height="128"
   viewBox="0 0 33.866666 33.866666"
   version="1.1"
   id="svg155"
   xml:space="preserve"
   inkscape:version="1.2.2 (732a01da63, 2022-12-09)"
   sodipodi:docname="logo.svg"
   xmlns:inkscape="http://www.inkscape.org/namespaces/inkscape"
   xmlns:sodipodi="http://sodipodi.sourceforge.net/DTD/sodipodi-0.dtd"
   xmlns="http://www.w3.org/2000/svg"
   xmlns:svg="http://www.w3.org/2000/svg"><sodipodi:namedview
     id="namedview157"
     pagecolor="#ffffff"
     bordercolor="#000000"
     borderopacity="0.25"
     inkscape:showpageshadow="2"
     inkscape:pageopacity="0.0"
     inkscape:pagecheckerboard="0"
     inkscape:deskcolor="#d1d1d1"
     inkscape:document-units="mm"
     showgrid="true"
     inkscape:zoom="4.1776837"
     inkscape:cx="104.60342"
     inkscape:cy="90.480761"
     inkscape:window-width="1920"
     inkscape:window-height="1009"
     inkscape:window-x="-8"
     inkscape:window-y="-8"
     inkscape:window-maximized="1"
     inkscape:current-layer="layer1"><inkscape:grid
       type="xygrid"
       id="grid276" /></sodipodi:namedview><defs
     id="defs152" /><g
     inkscape:label="Layer 1"
     inkscape:groupmode="layer"
     id="layer1"><path
       id="rect771"
       style="fill:#00c4de;fill-opacity:1;stroke-width:0.264583"
       d="M 6.35 10.583333 L 6.35 12.170833 L 4.7625 12.170833 L 4.7625 13.758333 L 4.7625 15.345833 L 3.175 15.345833 L 3.175 18.520833 L 4.7625 18.520833 L 4.7625 20.108333 L 4.7625 21.695833 L 6.35 21.695833 L 6.35 23.283333 L 9.525 23.283333 L 9.525 21.695833 L 7.9375 21.695833 L 7.9375 20.108333 L 6.35 20.108333 L 6.35 13.758333 L 7.9375 13.758333 L 7.9375 12.170833 L 9.525 12.170833 L 9.525 10.583333 L 6.35 10.583333 z " /><path
       id="rect783"
       style="fill:#00c4de;fill-opacity:1;stroke-width:0.264583"
       d="M 24.341667 10.583333 L 24.341667 12.170833 L 25.929167 12.170833 L 25.929167 13.758333 L 27.516667 13.758333 L 27.516667 20.108333 L 25.929167 20.108333 L 25.929167 21.695833 L 24.341667 21.695833 L 24.341667 23.283333 L 27.516667 23.283333 L 27.516667 21.695833 L 29.104167 21.695833 L 29.104167 20.108333 L 29.104167 18.520833 L 30.691667 18.520833 L 30.691667 15.345833 L 29.104167 15.345833 L 29.104167 13.758333 L 29.104167 12.170833 L 27.516667 12.170833 L 27.516667 10.583333 L 24.341667 10.583333 z " /><path
       id="rect918"
       style="fill:#00bd68;fill-opacity:1;stroke-width:0.264583"
       d="M 12.964583 14.552083 L 12.964583 15.345833 L 12.170833 15.345833 L 12.170833 16.139583 L 11.377083 16.139583 L 11.377083 16.933333 L 11.377083 17.727083 L 12.964583 17.727083 L 12.964583 16.933333 L 13.758333 16.933333 L 13.758333 16.139583 L 15.345833 16.139583 L 15.345833 16.933333 L 16.139583 16.933333 L 16.139583 17.727083 L 16.933333 17.727083 L 16.933333 18.520833 L 17.727083 18.520833 L 17.727083 19.314583 L 20.902083 19.314583 L 20.902083 18.520833 L 21.695833 18.520833 L 21.695833 17.727083 L 22.489583 17.727083 L 22.489583 16.933333 L 22.489583 16.139583 L 20.902083 16.139583 L 20.902083 16.933333 L 20.108333 16.933333 L 20.108333 17.727083 L 18.520833 17.727083 L 18.520833 16.933333 L 17.727083 16.933333 L 17.727083 16.139583 L 16.933333 16.139583 L 16.933333 15.345833 L 16.139583 15.345833 L 16.139583 14.552083 L 12.964583 14.552083 z " /></g></svg>
