<?xml version="1.0" encoding="UTF-8"?>
<svg width="512" height="512" version="1.1" viewBox="0 0 135.47 135.47" xmlns="http://www.w3.org/2000/svg">
    <g stroke-width="1.0451">
        <path d="m67.733 0-33.867 16.933v42.333l33.867 16.933 33.867-16.933v-42.333z" fill="#3178c6"/>
        <path d="m33.867 59.267-33.867 16.933v42.333l33.867 16.933 33.867-16.933v-42.333z" fill="#a86454"/>
        <path d="m101.6 59.267-33.867 16.933v42.333l33.867 16.933 33.867-16.933v-42.333z" fill="#c69"/>
    </g>
    <g fill="#fff">
        <path d="m72.389 39.156c-0.70339 0.3517-1.2702 1.2018-1.2702 1.9052v24.556c0 0.70337 0.56676 0.98675 1.2702 0.63507l24.556-12.278c0.70339-0.3517 1.2702-1.2018 1.2702-1.9052v-24.556c0-0.70337-0.56676-0.98675-1.2702-0.63507zm19.603 1.2064c0.69093-0.34547 1.3029-0.60962 1.8369-0.79312a5.624 9.2255 37.982 0 1 1.4745-0.35336v2.7751a3.4819 5.7117 37.982 0 0-0.72596-0.0446 4.4895 7.3645 37.982 0 0-0.80947 0.11119 4.8068 7.8851 37.982 0 0-1.61 0.57917c-0.33881 0.16932-0.64694 0.35502-0.92464 0.55944a1.8512 3.0366 37.982 0 0-0.70339 0.62491c-0.19202 0.21341-0.33881 0.42789-0.4437 0.64408a0.78278 1.2841 37.982 0 0-0.15789 0.63224c0 0.22128 0.05974 0.39121 0.17624 0.50919 0.11733 0.1174 0.28461 0.20095 0.50015 0.25122 0.21549 0.05023 0.47758 0.07283 0.78579 0.07002 0.30807-0.0017 0.6571-0.01921 1.0454-0.05308 0.53066-0.04293 1.0071-0.04405 1.4294-0.0055 0.42245 0.0397 0.78464 0.14166 1.0872 0.3065 0.30253 0.16369 0.53288 0.40871 0.69319 0.73386 0.16046 0.3252 0.24151 0.75531 0.24151 1.2938 0 0.74176-0.14125 1.4367-0.42116 2.0802a2.6736 4.3857 37.982 0 1-1.1425 1.7963 3.861 6.3335 37.982 0 1-1.6789 1.5123c-0.639 0.45499-1.313 0.85976-2.0209 1.2137a8.741 14.339 37.982 0 1-2.0774 0.85354 4.8871 8.0167 37.982 0 1-1.7071 0.29693v-2.9693a4.4366 7.2777 37.982 0 0 3.6546-0.47248c0.37593-0.18802 0.7045-0.38596 0.98451-0.59385 0.28121-0.20832 0.51483-0.42001 0.70335-0.63396 0.18732-0.21562 0.32729-0.42788 0.42116-0.63958a0.90178 1.4793 37.982 0 0-0.08365-1.1877 1.8688 3.0655 37.982 0 0-0.60627-0.26136 4.9338 8.0933 37.982 0 0-0.91112-0.04574 24.435 40.083 37.982 0 0-1.1369 0.07619c-1.0364 0.0858-1.8087-0.05756-2.3179-0.42734-0.50808-0.3703-0.76322-0.99804-0.76322-1.8821 0-0.69321 0.13868-1.3576 0.41647-1.9944 0.27779-0.63676 0.65483-1.2351 1.1335-1.7963a3.9615 6.4984 37.982 0 1 1.6597-1.54 6.643 10.897 37.982 0 1 1.9983-1.2261zm-17.063 8.7436 10.797-5.3983v2.4454l-3.8748 1.9374v10.89l-3.0675 1.5338v-10.89l-3.8544 1.9272z" stroke-width="1.129"/>
        <path d="m84.553 92.37c7.4819 3.741 13.548 12.84 13.548 20.322 0 7.482-6.0662 10.515-13.548 6.774-7.4819-3.7409-13.548-12.84-13.548-20.322 0-7.4819 6.0662-10.515 13.548-6.7741zm-2.6927 16.716c0.19757 0.82701 0.17623 1.4971-0.0256 2.0104l-0.07339 0.16642c-0.0256 0.0559-0.05889 0.10625-0.0879 0.15489-0.15788 0.24835-0.36825 0.44809-0.62658 0.6012-0.78805 0.4629-1.8877 0.2381-2.3596-0.27096-0.50804-0.54982-0.25517-1.6348 0.65936-2.1429 0.98336-0.54474 2.3935-0.50693 2.3935-0.50693v-3e-3zm11.19-6.6674c-0.6119-2.7141-4.6029-5.5011-8.3795-6.0469-2.2456-0.32473-4.6786-0.28675-6.4275 0.47472-2.0807 0.90267-2.4116 2.4308-2.2749 3.207 0.4821 2.7373 3.903 6.0803 5.3097 7.9951v9e-3c-0.41434-4e-3 -3.4502 1e-3 -4.1615 1.2216-0.76206 1.2786 0.11863 2.9055 0.69435 3.3447 1.7782 1.3814 3.6072 1.3971 4.5894 0.43299 0.94837-0.94952 0.86482-2.8203 0.45611-3.9222 0.55997 0.12758 1.2193 0.38959 2.0661 0.91564 2.372 1.457 2.8462 3.1843 2.7435 3.7426-0.10156 0.55776-0.59048 0.66896-0.76096 0.6853-0.1694 0.0171-0.22018 0.0256-0.2044 0.10199 0.01707 0.11009 0.10284 0.15319 0.23725 0.20311 0.18647 0.0593 1.2374 0.11052 1.2882-1.0166 0.05078-1.431-1.339-3.7506-3.8104-4.9535-1.0161-0.49012-1.6608-0.72763-2.1169-0.76944-0.03414-0.0678-0.0687-0.11906-0.11863-0.17794-1.5242-2.4048-4.3523-4.9705-4.2338-7.0958 0.03414-0.77892 0.32174-2.7339 5.4192-2.7254 4.183 0.0085 7.5203 2.253 8.0961 3.811 0.82752 2.2247-1.7793 4.2925-6.1317 2.6063-1.6596-0.64348-2.5233-1.7178-2.7446-2.0666-0.23597-0.37209-0.26968-0.4058-0.3546-0.39642-0.1357-1.2e-4 -0.05078 0.26243 0 0.4233 0.13569 0.40666 0.66046 1.2617 1.5761 2.0243 0.79484 0.65146 2.7435 1.7771 5.0806 2.0323 2.6238 0.29699 4.673-1.5078 4.0802-4.1751z" stroke-width="1.129"/>
        <path d="m50.791 97.893c-2.3331 1.1666-4.1572 2.309-5.5578 3.4229a5.6873 9.3294 37.982 0 0 0.10366-0.14681c0.04225-0.0632-0.05723-0.0427-0.25802 0.0516-0.6024 0.28166-2.1083 1.2163-3.3766 2.4844-1.4374 1.3951-4.6498 6.5531-4.5653 6.7222 0.08467 0.169 1.6479 0.69566 2.1129 0.97041 0.29596 0.19034 1.1839 2.7494 1.9872 1.8405 0.21342-0.25477 0.29989-0.88501 0.37261-1.6464 0.06572 0.52888 0.13042 1.0786 0.21837 1.5625 0.12679 0.78213 1.2274 0.90773 1.3542 1.6475 0.15705 1.0662 0.85973 1.5161 2.2363 1.3366 0.54729 0.48074 1.3981-0.32648 2.0336-0.30002 1.0144 0.0427 2.1556-0.7823 3.2971-1.353 1.1413-0.57066 2.2402-0.91007 3.2971-1.9881 0.65039-0.66336 1.4905-0.71022 2.0423-1.6763 1.3836-1.1992 2.0685-2.3478 2.2275-3.586 0.12679-0.86658 1.1832-2.0707 1.31-2.9796 0.07148-0.46471 0.12444-0.96782 0.17864-1.4479 0.06414 0.53183 0.14681 0.94754 0.32856 0.98257 0.76104 0.12675 1.6912-3.3415 1.9872-3.8276 0.46498-0.73971 2.0283-2.8296 2.1129-3.0832 0.08446-0.2535-3.17-2.1781-4.6072-2.1359-1.2681 8.5e-5 -2.7741 0.57114-3.3765 0.89219-0.18859 0.10029-0.2771 0.17113-0.25371 0.19716-1.3265 0.31538-3.018 0.96645-5.2048 2.0599zm0.03329 0.54792c2.4881-1.244 4.3456-1.9184 5.657-2.1337 0.15073-0.02561 0.26954-0.02561 0.40568-0.03841 0.77922 0.4178 1.8329 1.151 2.2739 2.3829 0.02774 0.07767 0.04575 0.1643 0.07059 0.24453 3.37e-4 0.0013-3.41e-4 0.0033 0 0.0043v0.0043c0.05117 0.84388 0.35656 1.4216 0.26028 2.1172-0.17344 1.2138-0.25802 2.3564-0.42117 3.4173l-0.0023 4e-3v4e-3c-0.03243 0.23301-0.24616 0.66076-0.54041 1.1811-0.29425 0.52036-0.6724 1.1294-0.76974 1.7941v9e-3l-0.0021 4e-3c-0.1136 0.88447-0.47503 1.5921-1.3211 2.447 0.14139-0.57284 0.2316-1.307 0.2316-2.3323 0.04225-1.2892 0.08651-1.8185-0.97038-2.5583-0.81117-0.63728-1.9241-0.81592-3.1537-0.56682-0.12547-0.37769-0.8149-0.53653-1.7513-0.0683-0.93549 0.46774-1.5974 1.2752-1.7335 1.7931-1.2531 0.98582-2.3893 2.2965-3.2133 3.7679-1.0569 1.7967-0.97038 2.3028-0.97038 3.5288 0 1.0204 0.08975 1.6641 0.22934 2.0995-0.8691-1.7e-4 -1.2509-0.34226-1.3629-1.1028v-0.0128c-0.09879-0.5763-0.49355-0.796-0.79842-1.0168-0.30488-0.22064-0.52234-0.43504-0.55362-0.62738l-0.0023-4e-3v-4e-3c-0.16302-0.89735-0.24795-1.9543-0.42117-2.9939v-2e-3c-0.09632-0.5993 0.20698-1.4814 0.25802-2.3763v0.0171c0.01494-0.16985 0.01963-0.28209 0.02859-0.4332 0.40696-1.5118 1.302-3.1042 2.0379-4.2654a5.6542 9.2751 37.982 0 1 0.81818-0.7354c1.3459-1.1145 3.2284-2.3083 5.7165-3.5524zm-5.8819 7.2373a1.4523 2.3823 37.982 0 0-1.846 2.7843 1.4523 2.3823 37.982 0 0 1.8614 0.92855 1.4523 2.3823 37.982 0 0 0.49852-0.31751c0.39373-0.61996 0.81038-1.2208 1.2548-1.8029a1.4523 2.3823 37.982 0 0 0.10592-0.66835 1.4523 2.3823 37.982 0 0-1.8592-0.93175 1.4523 2.3823 37.982 0 0-0.01536 9e-3zm11.627-5.8135a1.4523 2.3823 37.982 0 0-1.8482 2.7853 1.4523 2.3823 37.982 0 0 0.16981 0.687c0.35285 0.12206 0.6899 0.2727 1.01 0.45216a1.4523 2.3823 37.982 0 0 0.68155-0.2104 1.4523 2.3823 37.982 0 0 1.8591-2.7888 1.4523 2.3823 37.982 0 0-1.8591-0.93184 1.4523 2.3823 37.982 0 0-0.01323 0.0043zm-11.146 6.1222a0.36305 0.59554 37.982 0 1 0.46306 0.23386 0.36305 0.59554 37.982 0 1-0.46306 0.69699 0.36305 0.59554 37.982 0 1-0.46543-0.23258 0.36305 0.59554 37.982 0 1 0.46543-0.69806zm10.694-5.347a0.36305 0.59554 37.982 0 1 0.46543 0.23258 0.36305 0.59554 37.982 0 1-0.46532 0.6981 0.36305 0.59554 37.982 0 1-0.46543-0.23259 0.36305 0.59554 37.982 0 1 0.46543-0.69805zm-5.7694 4.5629a0.1452 0.39394 19.573 0 1 0.03329-0.0128 0.1452 0.39394 19.573 0 1 0.06175 0.34184 0.1452 0.39394 19.573 0 1-0.2625 0.40457 0.1452 0.39394 19.573 0 1-0.05949-0.34269 0.1452 0.39394 19.573 0 1 0.22716-0.39177zm0.75867-0.35506a0.31144 0.18367 86.59 0 1 0.23148 0.17113 0.31144 0.18367 86.59 0 1-0.07938 0.41012 0.31144 0.18367 86.59 0 1-0.24919-0.15961 0.31144 0.18367 86.59 0 1 0.07938-0.41012 0.31144 0.18367 86.59 0 1 0.01792-0.0128zm-0.35724 0.71679s0.04054 0.23472 0.20946 0.23472c0.16917 0 0.97264-0.65615 0.97264-0.65615-0.3805 0.48608-1.0983 0.84614-1.0983 0.93081v0.42122c0 0.4606 0.02987 1.6352-0.03542 1.921 0.93019-0.46 2.3599 0.0909 2.3599 1.6519v0.0836c-0.04225-1.5007-1.8169-1.8396-2.3665-1.5648-0.54956 0.27484-2.3264 2.3471-2.3687 3.9324v-0.0836c0-1.5386 1.3918-3.4849 2.3223-3.9908-0.07951-0.58322-0.08151-1.2433-0.08151-1.8647v-0.42121c-0.24219 0.0128-0.48802 0.0504-0.74106 0.1037 0.20843-0.0674 0.41891-0.15449 0.61538-0.25264 0.16904-0.169 0.21172-0.4455 0.21172-0.4455zm-3.4339 3.2387a0.13206 0.21664 37.982 0 1 9e-3 -4e-3 0.13206 0.21664 37.982 0 1 0.16981 0.0849 0.13206 0.21664 37.982 0 1-0.16981 0.25477 0.13206 0.21664 37.982 0 1-0.16981-0.0849 0.13206 0.21664 37.982 0 1 0.16102-0.25051zm1.2681-0.63404a0.13206 0.21664 37.982 0 1 9e-3 -4e-3 0.13206 0.21664 37.982 0 1 0.16981 0.0849 0.13206 0.21664 37.982 0 1-0.16981 0.25478 0.13206 0.21664 37.982 0 1-0.16981-0.0849 0.13206 0.21664 37.982 0 1 0.16102-0.25051zm4.1439-2.072a0.13206 0.21664 37.982 0 1 9e-3 -4e-3 0.13206 0.21664 37.982 0 1 0.16981 0.0849 0.13206 0.21664 37.982 0 1-0.16981 0.25478 0.13206 0.21664 37.982 0 1-0.16981-0.0849 0.13206 0.21664 37.982 0 1 0.16102-0.25051zm1.2683-0.63412a0.13206 0.21664 37.982 0 1 9e-3 -4e-3 0.13206 0.21664 37.982 0 1 0.16981 0.0849 0.13206 0.21664 37.982 0 1-0.16981 0.25477 0.13206 0.21664 37.982 0 1-0.16981-0.0849 0.13206 0.21664 37.982 0 1 0.16102-0.25051zm-6.3826 4.2058a0.13206 0.21664 37.982 0 1 9e-3 -4e-3 0.13206 0.21664 37.982 0 1 0.16759 0.0862 0.13206 0.21664 37.982 0 1-0.16759 0.2535 0.13206 0.21664 37.982 0 1-0.16981-0.0849 0.13206 0.21664 37.982 0 1 0.16102-0.25051zm6.087-3.0435a0.13206 0.21664 37.982 0 1 0.0068-3e-3 0.13206 0.21664 37.982 0 1 0.16972 0.0849 0.13206 0.21664 37.982 0 1-0.16981 0.25478 0.13206 0.21664 37.982 0 1-0.16755-0.0862 0.13206 0.21664 37.982 0 1 0.16089-0.25008z" stroke-width="1.1291"/>
    </g>
</svg>
