<svg width="90" height="64" version="1.1" viewBox="0 0 23.812 16.933" xmlns="http://www.w3.org/2000/svg">
    <g stroke-width=".26458">
        <path d="m8.4667 0v1.3229h4.2333v1.5875h1.3229v-1.5875h2.6458v-1.3229zm8.2021 1.3229v1.5875h1.5875v-1.5875zm1.5875 1.5875v1.3229h1.3229v-1.3229zm1.3229 1.3229v4.2333h-5.5562v1.3229h8.4667v-1.3229h-1.5875v-4.2333zm2.9104 5.5562v1.5875h1.3229v-1.5875zm0 1.5875h-8.4667v1.3229h6.8792v1.3229h1.5875zm-1.5875 2.6458h-6.8792v1.5875h6.8792zm-6.8792 1.5875h-7.1437v1.3229h7.1437zm-7.1437 0v-2.9104h-1.3229v1.3229h-4.2333v1.5875zm-5.5562-1.5875v-4.2333h-1.3229v4.2333zm0-4.2333h7.1438v-1.3229h-5.8208v-2.9104h-1.3229zm1.3229-4.2333h1.5875v-1.3229h-1.5875zm1.5875-1.3229h1.3229v-1.3229h-1.3229zm1.3229-1.3229h2.9104v-1.5875h-2.9104zm2.9104 6.8792v1.5875h1.3229v-1.5875zm0 1.5875h-1.5875v1.3229h1.5875zm5.5562 2.6458v-1.3229h-1.3229v1.3229zm-1.3229-1.3229v-1.3229h-1.5875v1.3229zm0-1.3229h1.3229v-1.5875h-1.3229zm1.3229-2.9104v-1.3229h-1.3229v1.3229zm-1.3229-1.3229v-4.2333h-1.5875v4.2333zm5.5562-2.9104h-1.5875v2.9104h1.5875z" fill="#533846"/>
        <path d="m8.4667 1.3229v1.5875h4.2333v-1.5875zm0 1.5875h-2.9104v1.3229h2.9104zm-2.9104 1.3229h-1.3229v1.3229h1.3229zm-2.9104 5.5562v1.5875h-1.3229v2.6458h2.9104v-1.3229h2.6458v-2.9104z" fill="#dde2b1"/>
        <path d="m8.4667 2.9104v1.3229h-2.9104v1.3229h-2.9104v2.9104h5.8208v1.3229h1.3229v1.5875h2.9104v-1.5875h1.3229v-1.3229h-1.3229v-1.3229h-1.5875v-4.2333zm0 6.8792h-1.5875v1.5875h1.5875zm-7.1438 0v1.5875h1.3229v-1.5875zm2.9104 2.9104v1.3229h1.3229v-1.3229z" fill="#d4bf27"/>
        <path d="m8.4667 11.377v1.3229h-1.5875v2.9104h7.1437v-1.5875h-1.3229v-1.3229h-1.5875v-1.3229z" fill="#e48116"/>
        <path d="m12.7 4.2333v2.9104h1.3229v-2.9104zm1.3229 2.9104v1.3229h1.3229v-1.3229z" fill="#c8c0c0"/>
        <path d="m14.023 1.3229v1.5875h-1.3229v1.3229h1.3229v2.9104h1.3229v1.3229h4.2333v-4.2333h-1.3229v2.9104h-1.5875v-2.9104h1.5875v-1.3229h-1.5875v-1.5875z" fill="#ebfcdd"/>
        <path d="m14.023 9.7896v1.5875h8.4667v-1.5875zm0 1.5875h-1.3229v1.3229h1.3229zm0 1.3229v1.3229h6.8792v-1.3229z" fill="#ea5040"/>
    </g>
</svg>