<?xml version="1.0" encoding="UTF-8"?>
<svg width="512" height="512" version="1.1" viewBox="0 0 512 512" xmlns="http://www.w3.org/2000/svg" xmlns:xlink="http://www.w3.org/1999/xlink">
    <rect width="512" height="512" fill="#ffffff" stroke-width="1.4355"/>
    <path d="m236 146v20h-20v20h-20v20h-20v20h-20v20h-20v60h20v20h20v20h40v20h80v-20h40v-20h20v-20h20v-60h-20v-20h-20v-20h-20v-20h-20v-20h-20v-20z" fill="#3b0000" stroke-width="1.792"/>
    <g transform="translate(136,136)">
        <path d="m100 10v20h40v-20zm40 20v20h20v-20zm20 20v20h20v-20zm20 20v20h20v-20zm20 20v20h20v-20zm20 20v60h20v-60zm0 60h-20v20h20zm-20 20h-40v20h40zm-40 20h-80v20h80zm-80 0v-20h-40v20zm-40-20v-20h-20v20zm-20-20v-60h-20v60zm0-60h20v-20h-20zm20-20h20v-20h-20zm20-20h20v-20h-20zm20-20h20v-20h-20z" fill="#2d0000"/>
        <path d="m100 30v40h-40v20h-20v40h20v20h20v40h40v-20h20v-40h-20v-20h20v-40h-20v-20h20v-20zm-40 120h-20v20h20zm-20 0v-20h-20v20zm40-40h20v20h-20z" fill="#720000"/>
        <path d="m140 50v140h-60v20h80v-20h20v-20h40v-60h-60v-20h20v-20h-20v-20zm-60 140v-20h-40v20zm-40-20v-20h-20v20zm140-40h20v20h-20z" fill="#490000"/>
        <path d="m80 50v20h20v-20zm100 40v20h20v-20zm-160 20v20h20v-20zm100 0v20h20v-20zm-60 40v20h20v-20zm120 20v20h20v-20z" fill="#ff0000"/>
        <path d="m160 90v20h20v-20zm20 40v20h20v-20zm-60 40v20h20v-20z" fill="#360000"/>
        <path d="m120 50v20h20v-20zm-40 60v20h20v-20zm-40 20v20h20v-20z" fill="#540000"/>
    </g>
    <path id="llv" d="m368 397h7.5c9 0 15 0 21-1.5s12-6 16.5-12 6-12 7.5-19.5 1.5-21 1.5-39c0-13.5 0-22.5 1.5-30s4.5-15 9-19.5 10.5-7.5 19.5-7.5v-24c-9 0-15-3-19.5-7.5s-7.5-12-9-19.5-1.5-16.5-1.5-30c0-18 0-31.5-1.5-39s-3-13.5-7.5-19.5-10.5-10.5-16.5-12-12-1.5-21-1.5h-7.5v22.5h4.5c10.5 0 16.5 1.5 19.5 4.5 4.5 4.5 6 6 6 10.5v37.5c0 22.5 3 37.5 7.5 46.5s13.5 15 22.5 19.5c-9 4.5-18 10.5-22.5 19.5s-7.5 24-7.5 46.5v37.5c0 4.5-1.5 6-6 10.5-3 3-9 4.5-19.5 4.5h-4.5z" fill="#d60000" stroke-width="1.5"/>
    <use transform="matrix(-1,0,0,1,512,0)" width="260" height="1030" xlink:href="#llv"/>
</svg>
