<svg width="96" height="96" version="1.1" viewBox="0 0 14.817 15.346" xmlns="http://www.w3.org/2000/svg">
    <g>
        <path d="m5.0271 0v1.0583h-2.6458v1.0583h-1.0583v2.6458h-1.3229v5.2917h0.26458v0.26458h0.26458v0.26458h0.52917v1.8521h0.26458v0.26458h0.26458v0.26458h0.52917v0.52917h0.26458v0.26458h0.26458v0.26459h0.26458v0.26458h1.8521v0.52917h0.26458v0.26458h0.26458v0.26458h4.2333v-0.26458h0.26458v-0.26458h0.26458v-0.52917h1.5875v-0.26458h0.26458v-0.26459h0.26458v-0.26458h0.26458v-0.52917h0.79375v-0.26458h0.26458v-0.26458h0.26458v-1.8521h0.52917v-0.26458h0.26458v-0.26458h0.26458v-5.2917h-1.3229v-2.6458h-1.3229v-1.0583h-2.3812v-1.0583z" fill="#2b696e" stroke-width="1.0985"/>
        <path d="m5.0271 0v1.0583h-2.6458v1.0583h-1.0583v2.6458h-1.3229v5.2917h0.26458v0.26458h0.26458v0.26458h0.52917v1.8521h0.26458v0.26458h0.26458v0.26458h0.52917v0.52917h0.26458v0.26458h0.26458v0.26458h0.26458v0.26458h1.8521v0.52917h0.26458v0.26458h0.26458v0.26458h4.2333v-0.26458h0.26458v-0.26458h0.26458v-0.52917h1.5875v-0.26458h0.26458v-0.26458h0.26458v-0.26458h0.26458v-0.52917h0.79375v-0.26458h0.26458v-0.26458h0.26458v-1.8521h0.52917v-0.26458h0.26458v-0.26458h0.26458v-5.2917h-1.3229v-2.6458h-1.3229v-1.0583h-2.3812v-1.0583z" fill="#2b696e" stroke-width="1.0985"/>
        <g stroke-width=".26458">
            <path d="m5.0271 0v1.0583h4.7625v-1.0583zm-5.0271 4.7625v4.7625h1.3229v-4.7625zm1.3229 4.7625v2.3813h1.0583v-2.3813z" fill="#0157a9"/>
            <path d="m0 9.525v0.52917h0.26458v0.26458h0.26458v0.26458h0.52917v1.8521h0.26458v0.26458h0.26458v0.26458h0.52917v0.52917h0.26458v0.26458h0.26458v0.26459h0.26458v0.26458h1.8521v0.52917h0.26458v0.26458h0.26458v0.26458h4.2333v-0.26458h0.26458v-0.26458h0.26458v-0.52917h1.5875v-0.26458h0.26458v-0.26459h0.26458v-0.26458h0.26458v-0.52917h0.79375v-0.26458h0.26458v-0.26458h0.26458v-2.3812h-0.26458v1.8521h-1.3229v1.3229h-2.3812v1.3229h-4.7625v-1.3229h-2.6458v-1.3229h-1.0583v-2.3813z" fill="#012647"/>
            <path d="m2.3812 1.0583v1.0583h2.6458v-1.0583zm0 1.0583h-1.0583v2.6458h1.0583zm7.4083-1.0583v1.0583h2.3812v-1.0583zm2.3812 1.0583v2.6458h1.3229v-2.6458zm1.3229 2.6458v4.7625h1.3229v-4.7625zm0 4.7625h-0.52917v0.26458h0.26458v0.26459h0.26458v-0.26459zm-6.6146 3.7042v0.26458h0.26458v0.52917h0.52917v0.52916h0.79375v-0.26458h0.26458v-0.79375h0.26458v-0.26458z" fill="#2a5401"/>
            <path d="m3.7042 2.1167v1.3229h2.1167v-0.52917h-0.26458v-0.26458h0.26458v-0.52917h-0.26458zm0 1.3229h-1.3229v2.3812h-1.0583v3.4396h1.0583v0.26458h1.3229v-0.52917h-0.52917v-0.26458h-0.52917v-0.79375h0.26458v-0.26458h0.79375v0.26458h0.26458v0.26458h0.26458v-1.0583h0.52917v-1.3229h-1.0583zm2.6458-1.3229v0.52917h0.79375v-0.52917zm-0.26458 1.5875v0.52917h0.26458v-0.52917zm0.26458 0.52917v0.52917h0.52917v-0.26458h-0.26458v-0.26458zm-1.3229 5.8208v0.79375h2.3812v-0.79375z" fill="#6ec310"/>
            <path d="m5.0271 1.0583v1.0583h0.79375v-0.26458h0.52917v0.26458h0.79375v-0.52917h0.26458v-0.52917h-0.26458zm-2.6458 1.0583v1.3229h1.3229v-1.3229zm-1.0583 2.6458v1.0583h1.0583v-1.0583zm1.0583 4.7625v0.26458h0.79375v0.52917h0.79375v0.26458h0.26458v0.26459h0.79375v-0.26459h-0.52917v-0.26458h-0.26458v-0.52917h-0.52917v-0.26458zm2.6458 1.3229v1.0583h3.9688v-1.0583z" fill="#57b10f"/>
            <path d="m10.319 2.1167v0.79375h0.79375v0.52917h0.79375v1.0583h0.26458v-2.3812zm2.6458 2.6458v2.3812h-0.79375v1.3229h0.52917v1.0583h0.79375v-4.7625zm-7.9375 7.1437v0.79375h1.0583v0.52917h3.7042v-1.3229z" fill="#448001"/>
            <path d="m13.494 9.525v0.52917h0.26458v0.52916h0.52917v-0.26458h0.26458v-0.26458h0.26458v-0.52917z" fill="#132e2f"/>
            <path d="m12.171 9.525v2.3813h1.3229v-1.8521h-0.26458v-0.26459h-0.26458v-0.26458zm0 2.3813h-2.3812v1.3229h2.3812zm-2.3812 1.3229h-0.79375v0.26458h-0.26458v0.79375h-0.26458v0.26458h1.3229v-1.0583zm-7.4083-1.3229v1.3229h2.6458v-1.3229zm2.6458 1.3229v1.3229h2.6458v-0.52916h-0.52917v-0.52917h-0.26458v-0.26458z" fill="#014e96"/>
            <path d="m7.4083 1.0583v0.52917h-0.26458v0.52917h2.6458v-1.0583zm2.3812 1.0583v2.6458h1.3229v4.7625h1.0583v-5.0271h-0.26458v-1.0583h-0.79375v-0.52917h-0.79375v-0.79375zm1.3229 7.4083h-1.3229v1.3229h1.3229zm-1.3229 1.3229h-0.79375v1.0583h0.79375zm-3.9688-8.9958v0.26458h0.52917v-0.26458zm-4.4979 7.4083v0.26458h1.0583v-0.26458zm2.3812 0.26458v0.26458h0.52917v0.52917h0.26458v0.26458h0.52917v-1.0583zm-1.3229 0.26458v1.0583h1.3229v1.0583h1.3229v-1.0583h-0.79375v-0.26459h-0.26458v-0.26458h-0.79375v-0.52917z" fill="#278eed"/>
            <path d="m12.171 4.7625v2.3812h0.79375v-2.3812zm0 3.7042v1.0583h0.52917v-1.0583zm0 1.0583h-1.0583v1.3229h-1.3229v1.0583h2.3812zm-9.7896 1.3229v1.0583h1.3229v-1.0583zm2.6458 1.8521v0.52917h1.0583v-0.52917z" fill="#0d74d3"/>
            <path d="m7.4083 2.1167v3.7042h-1.3229v1.3229h-1.8521v1.0583h-0.26458v-0.26458h-0.26458v-0.26458h-0.79375v0.26458h-0.26458v0.79375h0.52917v0.26458h0.52917v0.52917h1.3229v-1.0583h2.3812v-1.3229h1.3229v-1.3229h1.0583v2.6458h1.3229v-3.7042h-2.3812v-2.6458zm2.3812 6.35h-1.0583v1.0583h1.0583zm-1.0583 1.0583h-1.3229v1.3229h1.3229z" fill="#3da2ff"/>
            <path d="m8.7312 2.1167v2.6458h1.0583v-2.6458zm0 3.7042v1.3229h-1.3229v1.3229h-2.3812v1.5875h2.3812v-0.52917h1.3229v-1.0583h1.0583v-2.6458z" fill="#4ba8ff"/>
            <rect x="8.7313" y="9.525" width="1.0583" height="1.3229" fill="#2e95f4"/>
            <rect x="9.7896" y="8.4667" width="1.3229" height="1.0583" fill="#2e95f4"/>
            <rect x="3.7042" y="3.4396" width="2.3812" height="2.3812" fill="#ffffff"/>
            <path d="m5.8208 2.1167v0.52917h-0.26458v0.26458h0.26458v0.52917h0.26458v0.26458h0.26458v0.52917h0.26458v0.26458h0.26458v0.26458h-0.52917v-0.52917h-0.26458v1.5875h1.3229v-3.7042h-0.26458v0.52917h-0.79375v-0.52917zm0.26458 3.7042h-1.3229v1.3229h1.3229z" fill="#57aaff"/>
            <rect x="11.112" y="4.7625" width="1.0583" height="1.0583" fill="#3198f7"/>
        </g>
    </g>
</svg>