<svg width="512" height="512" version="1.1" viewBox="0 0 135.47 135.47" xmlns="http://www.w3.org/2000/svg" aria-label="The Building Block Of The Internet Image">
    <g stroke-width="1.0451">
        <path d="m67.733 0-33.867 16.933v42.333l33.867 16.933 33.867-16.933v-42.333z" fill="#f7df1e"/>
        <path d="m33.867 59.267-33.867 16.933v42.333l33.867 16.933 33.867-16.933v-42.333z" fill="#e34f26"/>
        <path d="m101.6 59.267-33.867 16.933v42.333l33.867 16.933 33.867-16.933v-42.333z" fill="#1572b6"/>
    </g>
    <path d="m38.947 100.13 23.707-11.853-2.1562 25.42-9.7231 7.6127-9.6678 2.0817zm7.9372 7.0381-0.26189-2.9374 11.355-5.6742 0.25962-3.0898-14.874 7.4336 0.78797 8.6484 10.302-5.1511-0.368 4.0516-3.2851 2.5502-3.3359 0.75353-0.21222-2.2758-2.9453 1.4726 0.37252 4.5223 6.1208-1.4235 6.0723-4.6651 0.83989-9.6283-10.828 5.4141z" fill="#fff" stroke-width="1.1289"/>
    <path d="m72.813 88.275 23.707 11.853-2.1562 23.264-9.7231-2.1105-9.6689-7.5867zm19.293 14.628-14.879-7.4429 0.24048 3.0802 11.43 5.7173-0.28787 2.9221-7.4958-3.7479 0.27095 3.0401 6.9788 3.4894-0.41319 3.7705-3.2851-0.7349-3.337-2.5829-0.21223-2.4881-2.9464-1.4732 0.32738 4.5156 6.1694 5.0072 6.0655 1.3056 1.3738-14.377z" fill="#fff" stroke-width="1.1289"/>
    <path d="m71.12 39.793v27.093l27.093-13.547v-27.093zm0.50715 0.2561 26.079-13.04v24.514l-3e-3 0.0014v1.5569l-26.074 13.037zm20.024 1.7802c-2.2381 1.119-3.6712 3.2811-3.6712 5.1805 0 2.0605 1.2006 2.4353 3.0098 2.3079l0.62565-0.0399c1.143-0.06528 1.8246-0.09994 1.8246 0.7699 0 0.72439-0.66336 1.5794-1.7006 2.098-1.2362 0.61809-1.9346 0.31549-2.4723-0.30122l-2.0368 2.2132c0.73521 1.1011 2.24 1.4701 4.567 0.30662 2.3806-1.1903 4.1536-3.3254 4.1536-5.6055 0-2.1147-1.2028-2.4559-3.3322-2.3138l-0.62841 0.04403c-1.0753 0.0671-1.5407-0.0083-1.5407-0.76703 0-0.61459 0.46786-1.3173 1.2017-1.6842 0.71969-0.35985 1.182-0.28474 1.6124 0.27722l1.9486-2.2387c-0.82411-1.0553-1.9678-1.0437-3.561-0.24704zm-8.2823 4.2832v8.6115c0 1.2663-0.5196 1.8501-1.3423 2.2614-0.86082 0.43041-1.2187 0.0144-1.6124-0.49445l-2.0396 2.2675c0.59128 0.96777 1.7528 1.4353 3.7594 0.43192 2.2212-1.1106 3.7402-3.0633 3.7402-5.6856v-8.6449z" stroke-width="1.4186"/>
</svg>