<?xml version="1.0" encoding="UTF-8"?>
<svg class="bi bi-card-list" width="256" height="256" fill="currentColor" version="1.1" viewBox="0 0 256 256" xmlns="http://www.w3.org/2000/svg">
 <rect width="256" height="256" fill="#ffffff" stroke-width="2"/>
 <path d="m24 32a24 24 0 0 0-24 24v144a24 24 0 0 0 24 24h208a24 24 0 0 0 24-24v-144a24 24 0 0 0-24-24zm-0.1875 16a8 8 0 0 1 0.1875 0h208a8 8 0 0 1 8 8v144a8 8 0 0 1-8 8h-208a8 8 0 0 1-8-8v-144a8 8 0 0 1 7.8124-8zm32 32a8 8 0 0 0-7.8124 8 8 8 0 0 0 16 0 8 8 0 0 0-8.1876-8zm32 0a8 8 0 0 0-7.8124 8 8 8 0 0 0 8 8h112a8 8 0 0 0 0-16h-112a8 8 0 0 0-0.1875 0zm-32 40a8 8 0 0 0-7.8124 8 8 8 0 0 0 16 0 8 8 0 0 0-8.1876-8zm32 0a8 8 0 0 0-7.8124 8 8 8 0 0 0 8 8h112a8 8 0 0 0 0-16h-112a8 8 0 0 0-0.1875 0zm-32 40a8 8 0 0 0-7.8124 8 8 8 0 0 0 16 0 8 8 0 0 0-8.1876-8zm32 0a8 8 0 0 0-7.8124 8 8 8 0 0 0 8 8h112a8 8 0 0 0 0-16h-112a8 8 0 0 0-0.1875 0z" stroke-width="16"/>
</svg>
