<?xml version="1.0" encoding="UTF-8"?>
<svg class="bi bi-house" width="256" height="256" fill="currentColor" version="1.1" viewBox="0 0 256 256" xmlns="http://www.w3.org/2000/svg">
 <rect width="256" height="256" fill="#ffffff" stroke-width="16"/>
 <path d="m127.53 18.007a16.038 15.949 0 0 0-10.87 4.6728l-106.6 106.01a8.0291 7.9849 0 0 0 11.34 11.277l10.368-10.311v84.421a24.058 23.924 0 0 0 24.058 23.924h144.34a24.058 23.924 0 0 0 24.058-23.924v-84.421l10.368 10.311a8.0291 7.9849 0 0 0 11.34-11.277l-37.746-37.538v-52.522a8.0191 7.9747 0 0 0-8.0191-7.9747h-16.038a8.0191 7.9747 0 0 0-8.0191 7.9747v20.622l-36.776-36.572a16.038 15.949 0 0 0-11.809-4.6728zm0.46988 15.949 80.191 79.747v100.37a8.0191 7.9747 0 0 1-8.0191 7.9747h-144.34a8.0191 7.9747 0 0 1-8.0191-7.9747v-100.37z" stroke-width="15.994"/>
</svg>
