<?xml version="1.0" encoding="UTF-8" standalone="no"?>
<svg
     xmlns:dc="http://purl.org/dc/elements/1.1/"
     xmlns:cc="http://creativecommons.org/ns#"
     xmlns:rdf="http://www.w3.org/1999/02/22-rdf-syntax-ns#"
     xmlns:svg="http://www.w3.org/2000/svg"
     xmlns="http://www.w3.org/2000/svg"
     xmlns:sodipodi="http://sodipodi.sourceforge.net/DTD/sodipodi-0.dtd"
     xmlns:inkscape="http://www.inkscape.org/namespaces/inkscape"
     width="256"
     height="256"
     version="1.1"
     viewBox="0 0 672 1013.76"
     id="svg62"
     sodipodi:docname="logo.svg"
     inkscape:version="1.0.1 (3bc2e813f5, 2020-09-07)">
    <metadata
         id="metadata68">
        <rdf:RDF>
            <cc:Work
                 rdf:about="">
                <dc:format>image/svg+xml</dc:format>
                <dc:type
                     rdf:resource="http://purl.org/dc/dcmitype/StillImage" />
                <dc:title></dc:title>
            </cc:Work>
        </rdf:RDF>
    </metadata>
    <defs
         id="defs66" />
    <sodipodi:namedview
         pagecolor="#ffffff"
         bordercolor="#666666"
         borderopacity="1"
         objecttolerance="10"
         gridtolerance="10"
         guidetolerance="10"
         inkscape:pageopacity="0"
         inkscape:pageshadow="2"
         inkscape:window-width="1366"
         inkscape:window-height="705"
         id="namedview64"
         showgrid="true"
         inkscape:zoom="1.0507813"
         inkscape:cx="-61.004544"
         inkscape:cy="134.96797"
         inkscape:window-x="-8"
         inkscape:window-y="-8"
         inkscape:window-maximized="1"
         inkscape:current-layer="svg62">
        <inkscape:grid
             type="xygrid"
             id="grid70" />
    </sodipodi:namedview>
    <rect
         x="-170.88"
         width="1013.76"
         height="1013.76"
         fill="#ffffff"
         stroke-width="13.0876"
         id="rect50"
         y="0" />
    <g
         transform="matrix(3.2,0,0,3.2,0,26.85536)"
         stroke-width="3.96"
         id="g60">
        <path
             d="m 97.08,1.5077 v 15.84 h 15.84 v -15.84 z m -150.48,126.72 v 19.8 h 19.8 v -19.8 z m 297,0 v 19.8 h 19.8 v -19.8 z"
             fill="#d60000"
             id="path52" />
        <path
             d="m 97.08,37.148 v 19.8 h 15.84 v -19.8 z m -39.6,55.44 v 35.64 h 19.8 v -35.64 z m 39.6,0 v 19.8 h 15.84 v -19.8 z m 15.84,19.8 v 15.84 h 39.6 v 19.8 h 71.28 v -19.8 h -59.4 v -15.84 z m 110.88,35.64 v 19.8 h 19.8 v -19.8 z m -71.28,0 h -19.8 v 55.44 h 19.8 z m -19.8,55.44 h -19.8 v 19.8 h 19.8 z m -19.8,19.8 H 97.08 v 55.44 h 15.84 z m -15.84,55.44 h -19.8 v 19.8 h 19.8 z m 15.84,-75.24 v -19.8 H 97.08 v 19.8 z m -15.84,-19.8 v -15.84 h -19.8 v 15.84 z m 0,-15.84 h 15.84 v -19.8 H 97.08 Z m -114.84,-39.6 v 19.8 h 19.8 v -19.8 z m 55.44,19.8 v 35.64 h 19.8 v -35.64 z m 19.8,55.44 v 19.8 h 19.8 v -19.8 z"
             fill="#fd0000"
             id="path54" />
        <path
             d="m 97.08,56.948 v 15.84 h 15.84 v -15.84 z m 15.84,15.84 v 39.6 h 19.8 v -39.6 z m -91.08,39.6 v 15.84 h 35.64 v -15.84 z m 0,15.84 H 2.04 v 19.8 h 19.8 z m 55.44,-15.84 v 15.84 h 19.8 v -15.84 z m -19.8,35.64 v 35.64 h 19.8 v -35.64 z m 19.8,35.64 v 19.8 h 19.8 v -19.8 z m 87.12,-35.64 v 19.8 h 23.76 v -19.8 z m -51.48,19.8 v 15.84 h 19.8 v -15.84 z m -35.64,55.44 v 15.84 h 19.8 v -15.84 z m 0,15.84 h -19.8 v 19.8 h 19.8 z"
             fill="#af0000"
             id="path56" />
        <path
             d="m 77.28,56.948 v 35.64 h 19.8 v -35.64 z m 19.8,55.44 v 15.84 h 15.84 v -15.84 z m 15.84,15.84 v 39.6 h 19.8 v -19.8 h 19.8 v -19.8 h -19.8 z m -15.84,0 h -39.6 v 19.8 h 19.8 v 19.8 h 19.8 v -19.8 z m -95.04,19.8 v 19.8 h 35.64 v -19.8 z"
             fill="#d60000"
             id="path58" />
    </g>
</svg>
