<?xml version="1.0" encoding="UTF-8"?>
<svg width="440" height="64" version="1.1" viewBox="0 0 116.42 16.933" xmlns="http://www.w3.org/2000/svg">
    <g transform="matrix(.053451 0 0 .056727 2.8543 0)" stroke-width="3.96">
        <rect x="-53.4" y="-1.1102e-16" width="316.8" height="297" fill="#ffffff"/>
        <path d="m97.08 1.5077v15.84h15.84v-15.84zm-150.48 126.72v19.8h19.8v-19.8zm297 0v19.8h19.8v-19.8z" fill="#d60000"/>
        <path d="m97.08 37.148v19.8h15.84v-19.8zm-39.6 55.44v35.64h19.8v-35.64zm39.6 0v19.8h15.84v-19.8zm15.84 19.8v15.84h39.6v19.8h71.28v-19.8h-59.4v-15.84zm110.88 35.64v19.8h19.8v-19.8zm-71.28 0h-19.8v55.44h19.8zm-19.8 55.44h-19.8v19.8h19.8zm-19.8 19.8h-15.84v55.44h15.84zm-15.84 55.44h-19.8v19.8h19.8zm15.84-75.24v-19.8h-15.84v19.8zm-15.84-19.8v-15.84h-19.8v15.84zm0-15.84h15.84v-19.8h-15.84zm-114.84-39.6v19.8h19.8v-19.8zm55.44 19.8v35.64h19.8v-35.64zm19.8 55.44v19.8h19.8v-19.8z" fill="#fd0000"/>
        <path d="m97.08 56.948v15.84h15.84v-15.84zm15.84 15.84v39.6h19.8v-39.6zm-91.08 39.6v15.84h35.64v-15.84zm0 15.84h-19.8v19.8h19.8zm55.44-15.84v15.84h19.8v-15.84zm-19.8 35.64v35.64h19.8v-35.64zm19.8 35.64v19.8h19.8v-19.8zm87.12-35.64v19.8h23.76v-19.8zm-51.48 19.8v15.84h19.8v-15.84zm-35.64 55.44v15.84h19.8v-15.84zm0 15.84h-19.8v19.8h19.8z" fill="#af0000"/>
        <path d="m77.28 56.948v35.64h19.8v-35.64zm19.8 55.44v15.84h15.84v-15.84zm15.84 15.84v39.6h19.8v-19.8h19.8v-19.8h-19.8zm-15.84 0h-39.6v19.8h19.8v19.8h19.8v-19.8zm-95.04 19.8v19.8h35.64v-19.8z" fill="#d60000"/>
    </g>
    <text fill="#000000" font-family="sans-serif" font-size="10.583px" style="line-height:1.25;shape-inside:url(#rect42);white-space:pre" xml:space="preserve"/>
    <text transform="scale(1.0072 .99286)" x="21.857201" y="11.046087" fill="#000000" font-family="sans-serif" font-size="8.4007px" stroke-width=".26167" style="line-height:1.25" xml:space="preserve"><tspan x="21.857201" y="11.046087" fill="#ff0000" font-size="8.4007px" stroke-width=".26167">QuanMCPC's Website</tspan></text>
</svg>