<?xml version="1.0" encoding="UTF-8"?>
<svg width="512" height="512" version="1.1" viewBox="0 0 1344 2027.5" xmlns="http://www.w3.org/2000/svg">
 <rect x="-341.76" y="-2.8422e-14" width="2027.5" height="2027.5" fill="#ffffff" stroke-width="2"/>
 <g transform="matrix(4.8 0 0 4.8 168 293.72)" stroke-width="3.96">
  <path d="m97.08 1.5077v15.84h15.84v-15.84zm-150.48 126.72v19.8h19.8v-19.8zm297 0v19.8h19.8v-19.8z" fill="#d60000"/>
  <path d="m97.08 37.148v19.8h15.84v-19.8zm-39.6 55.44v35.64h19.8v-35.64zm39.6 0v19.8h15.84v-19.8zm15.84 19.8v15.84h39.6v19.8h71.28v-19.8h-59.4v-15.84zm110.88 35.64v19.8h19.8v-19.8zm-71.28 0h-19.8v55.44h19.8zm-19.8 55.44h-19.8v19.8h19.8zm-19.8 19.8h-15.84v55.44h15.84zm-15.84 55.44h-19.8v19.8h19.8zm15.84-75.24v-19.8h-15.84v19.8zm-15.84-19.8v-15.84h-19.8v15.84zm0-15.84h15.84v-19.8h-15.84zm-114.84-39.6v19.8h19.8v-19.8zm55.44 19.8v35.64h19.8v-35.64zm19.8 55.44v19.8h19.8v-19.8z" fill="#fd0000"/>
  <path d="m97.08 56.948v15.84h15.84v-15.84zm15.84 15.84v39.6h19.8v-39.6zm-91.08 39.6v15.84h35.64v-15.84zm0 15.84h-19.8v19.8h19.8zm55.44-15.84v15.84h19.8v-15.84zm-19.8 35.64v35.64h19.8v-35.64zm19.8 35.64v19.8h19.8v-19.8zm87.12-35.64v19.8h23.76v-19.8zm-51.48 19.8v15.84h19.8v-15.84zm-35.64 55.44v15.84h19.8v-15.84zm0 15.84h-19.8v19.8h19.8z" fill="#af0000"/>
  <path d="m77.28 56.948v35.64h19.8v-35.64zm19.8 55.44v15.84h15.84v-15.84zm15.84 15.84v39.6h19.8v-19.8h19.8v-19.8h-19.8zm-15.84 0h-39.6v19.8h19.8v19.8h19.8v-19.8zm-95.04 19.8v19.8h35.64v-19.8z" fill="#d60000"/>
 </g>
</svg>
