<?xml version="1.0" encoding="UTF-8"?>
<svg width="208" height="208" version="1.1" viewBox="0 0 55.033 55.033" xmlns="http://www.w3.org/2000/svg">
    <g>
        <path transform="scale(.26458)" d="m87 8v18h35v-18h-35zm35 18v17h18v-17h-18zm18 17v18h17v-18h-17zm17 18v17h18v-17h-18zm18 17v18h17v-18h-17zm17 18v51h16v-51h-16zm0 51h-17v18h17v-18zm-17 18h-35v17h35v-17zm-35 17h-70v18h70v-18zm-70 0v-17h-35v17h35zm-35-17v-18h-18v18h18zm-18-18v-51h-17v51h17zm0-51h18v-18h-18v18zm18-18h17v-17h-17v17zm17-17h18v-18h-18v18zm18-18h17v-17h-17v17z" fill="#2d0000"/>
        <path transform="scale(.26458)" d="m122 43v122h-52v17h52 18v-17h17v-18h18 17v-35-16h-35-17v-18h17v-17h-17v-18h-18zm-52 122v-18h-35v18h35zm-35-18v-17h-18v17h18zm122-35h18v18h-18v-18z" fill="#490000"/>
        <path transform="scale(.26458)" d="m140 78v18h17v-18h-17zm17 34v18h18v-18h-18zm-52 35v18h17v-18h-17z" fill="#360000"/>
        <path transform="scale(.26458)" d="m105 43v18h17v-18h-17zm-35 53v16h17v-16h-17zm-35 16v18h17v-18h-17z" fill="#540000"/>
        <path transform="scale(.26458)" d="m70 43v18h17v-18h-17zm87 35v18h18v-18h-18zm-140 18v16h18v-16h-18zm88 0v17h17v-17h-17zm-53 34v17h18v-17h-18zm105 17v18h18v-18h-18z" fill="#ff0000"/>
        <path transform="scale(.26458)" d="m87 26v35h-17-18v17h-17v34h17v18h18v35h17 18v-18h17v-34h-17v-17h17v-35h-17v-18h17v-17h-17-18zm-35 104h-17v17h17v-17zm-17 0v-18h-18v18h18zm35-34h17v16h-17v-16z" fill="#720000"/>
    </g>
</svg>
