<?xml version="1.0" encoding="UTF-8"?>
<svg width="240" height="240" version="1.1" viewBox="0 0 63.5 63.5" xmlns="http://www.w3.org/2000/svg">
    <g>
        <path transform="scale(.26458)" d="m100 10v20h40v-20h-40zm40 20v20h20v-20h-20zm20 20v20h20v-20h-20zm20 20v20h20v-20h-20zm20 20v20h20v-20h-20zm20 20v60h20v-60h-20zm0 60h-20v20h20v-20zm-20 20h-40v20h40v-20zm-40 20h-80v20h80v-20zm-80 0v-20h-40v20h40zm-40-20v-20h-20v20h20zm-20-20v-60h-20v60h20zm0-60h20v-20h-20v20zm20-20h20v-20h-20v20zm20-20h20v-20h-20v20zm20-20h20v-20h-20v20z" fill="#2d0000"/>
        <path transform="scale(.26458)" d="m100 30v20 20h-20-20v20h-20v40h20v20h20v40h20 20v-20h20v-40h-20v-20h20v-40h-20v-20h20v-20h-40zm-40 120h-20v20h20v-20zm-20 0v-20h-20v20h20zm40-40h20v20h-20v-20z" fill="#720000"/>
        <path transform="scale(.26458)" d="m140 50v140h-60v20h60 20v-20h20v-20h20 20v-60h-20-20-20v-20h20v-20h-20v-20h-20zm-60 140v-20h-40v20h40zm-40-20v-20h-20v20h20zm140-40h20v20h-20v-20z" fill="#490000"/>
        <path transform="scale(.26458)" d="m80 50v20h20v-20h-20zm100 40v20h20v-20h-20zm-160 20v20h20v-20h-20zm100 0v20h20v-20h-20zm-60 40v20h20v-20h-20zm120 20v20h20v-20h-20z" fill="#ff0000"/>
        <path transform="scale(.26458)" d="m160 90v20h20v-20h-20zm20 40v20h20v-20h-20zm-60 40v20h20v-20h-20z" fill="#360000"/>
        <path transform="scale(.26458)" d="m120 50v20h20v-20h-20zm-40 60v20h20v-20h-20zm-40 20v20h20v-20h-20z" fill="#540000"/>
    </g>
</svg>
