<?xml version="1.0" encoding="UTF-8" standalone="no"?>
<!-- Created with Inkscape (http://www.inkscape.org/) -->

<svg
   width="160"
   height="64"
   viewBox="0 0 42.333332 16.933333"
   version="1.1"
   id="svg292"
   inkscape:version="1.2.2 (732a01da63, 2022-12-09)"
   sodipodi:docname="3_years_of_service.svg"
   xmlns:inkscape="http://www.inkscape.org/namespaces/inkscape"
   xmlns:sodipodi="http://sodipodi.sourceforge.net/DTD/sodipodi-0.dtd"
   xmlns="http://www.w3.org/2000/svg"
   xmlns:svg="http://www.w3.org/2000/svg">
  <sodipodi:namedview
     id="namedview294"
     pagecolor="#ffffff"
     bordercolor="#000000"
     borderopacity="0.25"
     inkscape:showpageshadow="2"
     inkscape:pageopacity="0.0"
     inkscape:pagecheckerboard="0"
     inkscape:deskcolor="#d1d1d1"
     inkscape:document-units="mm"
     showgrid="false"
     showguides="true"
     inkscape:zoom="4.1776837"
     inkscape:cx="79.350191"
     inkscape:cy="11.010886"
     inkscape:window-width="1920"
     inkscape:window-height="1009"
     inkscape:window-x="-8"
     inkscape:window-y="-8"
     inkscape:window-maximized="1"
     inkscape:current-layer="layer1">
    <sodipodi:guide
       position="8.4666562,8.4666664"
       orientation="1,0"
       id="guide1084"
       inkscape:locked="false" />
    <sodipodi:guide
       position="8.4666562,8.4666664"
       orientation="0,-1"
       id="guide1086"
       inkscape:locked="false" />
    <sodipodi:guide
       position="16.933332,10.318752"
       orientation="1,0"
       id="guide1088"
       inkscape:locked="false" />
    <sodipodi:guide
       position="26.536335,15.875"
       orientation="0,-1"
       id="guide1816"
       inkscape:locked="false" />
    <sodipodi:guide
       position="30.336287,1.0583333"
       orientation="0,-1"
       id="guide1818"
       inkscape:locked="false" />
    <sodipodi:guide
       position="1.0583333,13.703373"
       orientation="1,0"
       id="guide1820"
       inkscape:locked="false" />
    <sodipodi:guide
       position="41.274998,15.875"
       orientation="1,0"
       id="guide1822"
       inkscape:locked="false" />
  </sodipodi:namedview>
  <defs
     id="defs289" />
  <g
     inkscape:label="Layer 1"
     inkscape:groupmode="layer"
     id="layer1">
    <rect
       style="fill:#92ad00;stroke-width:0.264583;fill-opacity:1"
       id="rect111"
       width="42.333332"
       height="16.933332"
       x="2.890045e-07"
       y="2.5453949e-07" />
    <text
       xml:space="preserve"
       style="font-size:13.5482px;fill:#a3c300;fill-opacity:1;stroke-width:1.12902"
       x="4.6727533"
       y="12.789798"
       id="text4056"><tspan
         sodipodi:role="line"
         id="tspan4054"
         style="font-style:normal;font-variant:normal;font-weight:normal;font-stretch:normal;font-family:Consolas;-inkscape-font-specification:Consolas;fill:#ffffff;stroke-width:1.12902"
         x="4.6727533"
         y="12.789798">3</tspan></text>
    <g
       aria-label="Years of"
       id="text5668"
       style="font-size:4.23333px;font-family:Consolas;-inkscape-font-specification:Consolas;fill:#ffffff;stroke-width:0.264583">
      <path
         d="m 16.933333,4.2619576 h 0.444417 l 0.752408,1.3621896 0.750341,-1.3621896 H 19.32905 L 18.33893,5.9631444 V 7.3480716 H 17.919318 V 5.9631444 Z"
         style="font-family:'MesloLGS NF';-inkscape-font-specification:'MesloLGS NF'"
         id="path406" />
      <path
         d="m 21.720633,6.0003514 v 0.186035 H 20.07319 v 0.012402 q -0.01654,0.4733557 0.179834,0.6800613 0.198437,0.2067055 0.558105,0.2067055 0.181901,0 0.380338,-0.057878 0.198437,-0.057878 0.423747,-0.1756998 v 0.3782712 q -0.217041,0.088883 -0.419613,0.1322916 -0.200504,0.045475 -0.388606,0.045475 -0.539502,0 -0.843359,-0.3224607 -0.303857,-0.3245277 -0.303857,-0.892968 0,-0.5539709 0.297656,-0.8846998 0.297656,-0.3307288 0.793749,-0.3307288 0.44235,0 0.696598,0.299723 0.256315,0.2997231 0.272851,0.7234695 z m -0.380338,-0.111621 q -0.02481,-0.2397785 -0.1757,-0.4134112 -0.148828,-0.1756997 -0.429947,-0.1756997 -0.274918,0 -0.452685,0.1819009 -0.177767,0.1819009 -0.194303,0.409277 z"
         style="font-family:'MesloLGS NF';-inkscape-font-specification:'MesloLGS NF'"
         id="path408" />
      <path
         d="m 23.405284,6.1843193 h -0.126091 q -0.332796,0 -0.502294,0.1178222 -0.167432,0.1157551 -0.167432,0.3472653 0,0.2087726 0.126091,0.3245277 0.12609,0.1157551 0.349332,0.1157551 0.314193,0 0.494026,-0.2170408 0.179834,-0.2191079 0.181901,-0.6035802 V 6.1843193 Z M 24.143223,6.0272231 V 7.3480716 H 23.760817 V 7.0049404 q -0.121956,0.2067055 -0.307991,0.3059242 -0.183968,0.097152 -0.448551,0.097152 -0.353467,0 -0.564306,-0.1984373 -0.21084,-0.2005044 -0.21084,-0.5353674 0,-0.3865394 0.258382,-0.5870438 0.260449,-0.2005044 0.762744,-0.2005044 h 0.510562 v -0.059945 q -0.0021,-0.2769855 -0.140559,-0.4010088 -0.138493,-0.1260904 -0.44235,-0.1260904 -0.194304,0 -0.392741,0.05581 -0.198437,0.05581 -0.386539,0.1632974 V 5.1383892 Q 22.609467,5.057774 22.801704,5.0185 q 0.194303,-0.041341 0.376204,-0.041341 0.28732,0 0.489892,0.084749 0.204638,0.084749 0.330729,0.2542479 0.07855,0.1033527 0.111621,0.2563149 0.03307,0.150895 0.03307,0.4547522 z"
         style="font-family:'MesloLGS NF';-inkscape-font-specification:'MesloLGS NF'"
         id="path410" />
      <path
         d="m 26.89034,5.5104592 q -0.121957,-0.095085 -0.248047,-0.1384927 -0.12609,-0.043408 -0.276985,-0.043408 -0.355534,0 -0.543636,0.223242 -0.188102,0.223242 -0.188102,0.6449213 v 1.15135 H 25.251165 V 5.0329694 h 0.382405 v 0.4526851 q 0.09509,-0.2459796 0.291455,-0.3762041 0.198437,-0.1322915 0.469221,-0.1322915 0.14056,0 0.262516,0.03514 0.121957,0.03514 0.233578,0.1095539 z"
         style="font-family:'MesloLGS NF';-inkscape-font-specification:'MesloLGS NF'"
         id="path412" />
      <path
         d="m 29.062815,5.1135845 v 0.37207 Q 28.899518,5.39057 28.734153,5.3430277 q -0.165364,-0.047542 -0.33693,-0.047542 -0.258382,0 -0.386539,0.084749 -0.126091,0.082682 -0.126091,0.2542478 0,0.1550292 0.09509,0.2315102 0.09508,0.076481 0.473356,0.148828 l 0.152962,0.028939 q 0.283186,0.053743 0.42788,0.2149738 0.146761,0.1612303 0.146761,0.4196123 0,0.3431312 -0.243912,0.5374344 -0.243913,0.1922362 -0.677995,0.1922362 -0.171565,0 -0.359667,-0.037207 -0.188102,-0.03514 -0.40721,-0.1074869 V 6.8705817 q 0.212906,0.109554 0.40721,0.1653645 0.194303,0.053743 0.367936,0.053743 0.25218,0 0.390673,-0.1012857 0.138493,-0.1033528 0.138493,-0.2873207 0,-0.2645831 -0.506429,-0.3658688 L 28.2732,6.3310802 28.130573,6.3021415 Q 27.801911,6.2380627 27.651016,6.0871677 27.500121,5.9342056 27.500121,5.6716895 q 0,-0.3327959 0.225309,-0.5126298 0.225309,-0.1819008 0.642854,-0.1819008 0.186035,0 0.357601,0.03514 0.171566,0.033073 0.33693,0.1012857 z"
         style="font-family:'MesloLGS NF';-inkscape-font-specification:'MesloLGS NF'"
         id="path414" />
      <path
         d="m 33.422236,5.2996195 q -0.289388,0 -0.438216,0.2253091 -0.148828,0.225309 -0.148828,0.6676589 0,0.4402829 0.148828,0.667659 0.148828,0.225309 0.438216,0.225309 0.291455,0 0.440283,-0.225309 0.148828,-0.2273761 0.148828,-0.667659 0,-0.4423499 -0.148828,-0.6676589 -0.148828,-0.2253091 -0.440283,-0.2253091 z m 0,-0.3224606 q 0.481624,0 0.735872,0.3121253 0.256314,0.3121254 0.256314,0.9033033 0,0.593245 -0.254247,0.9053704 -0.254248,0.3100583 -0.737939,0.3100583 -0.481624,0 -0.735872,-0.3100583 -0.254248,-0.3121254 -0.254248,-0.9053704 0,-0.5911779 0.254248,-0.9033033 0.254248,-0.3121253 0.735872,-0.3121253 z"
         style="font-family:'MesloLGS NF';-inkscape-font-specification:'MesloLGS NF'"
         id="path416" />
      <path
         d="m 36.894889,4.1317331 v 0.3162595 h -0.432015 q -0.204638,0 -0.285253,0.084749 -0.07855,0.082682 -0.07855,0.295589 v 0.2046385 h 0.795816 V 5.3285583 H 36.099073 V 7.3480716 H 35.718734 V 5.3285583 H 35.100685 V 5.0329694 h 0.618049 V 4.871739 q 0,-0.3803382 0.173633,-0.560172 0.1757,-0.1798339 0.545703,-0.1798339 z"
         style="font-family:'MesloLGS NF';-inkscape-font-specification:'MesloLGS NF'"
         id="path418" />
    </g>
    <g
       aria-label="Service"
       id="text5676"
       style="font-size:4.23333px;font-family:Consolas;-inkscape-font-specification:Consolas;fill:#ffffff;stroke-width:0.264583">
      <path
         d="m 18.737872,9.7503087 v 0.4237463 q -0.19017,-0.121956 -0.382406,-0.1839679 -0.190169,-0.062012 -0.384472,-0.062012 -0.295589,0 -0.467155,0.1384925 -0.171565,0.136426 -0.171565,0.370003 0,0.204639 0.111621,0.312126 0.113688,0.107486 0.421679,0.179833 l 0.219108,0.04961 q 0.434082,0.101285 0.632519,0.318326 0.198437,0.217041 0.198437,0.591178 0,0.440283 -0.272851,0.671793 -0.272851,0.23151 -0.793749,0.23151 -0.217041,0 -0.436149,-0.04754 -0.219108,-0.04547 -0.440283,-0.138493 v -0.444417 q 0.237712,0.150896 0.448551,0.221175 0.212907,0.07028 0.427881,0.07028 0.316259,0 0.491959,-0.140559 0.1757,-0.142627 0.1757,-0.396875 0,-0.23151 -0.121957,-0.353467 -0.119889,-0.121956 -0.419612,-0.188102 l -0.223242,-0.05168 q -0.429947,-0.09715 -0.624251,-0.293522 -0.194303,-0.19637 -0.194303,-0.527099 0,-0.413411 0.276986,-0.6614579 0.279052,-0.2501137 0.740005,-0.2501137 0.177767,0 0.374137,0.041341 0.196371,0.039274 0.413412,0.1198892 z"
         style="font-family:'MesloLGS NF';-inkscape-font-specification:'MesloLGS NF'"
         id="path421" />
      <path
         d="m 21.509793,11.383283 v 0.186035 H 19.86235 v 0.0124 q -0.01654,0.473356 0.179834,0.680061 0.198437,0.206706 0.558105,0.206706 0.181901,0 0.380338,-0.05788 0.198437,-0.05788 0.423746,-0.1757 v 0.378272 q -0.217041,0.08888 -0.419612,0.132291 -0.200504,0.04547 -0.388606,0.04547 -0.539502,0 -0.843359,-0.32246 -0.303857,-0.324528 -0.303857,-0.892968 0,-0.553971 0.297656,-0.8847 0.297656,-0.330729 0.793749,-0.330729 0.44235,0 0.696598,0.299723 0.256315,0.299723 0.272851,0.72347 z m -0.380338,-0.111621 q -0.02481,-0.239779 -0.1757,-0.413412 -0.148828,-0.175699 -0.429947,-0.175699 -0.274919,0 -0.452686,0.181901 -0.177766,0.181901 -0.194303,0.409277 z"
         style="font-family:'MesloLGS NF';-inkscape-font-specification:'MesloLGS NF'"
         id="path423" />
      <path
         d="m 24.13082,10.89339 q -0.121957,-0.09508 -0.248047,-0.138492 -0.12609,-0.04341 -0.276985,-0.04341 -0.355534,0 -0.543636,0.223242 -0.188102,0.223242 -0.188102,0.644921 v 1.15135 h -0.382405 v -2.315102 h 0.382405 v 0.452685 q 0.09508,-0.24598 0.291455,-0.376204 0.198437,-0.132292 0.469221,-0.132292 0.14056,0 0.262516,0.03514 0.121957,0.03514 0.233578,0.109554 z"
         style="font-family:'MesloLGS NF';-inkscape-font-specification:'MesloLGS NF'"
         id="path425" />
      <path
         d="m 24.498756,10.415901 h 0.394808 l 0.671793,1.943032 0.67386,-1.943032 h 0.394807 l -0.822688,2.315102 h -0.489892 z"
         style="font-family:'MesloLGS NF';-inkscape-font-specification:'MesloLGS NF'"
         id="path427" />
      <path
         d="m 27.493919,10.424169 h 0.973583 v 2.011245 h 0.754476 v 0.295589 h -1.889289 v -0.295589 h 0.754475 v -1.715656 h -0.593245 z m 0.593245,-0.8991694 h 0.380338 v 0.4795574 h -0.380338 z"
         style="font-family:'MesloLGS NF';-inkscape-font-specification:'MesloLGS NF'"
         id="path429" />
      <path
         d="m 31.582555,12.613181 q -0.152962,0.08888 -0.316259,0.132291 -0.161231,0.04547 -0.330729,0.04547 -0.537435,0 -0.841292,-0.32246 -0.30179,-0.322461 -0.30179,-0.892968 0,-0.570508 0.30179,-0.892968 0.303857,-0.322461 0.841292,-0.322461 0.167431,0 0.326594,0.04341 0.159164,0.04341 0.320394,0.134359 v 0.398942 q -0.150895,-0.134359 -0.303857,-0.194304 -0.150895,-0.05994 -0.343131,-0.05994 -0.357601,0 -0.549837,0.23151 -0.192236,0.23151 -0.192236,0.661458 0,0.42788 0.192236,0.661458 0.194303,0.23151 0.549837,0.23151 0.198437,0 0.355533,-0.05994 0.157096,-0.06201 0.291455,-0.190169 z"
         style="font-family:'MesloLGS NF';-inkscape-font-specification:'MesloLGS NF'"
         id="path431" />
      <path
         d="m 34.253192,11.383283 v 0.186035 h -1.647444 v 0.0124 q -0.01654,0.473356 0.179834,0.680061 0.198437,0.206706 0.558105,0.206706 0.181901,0 0.380338,-0.05788 0.198438,-0.05788 0.423747,-0.1757 v 0.378272 q -0.217041,0.08888 -0.419613,0.132291 -0.200504,0.04547 -0.388606,0.04547 -0.539501,0 -0.843359,-0.32246 -0.303857,-0.324528 -0.303857,-0.892968 0,-0.553971 0.297656,-0.8847 0.297656,-0.330729 0.79375,-0.330729 0.442349,0 0.696597,0.299723 0.256315,0.299723 0.272852,0.72347 z m -0.380339,-0.111621 q -0.0248,-0.239779 -0.175699,-0.413412 -0.148828,-0.175699 -0.429948,-0.175699 -0.274918,0 -0.452685,0.181901 -0.177767,0.181901 -0.194303,0.409277 z"
         style="font-family:'MesloLGS NF';-inkscape-font-specification:'MesloLGS NF'"
         id="path433" />
    </g>
    <text
       xml:space="preserve"
       style="font-style:normal;font-variant:normal;font-weight:normal;font-stretch:normal;font-size:2.82222px;font-family:Consolas;-inkscape-font-specification:Consolas;fill:#ffffff;fill-opacity:1;stroke-width:0.264583"
       x="38.199791"
       y="3.1348011"
       id="text12316"><tspan
         sodipodi:role="line"
         id="tspan12314"
         style="font-size:2.82222px;stroke-width:0.264583;fill:#ffffff;fill-opacity:1"
         x="38.199791"
         y="3.1348011" /></text>
    <path
       id="rect1058"
       style="fill:#ffffff;stroke-width:0.298912"
       d="M -1.8011171e-7,2.5453949e-7 V 1.0583336 15.875 v 0.264583 0.79375 H 42.333333 V 16.139583 15.875 0.79375024 2.5453949e-7 Z M 1.0583328,1.0583336 H 41.274999 V 15.875 H 1.0583328 Z" />
  </g>
</svg>
