<?xml version="1.0" encoding="UTF-8"?>
<!-- Created with Inkscape (http://www.inkscape.org/) -->
<svg width="160" height="64" version="1.1" viewBox="0 0 42.333 16.933" xmlns="http://www.w3.org/2000/svg">
    <g stroke-width=".26458">
        <rect width="42.333" height="16.933" fill="#00877e"/>
        <g fill="#fff" aria-label="Certified">
            <path d="m17.347 7.5317q-0.13264 0.070625-0.27216 0.10508-0.13953 0.036174-0.29628 0.036174-0.49437 0-0.76826-0.34968-0.27216-0.34968-0.27216-0.98358 0-0.63045 0.27389-0.98185 0.27561-0.35312 0.76653-0.35312 0.15675 0 0.29628 0.036174 0.13953 0.034451 0.27216 0.10508v0.35657q-0.12747-0.10508-0.27388-0.1602-0.14642-0.055122-0.29456-0.055122-0.33934 0-0.50815 0.26183t-0.16881 0.79065q0 0.5271 0.16881 0.78893t0.50815 0.26183q0.15158 0 0.29628-0.055121 0.14642-0.055122 0.27216-0.1602z"/>
            <path d="m19.552 6.4999v0.15503h-1.3729v0.010335q-0.01378 0.39446 0.14986 0.56672 0.16536 0.17225 0.46509 0.17225 0.15158 0 0.31695-0.048231t0.35312-0.14642v0.31523q-0.18087 0.07407-0.34968 0.11024-0.16709 0.037896-0.32384 0.037896-0.44958 0-0.7028-0.26872-0.25322-0.27044-0.25322-0.74414 0-0.46164 0.24805-0.73725t0.66146-0.27561q0.36863 0 0.5805 0.24977 0.2136 0.24977 0.22738 0.60289zm-0.31695-0.093018q-0.020671-0.19982-0.14642-0.34451-0.12402-0.14642-0.35829-0.14642-0.2291 0-0.37724 0.15158-0.14814 0.15158-0.16192 0.34106z"/>
            <path d="m21.736 6.0916q-0.10163-0.079237-0.20671-0.11541-0.10508-0.036174-0.23082-0.036174-0.29628 0-0.45303 0.18604t-0.15675 0.53744v0.95946h-0.31867v-1.9293h0.31867v0.37724q0.07924-0.20498 0.24288-0.3135 0.16536-0.11024 0.39102-0.11024 0.11713 0 0.21876 0.029283 0.10163 0.029283 0.19465 0.091295z"/>
            <path d="m22.928 5.1459v0.54777h0.72003v0.24632h-0.72003v1.0473q0 0.2136 0.08096 0.298 0.08096 0.084405 0.2825 0.084405h0.35657v0.25321h-0.38757q-0.35657 0-0.50298-0.14297-0.14642-0.14297-0.14642-0.49265v-1.0473h-0.51504v-0.24632h0.51504v-0.54777z"/>
            <path d="m24.539 5.7006h0.81132v1.676h0.62873v0.24632h-1.5744v-0.24632h0.62873v-1.4297h-0.49437zm0.49437-0.74931h0.31695v0.39963h-0.31695z"/>
            <path d="m27.949 4.9427v0.26355h-0.36001q-0.17053 0-0.23771 0.070624-0.06546 0.068902-0.06546 0.24632v0.17053h0.66318v0.24632h-0.66318v1.6829h-0.31695v-1.6829h-0.51504v-0.24632h0.51504v-0.13436q0-0.31695 0.14469-0.46681 0.14642-0.14986 0.45475-0.14986z"/>
            <path d="m28.786 5.7006h0.81132v1.676h0.62873v0.24632h-1.5744v-0.24632h0.62873v-1.4297h-0.49437zm0.49437-0.74931h0.31695v0.39963h-0.31695z"/>
            <path d="m32.295 6.4999v0.15503h-1.3729v0.010335q-0.01378 0.39446 0.14986 0.56672 0.16536 0.17225 0.46509 0.17225 0.15158 0 0.31695-0.048231 0.16536-0.048231 0.35312-0.14642v0.31523q-0.18087 0.07407-0.34968 0.11024-0.16709 0.037896-0.32384 0.037896-0.44958 0-0.7028-0.26872-0.25321-0.27044-0.25321-0.74414 0-0.46164 0.24805-0.73725t0.66146-0.27561q0.36863 0 0.5805 0.24977 0.2136 0.24977 0.22738 0.60289zm-0.31695-0.093018q-0.020671-0.19982-0.14642-0.34451-0.12402-0.14642-0.35829-0.14642-0.2291 0-0.37724 0.15158t-0.16192 0.34106z"/>
            <path d="m33.968 5.94v-0.99736h0.31695v2.6803h-0.31695v-0.24288q-0.07924 0.14297-0.21187 0.21876-0.13091 0.07407-0.30317 0.07407-0.34968 0-0.55122-0.27044-0.19982-0.27216-0.19982-0.74931 0-0.47026 0.20154-0.73725 0.20154-0.26872 0.54949-0.26872 0.17398 0 0.30661 0.075792 0.13264 0.07407 0.20843 0.21704zm-0.9319 0.72003q0 0.36863 0.11713 0.55638 0.11713 0.18776 0.34623 0.18776t0.34796-0.18948q0.12058-0.18948 0.12058-0.55466 0-0.3669-0.12058-0.55466-0.11886-0.18948-0.34796-0.18948t-0.34623 0.18776q-0.11713 0.18776-0.11713 0.55638z"/>
        </g>
        <g fill="#fff" aria-label="Preschooler">
            <path d="m16.086 9.6652v0.96635h0.40308q0.24116 0 0.37552-0.12747 0.13608-0.12747 0.13608-0.35657 0-0.2291-0.13436-0.35485-0.13436-0.12747-0.37724-0.12747zm-0.34796-0.28594h0.75103q0.43064 0 0.65285 0.19637 0.22221 0.19465 0.22221 0.57189 0 0.38068-0.22221 0.57533-0.22049 0.19465-0.65285 0.19465h-0.40308v1.0335h-0.34796z"/>
            <path d="m19.512 10.42q-0.10163-0.07924-0.20671-0.11541t-0.23082-0.03617q-0.29628 0-0.45303 0.18604-0.15675 0.18604-0.15675 0.53744v0.95946h-0.31867v-1.9293h0.31867v0.37724q0.07924-0.20498 0.24288-0.3135 0.16536-0.11024 0.39102-0.11024 0.11713 0 0.21876 0.029283 0.10163 0.02928 0.19465 0.0913z"/>
            <path d="m21.576 10.828v0.15503h-1.3729v0.01034q-0.01378 0.39446 0.14986 0.56672 0.16536 0.17226 0.46509 0.17226 0.15158 0 0.31695-0.04823t0.35312-0.14642v0.31523q-0.18087 0.07407-0.34968 0.11024-0.16709 0.0379-0.32384 0.0379-0.44958 0-0.7028-0.26872-0.25322-0.27044-0.25322-0.74414 0-0.46164 0.24805-0.73725 0.24805-0.27561 0.66146-0.27561 0.36862 0 0.5805 0.24977 0.2136 0.24977 0.22738 0.60289zm-0.31695-0.09302q-0.02067-0.19982-0.14642-0.34451-0.12402-0.14642-0.35829-0.14642-0.2291 0-0.37724 0.15158-0.14814 0.15158-0.16192 0.34106z"/>
            <path d="m23.447 10.089v0.31006q-0.13608-0.07924-0.27389-0.11886-0.1378-0.03962-0.28078-0.03962-0.21532 0-0.32212 0.07062-0.10508 0.0689-0.10508 0.21187 0 0.12919 0.07924 0.19293 0.07924 0.06373 0.39446 0.12402l0.12747 0.02412q0.23599 0.04479 0.35657 0.17914 0.1223 0.13436 0.1223 0.34968 0 0.28594-0.20326 0.44786-0.20326 0.1602-0.565 0.1602-0.14297 0-0.29972-0.03101-0.15675-0.02928-0.33934-0.08957v-0.32728q0.17742 0.0913 0.33934 0.1378 0.16192 0.04479 0.30661 0.04479 0.21015 0 0.32556-0.08441 0.11541-0.08613 0.11541-0.23943 0-0.22049-0.42202-0.30489l-0.01378-0.0034-0.11886-0.02412q-0.27388-0.0534-0.39963-0.17914-0.12575-0.12747-0.12575-0.34623 0-0.27733 0.18776-0.42719 0.18776-0.15158 0.53571-0.15158 0.15503 0 0.298 0.029283 0.14297 0.02756 0.28078 0.08441z"/>
            <path d="m25.722 11.853q-0.12747 0.07407-0.26355 0.11024-0.13436 0.0379-0.27561 0.0379-0.44786 0-0.70108-0.26872-0.25149-0.26872-0.25149-0.74414 0-0.47542 0.25149-0.74414 0.25322-0.26872 0.70108-0.26872 0.13953 0 0.27216 0.036173 0.13264 0.03617 0.267 0.11197v0.33245q-0.12575-0.11197-0.25322-0.16192-0.12575-0.04995-0.28594-0.04995-0.298 0-0.4582 0.19293-0.1602 0.19292-0.1602 0.55122 0 0.35657 0.1602 0.55122 0.16192 0.19293 0.4582 0.19293 0.16536 0 0.29628-0.04995 0.13091-0.05168 0.24288-0.15848z"/>
            <path d="m27.829 10.756v1.1954h-0.31867v-1.1954q0-0.2601-0.09129-0.3824-0.0913-0.1223-0.28594-0.1223-0.22221 0-0.34279 0.15847-0.11886 0.15675-0.11886 0.45131v1.0904h-0.31695v-2.6803h0.31695v1.0404q0.08441-0.16536 0.2291-0.24977 0.14469-0.086127 0.34279-0.086127 0.29456 0 0.43925 0.19465 0.14642 0.19292 0.14642 0.58567z"/>
            <path d="m29.203 10.244q-0.24116 0-0.36518 0.18776-0.12402 0.18776-0.12402 0.55638 0 0.3669 0.12402 0.55638 0.12402 0.18776 0.36518 0.18776 0.24288 0 0.3669-0.18776 0.12402-0.18948 0.12402-0.55638 0-0.36863-0.12402-0.55638-0.12402-0.18776-0.3669-0.18776zm0-0.26872q0.40135 0 0.61323 0.26011 0.2136 0.2601 0.2136 0.75275 0 0.49437-0.21187 0.75448-0.21187 0.25838-0.61495 0.25838-0.40135 0-0.61323-0.25838-0.21187-0.2601-0.21187-0.75448 0-0.49265 0.21187-0.75275 0.21187-0.26011 0.61323-0.26011z"/>
            <path d="m31.327 10.244q-0.24116 0-0.36518 0.18776-0.12402 0.18776-0.12402 0.55638 0 0.3669 0.12402 0.55638 0.12402 0.18776 0.36518 0.18776 0.24288 0 0.3669-0.18776 0.12402-0.18948 0.12402-0.55638 0-0.36863-0.12402-0.55638-0.12402-0.18776-0.3669-0.18776zm0-0.26872q0.40135 0 0.61323 0.26011 0.2136 0.2601 0.2136 0.75275 0 0.49437-0.21187 0.75448-0.21187 0.25838-0.61495 0.25838-0.40135 0-0.61323-0.25838-0.21187-0.2601-0.21187-0.75448 0-0.49265 0.21187-0.75275 0.21187-0.26011 0.61323-0.26011z"/>
            <path d="m33.629 11.253q0 0.2136 0.07752 0.32212 0.07924 0.10852 0.23254 0.10852h0.37035v0.267h-0.40135q-0.28422 0-0.44097-0.18087-0.15503-0.18259-0.15503-0.51676v-1.7449h-0.50816v-0.24805h0.8251z"/>
            <path d="m36.443 10.828v0.15503h-1.3729v0.01034q-0.01378 0.39446 0.14986 0.56672 0.16536 0.17226 0.46509 0.17226 0.15158 0 0.31695-0.04823t0.35312-0.14642v0.31523q-0.18087 0.07407-0.34968 0.11024-0.16709 0.0379-0.32384 0.0379-0.44958 0-0.7028-0.26872-0.25322-0.27044-0.25322-0.74414 0-0.46164 0.24805-0.73725 0.24805-0.27561 0.66146-0.27561 0.36863 0 0.5805 0.24977 0.2136 0.24977 0.22738 0.60289zm-0.31695-0.09302q-0.02067-0.19982-0.14642-0.34451-0.12402-0.14642-0.35829-0.14642-0.2291 0-0.37724 0.15158-0.14814 0.15158-0.16192 0.34106z"/>
            <path d="m38.627 10.42q-0.10163-0.07924-0.20671-0.11541-0.10508-0.03617-0.23082-0.03617-0.29628 0-0.45303 0.18604-0.15675 0.18604-0.15675 0.53744v0.95946h-0.31867v-1.9293h0.31867v0.37724q0.07924-0.20498 0.24288-0.3135 0.16536-0.11024 0.39102-0.11024 0.11713 0 0.21876 0.029283 0.10163 0.02928 0.19465 0.0913z"/>
        </g>
        <text x="38.199791" y="3.1348009" fill="#ffffff" font-family="Consolas" font-size="2.8222px" xml:space="preserve"><tspan x="38.199791" y="3.1348009" fill="#ffffff" font-size="2.8222px" stroke-width=".26458"/></text>
    </g>
    <path d="m-4.6912e-7 0v16.933h42.333v-16.933zm1.0583 1.0583h40.217v14.817h-40.217z" fill="#fff" stroke-width=".29891"/>
    <path d="m13.625 7.914c0-0.99481-0.58952-1.8791-1.4001-2.2844 0.40529-0.3316 0.66321-0.84743 0.66321-1.4001 0-0.22107-0.14738-0.36845-0.36845-0.36845s-0.36845 0.14738-0.36845 0.36845c0 0.47898-0.3316 0.88428-0.81059 1.0317l-0.36845 0.11053c-1.2527 0.036844-2.3212 0.99481-2.5055 2.2107h-1.6212-0.18422-0.036844c-0.036844 0-0.11053 0-0.14738 0.036844-1.179 0.14738-2.0633 1.1422-2.0633 2.3581v0.51583c-0.62636 0.07369-1.1053 0.62636-1.1053 1.2896 0 0.70005 0.58952 1.2896 1.2896 1.2896h0.55267c0.81059 0 1.4738-0.66321 1.4738-1.4738v-0.36845h1.2896l0.81059 1.2527c0.18422 0.29476 0.51583 0.47898 0.84743 0.55267 0.3316 0.07369 0.70005-0.03685 0.99481-0.22107 0.55267-0.4053 0.66321-1.179 0.29476-1.7317l-0.40529-0.62636c0.18422 0.03684 0.36845 0.07369 0.58952 0.07369 1.437-0.03684 2.5791-1.179 2.5791-2.616zm-2.2107-0.36845c0-0.22107 0.14738-0.36845 0.36845-0.36845s0.36845 0.14738 0.36845 0.36845v0.7369c0 0.22107-0.14738 0.36845-0.36845 0.36845s-0.36845-0.14738-0.36845-0.36845zm-5.1583 2.9476h-1.1053v-0.51583c0-0.7369 0.47898-1.3633 1.1053-1.5843z" fill="#fff" stroke-width=".36845"/>
</svg>
