<?xml version="1.0" encoding="UTF-8" standalone="no"?>
<!-- Created with Inkscape (http://www.inkscape.org/) -->

<svg
   width="160"
   height="64"
   viewBox="0 0 42.333333 16.933333"
   version="1.1"
   id="svg5"
   xml:space="preserve"
   inkscape:version="1.2.1 (9c6d41e410, 2022-07-14)"
   sodipodi:docname="source_on_github.svg"
   xmlns:inkscape="http://www.inkscape.org/namespaces/inkscape"
   xmlns:sodipodi="http://sodipodi.sourceforge.net/DTD/sodipodi-0.dtd"
   xmlns="http://www.w3.org/2000/svg"
   xmlns:svg="http://www.w3.org/2000/svg"><sodipodi:namedview
     id="namedview7"
     pagecolor="#ffffff"
     bordercolor="#666666"
     borderopacity="1.0"
     inkscape:showpageshadow="2"
     inkscape:pageopacity="0.0"
     inkscape:pagecheckerboard="0"
     inkscape:deskcolor="#d1d1d1"
     inkscape:document-units="px"
     showgrid="false"
     inkscape:zoom="5.2016545"
     inkscape:cx="106.88907"
     inkscape:cy="43.447715"
     inkscape:window-width="1366"
     inkscape:window-height="699"
     inkscape:window-x="0"
     inkscape:window-y="0"
     inkscape:window-maximized="1"
     inkscape:current-layer="layer1"><inkscape:grid
       type="xygrid"
       id="grid232" /></sodipodi:namedview><defs
     id="defs2"><clipPath
       clipPathUnits="userSpaceOnUse"
       id="clipPath700"><g
         id="g704"
         transform="translate(-177.2812,-151.0127)"><path
           d="M 0,576 H 576 V 0 H 0 Z"
           id="path702" /></g></clipPath><clipPath
       clipPathUnits="userSpaceOnUse"
       id="clipPath694"><g
         id="g698"
         transform="translate(-333.2646,-187.751)"><path
           d="M 0,576 H 576 V 0 H 0 Z"
           id="path696" /></g></clipPath><clipPath
       clipPathUnits="userSpaceOnUse"
       id="clipPath688"><g
         id="g692"
         transform="translate(-209.4404,-176.0498)"><path
           d="M 0,576 H 576 V 0 H 0 Z"
           id="path690" /></g></clipPath><clipPath
       clipPathUnits="userSpaceOnUse"
       id="clipPath682"><g
         id="g686"
         transform="translate(-208.2217,-117.3857)"><path
           d="M 0,576 H 576 V 0 H 0 Z"
           id="path684" /></g></clipPath><clipPath
       clipPathUnits="userSpaceOnUse"
       id="clipPath676"><g
         id="g680"
         transform="translate(-398.0322,-159.8369)"><path
           d="M 0,576 H 576 V 0 H 0 Z"
           id="path678" /></g></clipPath><clipPath
       clipPathUnits="userSpaceOnUse"
       id="clipPath670"><g
         id="g674"
         transform="translate(-437.584,-111.5947)"><path
           d="M 0,576 H 576 V 0 H 0 Z"
           id="path672" /></g></clipPath><clipPath
       clipPathUnits="userSpaceOnUse"
       id="clipPath664"><g
         id="g668"
         transform="translate(-257.2017,-159.9785)"><path
           d="M 0,576 H 576 V 0 H 0 Z"
           id="path666" /></g></clipPath></defs><g
     inkscape:label="Layer 1"
     inkscape:groupmode="layer"
     id="layer1"><rect
       style="fill:#1a1a1a;stroke-width:0.264583"
       id="rect111"
       width="42.333332"
       height="16.933332"
       x="0"
       y="0" /><path
       d="M 8.4666511,3.1750151 C 5.5430136,3.1750151 3.175,5.6045087 3.175,8.6010192 c 0,2.3978418 1.5160579,4.4312358 3.6181661,5.1479208 0.2645822,0.0511 0.3615966,-0.11665 0.3615966,-0.2609 0,-0.128883 -0.00442,-0.470255 -0.00658,-0.922422 -1.471996,0.327369 -1.7824394,-0.727987 -1.7824394,-0.727987 -0.24077,-0.626252 -0.5886962,-0.793553 -0.5886962,-0.793553 -0.4793353,-0.336412 0.037042,-0.32963 0.037042,-0.32963 0.5313699,0.03798 0.8105046,0.558878 0.8105046,0.558878 0.4718389,0.829725 1.2386868,0.590078 1.5411928,0.451262 0.047625,-0.350881 0.1838852,-0.590077 0.3351381,-0.725727 C 6.3257367,10.86322 5.0905774,10.396575 5.0905774,8.3175109 c 0,-0.592339 0.2050514,-1.0761583 0.544599,-1.455978 -0.059532,-0.1370064 -0.2381242,-0.6886503 0.046302,-1.4360823 0,0 0.4431758,-0.1455979 1.4552041,0.5561653 0.4233314,-0.1207297 0.8731217,-0.1804147 1.3229119,-0.1831276 0.4497903,0.00272 0.8995806,0.062398 1.3229128,0.1831276 1.0054148,-0.7017634 1.4485888,-0.5561653 1.4485888,-0.5561653 0.284426,0.747432 0.105834,1.2990759 0.05292,1.4360823 0.337342,0.3798197 0.542393,0.863639 0.542393,1.455978 0,2.0844911 -1.236923,2.5434391 -2.4143145,2.6768291 0.1852077,0.162783 0.3571866,0.495573 0.3571866,1.00381 0,0.726179 -0.00658,1.309474 -0.00658,1.48582 0,0.142433 0.092603,0.311994 0.3638009,0.257735 2.117096,-0.71171 3.631831,-2.746462 3.631831,-5.1406858 0,-2.9965105 -2.369334,-5.4260041 -5.2916494,-5.4260041"
       id="path115"
       style="fill:#ffffff;stroke-width:0.446534" /><g
       aria-label="Source On"
       id="text288"
       style="font-size:4.23333px;line-height:1.25;stroke-width:0.264583"><path
         d="m 17.940866,6.6145807 c 0.609599,0 0.982132,-0.3513663 0.982132,-0.7916326 0,-0.410633 -0.270933,-0.6011329 -0.613833,-0.7408327 L 17.919699,4.9127822 C 17.682633,4.8154156 17.4244,4.718049 17.4244,4.4513492 c 0,-0.2497664 0.215899,-0.4063996 0.537632,-0.4063996 0.287867,0 0.499533,0.1015999 0.681566,0.2624664 l 0.186267,-0.2285998 c -0.2032,-0.2031998 -0.508,-0.3428997 -0.855133,-0.3428997 -0.529166,0 -0.910166,0.3132664 -0.910166,0.7365994 0,0.4063996 0.321734,0.6053661 0.601133,0.7154327 l 0.397933,0.1735665 c 0.283633,0.1227666 0.499533,0.2074332 0.499533,0.5037663 0,0.2582331 -0.224366,0.4402663 -0.605366,0.4402663 -0.3175,0 -0.605366,-0.1396999 -0.812799,-0.3471331 l -0.211667,0.2455332 c 0.249767,0.2497664 0.601133,0.4106329 1.007533,0.4106329 z"
         style="font-family:'Source Code Pro';-inkscape-font-specification:'Source Code Pro';fill:#ffffff"
         id="path4273" /><path
         d="m 20.459699,6.6145807 c 0.541866,0 1.015999,-0.3936996 1.015999,-1.0752657 0,-0.6900328 -0.474133,-1.0837324 -1.015999,-1.0837324 -0.541867,0 -1.016,0.3936996 -1.016,1.0837324 0,0.6815661 0.474133,1.0752657 1.016,1.0752657 z m 0,-0.2878664 c -0.3937,0 -0.656167,-0.3174997 -0.656167,-0.7873993 0,-0.474133 0.262467,-0.795866 0.656167,-0.795866 0.393699,0 0.656166,0.321733 0.656166,0.795866 0,0.4698996 -0.262467,0.7873993 -0.656166,0.7873993 z"
         style="font-family:'Source Code Pro';-inkscape-font-specification:'Source Code Pro';fill:#ffffff"
         id="path4275" /><path
         d="m 22.771098,6.6145807 c 0.3175,0 0.5588,-0.1693331 0.766233,-0.4106329 h 0.01693 l 0.02963,0.359833 h 0.283633 V 4.5063825 h -0.347133 v 1.4266321 c -0.2286,0.2666998 -0.402167,0.3809997 -0.639233,0.3809997 -0.3429,0 -0.474133,-0.1862665 -0.474133,-0.5757328 v -1.231899 h -0.351366 v 1.2784656 c 0,0.5418662 0.224366,0.8297326 0.715432,0.8297326 z"
         style="font-family:'Source Code Pro';-inkscape-font-specification:'Source Code Pro';fill:#ffffff"
         id="path4277" /><path
         d="m 24.887765,6.5637808 h 0.347133 v -1.206499 c 0.245533,-0.4275663 0.537633,-0.5884328 0.846666,-0.5884328 0.160866,0 0.237066,0.021167 0.380999,0.071967 l 0.08043,-0.3005664 c -0.127,-0.0635 -0.254,-0.084667 -0.4064,-0.084667 -0.381,0 -0.702733,0.2074331 -0.918633,0.5376328 h -0.0127 l -0.02963,-0.4868329 h -0.287866 z"
         style="font-family:'Source Code Pro';-inkscape-font-specification:'Source Code Pro';fill:#ffffff"
         id="path4279" /><path
         d="m 28.27443,6.6145807 c 0.3048,0 0.588433,-0.1185332 0.817033,-0.321733 L 28.93483,6.0684812 c -0.169334,0.1439332 -0.381,0.2582331 -0.635,0.2582331 -0.474133,0 -0.791632,-0.3174997 -0.791632,-0.7873993 0,-0.474133 0.325966,-0.795866 0.800099,-0.795866 0.2159,0 0.3937,0.0889 0.563033,0.2370664 L 29.044896,4.756149 C 28.875563,4.5910491 28.63003,4.4555826 28.295597,4.4555826 c -0.6223,0 -1.147233,0.3936996 -1.147233,1.0837324 0,0.6815661 0.4826,1.0752657 1.126066,1.0752657 z"
         style="font-family:'Source Code Pro';-inkscape-font-specification:'Source Code Pro';fill:#ffffff"
         id="path4281" /><path
         d="m 30.746696,6.6145807 c 0.3302,0 0.592666,-0.1100665 0.795866,-0.2455331 l -0.127,-0.2285998 c -0.186266,0.1185332 -0.381,0.1947332 -0.626533,0.1947332 -0.427566,0 -0.757766,-0.2370665 -0.800099,-0.7027328 h 1.621365 c 0.0085,-0.055033 0.01693,-0.1312332 0.01693,-0.2116665 0,-0.5799661 -0.347134,-0.9651991 -0.9398,-0.9651991 -0.550333,0 -1.049865,0.4063996 -1.049865,1.0752657 0,0.6857994 0.491066,1.0837324 1.109132,1.0837324 z m -0.0508,-1.8838317 c 0.351366,0 0.584199,0.2074332 0.613833,0.6307661 H 29.997397 C 30.060897,4.9551155 30.35723,4.730749 30.695896,4.730749 Z"
         style="font-family:'Source Code Pro';-inkscape-font-specification:'Source Code Pro';fill:#ffffff"
         id="path4283" /><path
         d="m 35.699696,6.6145807 c 0.626533,0 1.066799,-0.5418662 1.066799,-1.4520321 0,-0.8974659 -0.440266,-1.4266321 -1.066799,-1.4266321 -0.626533,0 -1.066799,0.5291662 -1.066799,1.4266321 0,0.9101659 0.440266,1.4520321 1.066799,1.4520321 z m 0,-0.309033 c -0.423333,0 -0.702733,-0.4317997 -0.702733,-1.1429991 0,-0.6984994 0.2794,-1.117599 0.702733,-1.117599 0.423333,0 0.702733,0.4190996 0.702733,1.117599 0,0.7111994 -0.2794,1.1429991 -0.702733,1.1429991 z"
         style="font-family:'Source Code Pro';-inkscape-font-specification:'Source Code Pro';fill:#ffffff"
         id="path4285" /><path
         d="m 37.363396,6.5637808 h 0.347133 V 5.128682 c 0.2413,-0.2497665 0.406399,-0.372533 0.651933,-0.372533 0.338666,0 0.474132,0.1862665 0.474132,0.5757328 v 1.231899 h 0.347134 V 5.2853152 c 0,-0.5418662 -0.224367,-0.8297326 -0.7112,-0.8297326 -0.321733,0 -0.558799,0.1735665 -0.774699,0.4021663 h -0.01693 l -0.02963,-0.3513664 h -0.287866 z"
         style="font-family:'Source Code Pro';-inkscape-font-specification:'Source Code Pro';fill:#ffffff"
         id="path4287" /></g><path
       id="rect1058"
       style="fill:#ffffff;stroke-width:0.298912"
       d="M 0 0 L 0 1.0583333 L 0 15.875 L 0 16.139583 L 0 16.933333 L 42.333333 16.933333 L 42.333333 16.139583 L 42.333333 15.875 L 42.333333 0.79374999 L 42.333333 0 L 0 0 z M 1.0583333 1.0583333 L 41.274999 1.0583333 L 41.274999 15.875 L 1.0583333 15.875 L 1.0583333 1.0583333 z " /><path
       id="path3882"
       style="fill:#ffffff;stroke-width:1.31336"
       d="m 20.162413,11.188775 h -1.407267 a 0.06600688,0.06533063 0 0 0 -0.06601,0.06533 v 0.68205 a 0.06600688,0.06533063 0 0 0 0.06601,0.06533 h 0.549179 v 0.847989 a 1.6726138,1.6554778 0 0 1 -0.463374,0.04198 c -0.402653,0 -0.965024,-0.146324 -0.965024,-1.369328 0,-1.222991 0.584824,-1.385011 1.13532,-1.385011 a 2.2310319,2.2081748 0 0 1 0.810564,0.122822 0.06600688,0.06533063 0 0 0 0.07923,-0.06533 l 0.158416,-0.6585326 a 0.06204647,0.06141079 0 0 0 -0.02644,-0.050959 2.2640353,2.2408401 0 0 0 -1.192085,-0.2155898 c -0.943898,0 -1.907599,0.3945962 -1.907599,2.2996384 0,1.905038 1.104954,2.188575 2.035649,2.188575 a 2.2917582,2.2682789 0 0 0 1.238293,-0.326673 0.05676588,0.05618431 0 0 0 0.02096,-0.04963 v -2.127335 a 0.06600688,0.06533063 0 0 0 -0.06601,-0.06533 z m 7.320158,-1.6907576 a 0.06600688,0.06533063 0 0 0 -0.06601,-0.06533 h -0.793399 a 0.06600688,0.06533063 0 0 0 -0.06601,0.06533 V 11.014994 H 25.321501 V 9.4980174 a 0.06600688,0.06533063 0 0 0 -0.06601,-0.06533 h -0.792082 a 0.06600688,0.06533063 0 0 0 -0.06601,0.06533 v 4.1092976 a 0.06600688,0.06533063 0 0 0 0.06601,0.06533 h 0.792082 a 0.06600688,0.06533063 0 0 0 0.06601,-0.06533 V 11.84992 h 1.236971 l -0.0026,1.757395 a 0.06600688,0.06533063 0 0 0 0.06601,0.06533 h 0.796044 a 0.06600688,0.06533063 0 0 0 0.06601,-0.06533 z M 21.68849,10.036342 a 0.51221322,0.50696555 0 1 0 -0.510894,0.512192 0.51485351,0.50957879 0 0 0 0.510894,-0.512192 z m -0.05543,2.702076 v -1.895897 a 0.06600688,0.06533063 0 0 0 -0.06601,-0.06533 h -0.792082 a 0.07524782,0.0744769 0 0 0 -0.06731,0.07317 v 2.717755 c 0,0.07837 0.05015,0.103212 0.114859,0.103212 h 0.712874 c 0.07923,0 0.09769,-0.03901 0.09769,-0.104545 z m 8.929395,-1.956001 h -0.788121 a 0.06600688,0.06533063 0 0 0 -0.06601,0.06533 v 2.014797 a 0.88845233,0.87935006 0 0 1 -0.48448,0.143707 c -0.283852,0 -0.359094,-0.126719 -0.359094,-0.401145 v -1.756052 a 0.06600688,0.06533063 0 0 0 -0.066,-0.06533 h -0.797361 a 0.06600688,0.06533063 0 0 0 -0.06601,0.06533 v 1.889364 c 0,0.817938 0.459433,1.017849 1.093074,1.017849 a 1.8455518,1.826644 0 0 0 0.937301,-0.283562 1.6818548,1.664624 0 0 0 0.02894,0.167263 0.06864712,0.06794382 0 0 0 0.05808,0.03506 l 0.508255,-0.0026 a 0.06600688,0.06533063 0 0 0 0.06601,-0.06534 v -2.759335 a 0.06600688,0.06533063 0 0 0 -0.06601,-0.06533 z m 2.19407,-0.09146 a 1.4798738,1.4647123 0 0 0 -0.751158,0.195994 V 9.4980174 a 0.06600688,0.06533063 0 0 0 -0.06601,-0.06533 h -0.794722 a 0.06600688,0.06533063 0 0 0 -0.06601,0.06533 v 4.1092976 a 0.06600688,0.06533063 0 0 0 0.06601,0.06533 h 0.551813 a 0.06600688,0.06533063 0 0 0 0.05808,-0.03506 1.2844935,1.2713337 0 0 0 0.03293,-0.188153 1.4257482,1.4111413 0 0 0 0.941258,0.304451 c 0.723432,0 1.137954,-0.363217 1.137954,-1.630652 0,-1.267414 -0.662705,-1.430741 -1.110232,-1.430741 z M 32.446279,13.00497 A 0.94521821,0.93553437 0 0 1 31.988193,12.8743 v -1.301386 a 1.0468688,1.0361435 0 0 1 0.406594,-0.130669 c 0.283852,-0.02469 0.557097,0.0601 0.557097,0.729087 0,0.705571 -0.124089,0.845381 -0.50561,0.834927 z m -8.547876,-2.229083 h -0.594065 l -0.0026,-0.7774342 c 0,-0.03008 -0.01447,-0.04444 -0.0489,-0.04444 h -0.811881 c -0.03193,0 -0.0474,0.01309 -0.0474,0.04311 v 0.8035662 l -0.435633,0.104531 a 0.06600688,0.06533063 0 0 0 -0.0464,0.06272 v 0.505684 a 0.06600688,0.06533063 0 0 0 0.06601,0.06534 h 0.415824 v 1.215152 c 0,0.904172 0.638945,0.993024 1.071948,0.993024 a 1.8151887,1.7965919 0 0 0 0.471308,-0.07842 0.0607263,0.06010415 0 0 0 0.03692,-0.05748 l 0.0013,-0.556615 a 0.06600688,0.06533063 0 0 0 -0.06601,-0.06533 c -0.03443,0 -0.124089,0.01284 -0.215197,0.01284 -0.291736,0 -0.390778,-0.133287 -0.390778,-0.308352 v -1.15507 h 0.595382 a 0.06600688,0.06533063 0 0 0 0.06601,-0.06533 V 10.84122 a 0.06600688,0.06533063 0 0 0 -0.06601,-0.06533 z" /></g></svg>
