<?xml version="1.0" encoding="UTF-8"?>
<svg width="160" height="64" version="1.1" viewBox="0 0 42.333 16.933" xml:space="preserve" xmlns="http://www.w3.org/2000/svg"><rect width="42.333" height="16.933" fill="#1a1a1a" stroke-width=".26458"/><path d="m8.4667 3.175c-2.9236 0-5.2917 2.4295-5.2917 5.426 0 2.3978 1.5161 4.4312 3.6182 5.1479 0.26458 0.0511 0.3616-0.11665 0.3616-0.2609 0-0.12888-0.00442-0.47026-0.00658-0.92242-1.472 0.32737-1.7824-0.72799-1.7824-0.72799-0.24077-0.62625-0.5887-0.79355-0.5887-0.79355-0.47934-0.33641 0.037042-0.32963 0.037042-0.32963 0.53137 0.03798 0.8105 0.55888 0.8105 0.55888 0.47184 0.82972 1.2387 0.59008 1.5412 0.45126 0.047625-0.35088 0.18389-0.59008 0.33514-0.72573-1.1752-0.13564-2.4103-0.60229-2.4103-2.6814 0-0.59234 0.20505-1.0762 0.5446-1.456-0.059532-0.13701-0.23812-0.68865 0.046302-1.4361 0 0 0.44318-0.1456 1.4552 0.55617 0.42333-0.12073 0.87312-0.18041 1.3229-0.18313 0.44979 0.00272 0.89958 0.062398 1.3229 0.18313 1.0054-0.70176 1.4486-0.55617 1.4486-0.55617 0.28443 0.74743 0.10583 1.2991 0.05292 1.4361 0.33734 0.37982 0.54239 0.86364 0.54239 1.456 0 2.0845-1.2369 2.5434-2.4143 2.6768 0.18521 0.16278 0.35719 0.49557 0.35719 1.0038 0 0.72618-0.00658 1.3095-0.00658 1.4858 0 0.14243 0.092603 0.31199 0.3638 0.25774 2.1171-0.71171 3.6318-2.7465 3.6318-5.1407 0-2.9965-2.3693-5.426-5.2916-5.426" fill="#fff" stroke-width=".44653"/><g fill="#fff" stroke-width=".26458" aria-label="Source On"><path d="m17.941 6.6146c0.6096 0 0.98213-0.35137 0.98213-0.79163 0-0.41063-0.27093-0.60113-0.61383-0.74083l-0.38947-0.16933c-0.23707-0.097367-0.4953-0.19473-0.4953-0.46143 0-0.24977 0.2159-0.4064 0.53763-0.4064 0.28787 0 0.49953 0.1016 0.68157 0.26247l0.18627-0.2286c-0.2032-0.2032-0.508-0.3429-0.85513-0.3429-0.52917 0-0.91017 0.31327-0.91017 0.7366 0 0.4064 0.32173 0.60537 0.60113 0.71543l0.39793 0.17357c0.28363 0.12277 0.49953 0.20743 0.49953 0.50377 0 0.25823-0.22437 0.44027-0.60537 0.44027-0.3175 0-0.60537-0.1397-0.8128-0.34713l-0.21167 0.24553c0.24977 0.24977 0.60113 0.41063 1.0075 0.41063z"/><path d="m20.46 6.6146c0.54187 0 1.016-0.3937 1.016-1.0753 0-0.69003-0.47413-1.0837-1.016-1.0837-0.54187 0-1.016 0.3937-1.016 1.0837 0 0.68157 0.47413 1.0753 1.016 1.0753zm0-0.28787c-0.3937 0-0.65617-0.3175-0.65617-0.7874 0-0.47413 0.26247-0.79587 0.65617-0.79587 0.3937 0 0.65617 0.32173 0.65617 0.79587 0 0.4699-0.26247 0.7874-0.65617 0.7874z"/><path d="m22.771 6.6146c0.3175 0 0.5588-0.16933 0.76623-0.41063h0.01693l0.02963 0.35983h0.28363v-2.0574h-0.34713v1.4266c-0.2286 0.2667-0.40217 0.381-0.63923 0.381-0.3429 0-0.47413-0.18627-0.47413-0.57573v-1.2319h-0.35137v1.2785c0 0.54187 0.22437 0.82973 0.71543 0.82973z"/><path d="m24.888 6.5638h0.34713v-1.2065c0.24553-0.42757 0.53763-0.58843 0.84667-0.58843 0.16087 0 0.23707 0.021167 0.381 0.071967l0.08043-0.30057c-0.127-0.0635-0.254-0.084667-0.4064-0.084667-0.381 0-0.70273 0.20743-0.91863 0.53763h-0.0127l-0.02963-0.48683h-0.28787z"/><path d="m28.274 6.6146c0.3048 0 0.58843-0.11853 0.81703-0.32173l-0.15663-0.22437c-0.16933 0.14393-0.381 0.25823-0.635 0.25823-0.47413 0-0.79163-0.3175-0.79163-0.7874 0-0.47413 0.32597-0.79587 0.8001-0.79587 0.2159 0 0.3937 0.0889 0.56303 0.23707l0.17357-0.22437c-0.16933-0.1651-0.41487-0.30057-0.7493-0.30057-0.6223 0-1.1472 0.3937-1.1472 1.0837 0 0.68157 0.4826 1.0753 1.1261 1.0753z"/><path d="m30.747 6.6146c0.3302 0 0.59267-0.11007 0.79587-0.24553l-0.127-0.2286c-0.18627 0.11853-0.381 0.19473-0.62653 0.19473-0.42757 0-0.75777-0.23707-0.8001-0.70273h1.6214c0.0085-0.055033 0.01693-0.13123 0.01693-0.21167 0-0.57997-0.34713-0.9652-0.9398-0.9652-0.55033 0-1.0499 0.4064-1.0499 1.0753 0 0.6858 0.49107 1.0837 1.1091 1.0837zm-0.0508-1.8838c0.35137 0 0.5842 0.20743 0.61383 0.63077h-1.3123c0.0635-0.4064 0.35983-0.63077 0.6985-0.63077z"/><path d="m35.7 6.6146c0.62653 0 1.0668-0.54187 1.0668-1.452 0-0.89747-0.44027-1.4266-1.0668-1.4266s-1.0668 0.52917-1.0668 1.4266c0 0.91017 0.44027 1.452 1.0668 1.452zm0-0.30903c-0.42333 0-0.70273-0.4318-0.70273-1.143 0-0.6985 0.2794-1.1176 0.70273-1.1176s0.70273 0.4191 0.70273 1.1176c0 0.7112-0.2794 1.143-0.70273 1.143z"/><path d="m37.363 6.5638h0.34713v-1.4351c0.2413-0.24977 0.4064-0.37253 0.65193-0.37253 0.33867 0 0.47413 0.18627 0.47413 0.57573v1.2319h0.34713v-1.2785c0-0.54187-0.22437-0.82973-0.7112-0.82973-0.32173 0-0.5588 0.17357-0.7747 0.40217h-0.01693l-0.02963-0.35137h-0.28787z"/></g><path d="m0 0v1.0583 14.817 0.26458 0.79375h42.333v-0.79375-0.26458-15.081-0.79375h-42.333zm1.0583 1.0583h40.217v14.817h-40.217v-14.817z" fill="#fff" stroke-width=".29891"/><path d="m20.162 11.189h-1.4073a0.066007 0.065331 0 0 0-0.06601 0.06533v0.68205a0.066007 0.065331 0 0 0 0.06601 0.06533h0.54918v0.84799a1.6726 1.6555 0 0 1-0.46337 0.04198c-0.40265 0-0.96502-0.14632-0.96502-1.3693 0-1.223 0.58482-1.385 1.1353-1.385a2.231 2.2082 0 0 1 0.81056 0.12282 0.066007 0.065331 0 0 0 0.07923-0.06533l0.15842-0.65853a0.062046 0.061411 0 0 0-0.02644-0.050959 2.264 2.2408 0 0 0-1.1921-0.21559c-0.9439 0-1.9076 0.3946-1.9076 2.2996 0 1.905 1.105 2.1886 2.0356 2.1886a2.2918 2.2683 0 0 0 1.2383-0.32667 0.056766 0.056184 0 0 0 0.02096-0.04963v-2.1273a0.066007 0.065331 0 0 0-0.06601-0.06533zm7.3202-1.6908a0.066007 0.065331 0 0 0-0.06601-0.06533h-0.7934a0.066007 0.065331 0 0 0-0.06601 0.06533v1.517h-1.2357v-1.517a0.066007 0.065331 0 0 0-0.06601-0.06533h-0.79208a0.066007 0.065331 0 0 0-0.06601 0.06533v4.1093a0.066007 0.065331 0 0 0 0.06601 0.06533h0.79208a0.066007 0.065331 0 0 0 0.06601-0.06533v-1.7574h1.237l-0.0026 1.7574a0.066007 0.065331 0 0 0 0.06601 0.06533h0.79604a0.066007 0.065331 0 0 0 0.06601-0.06533zm-5.7941 0.53832a0.51221 0.50697 0 1 0-0.51089 0.51219 0.51485 0.50958 0 0 0 0.51089-0.51219zm-0.05543 2.7021v-1.8959a0.066007 0.065331 0 0 0-0.06601-0.06533h-0.79208a0.075248 0.074477 0 0 0-0.06731 0.07317v2.7178c0 0.07837 0.05015 0.10321 0.11486 0.10321h0.71287c0.07923 0 0.09769-0.03901 0.09769-0.10454zm8.9294-1.956h-0.78812a0.066007 0.065331 0 0 0-0.06601 0.06533v2.0148a0.88845 0.87935 0 0 1-0.48448 0.14371c-0.28385 0-0.35909-0.12672-0.35909-0.40114v-1.7561a0.066007 0.065331 0 0 0-0.066-0.06533h-0.79736a0.066007 0.065331 0 0 0-0.06601 0.06533v1.8894c0 0.81794 0.45943 1.0178 1.0931 1.0178a1.8456 1.8266 0 0 0 0.9373-0.28356 1.6819 1.6646 0 0 0 0.02894 0.16726 0.068647 0.067944 0 0 0 0.05808 0.03506l0.50826-0.0026a0.066007 0.065331 0 0 0 0.06601-0.06534v-2.7593a0.066007 0.065331 0 0 0-0.06601-0.06533zm2.1941-0.09146a1.4799 1.4647 0 0 0-0.75116 0.19599v-1.3889a0.066007 0.065331 0 0 0-0.06601-0.06533h-0.79472a0.066007 0.065331 0 0 0-0.06601 0.06533v4.1093a0.066007 0.065331 0 0 0 0.06601 0.06533h0.55181a0.066007 0.065331 0 0 0 0.05808-0.03506 1.2845 1.2713 0 0 0 0.03293-0.18815 1.4257 1.4111 0 0 0 0.94126 0.30445c0.72343 0 1.138-0.36322 1.138-1.6307 0-1.2674-0.6627-1.4307-1.1102-1.4307zm-0.31025 2.314a0.94522 0.93553 0 0 1-0.45809-0.13067v-1.3014a1.0469 1.0361 0 0 1 0.40659-0.13067c0.28385-0.02469 0.5571 0.0601 0.5571 0.72909 0 0.70557-0.12409 0.84538-0.50561 0.83493zm-8.5479-2.2291h-0.59406l-0.0026-0.77743c0-0.03008-0.01447-0.04444-0.0489-0.04444h-0.81188c-0.03193 0-0.0474 0.01309-0.0474 0.04311v0.80357l-0.43563 0.10453a0.066007 0.065331 0 0 0-0.0464 0.06272v0.50568a0.066007 0.065331 0 0 0 0.06601 0.06534h0.41582v1.2152c0 0.90417 0.63894 0.99302 1.0719 0.99302a1.8152 1.7966 0 0 0 0.47131-0.07842 0.060726 0.060104 0 0 0 0.03692-0.05748l0.0013-0.55662a0.066007 0.065331 0 0 0-0.06601-0.06533c-0.03443 0-0.12409 0.01284-0.2152 0.01284-0.29174 0-0.39078-0.13329-0.39078-0.30835v-1.1551h0.59538a0.066007 0.065331 0 0 0 0.06601-0.06533v-0.63216a0.066007 0.065331 0 0 0-0.06601-0.06533z" fill="#fff" stroke-width="1.3134"/></svg>
