<?xml version="1.0" encoding="UTF-8"?>
<!-- Created with Inkscape (http://www.inkscape.org/) -->
<svg width="160" height="64" version="1.1" viewBox="0 0 42.333 16.933" xml:space="preserve" xmlns="http://www.w3.org/2000/svg"><rect width="42.333" height="16.933" fill="#1a1a1a" stroke-width=".26458"/><g fill="#fff"><path d="m8.4667 3.175c-2.9236 0-5.2917 2.4295-5.2917 5.426 0 2.3978 1.5161 4.4312 3.6182 5.1479 0.26458 0.0511 0.3616-0.11665 0.3616-0.2609 0-0.12888-0.00442-0.47026-0.00658-0.92242-1.472 0.32737-1.7824-0.72799-1.7824-0.72799-0.24077-0.62625-0.5887-0.79355-0.5887-0.79355-0.47934-0.33641 0.037042-0.32963 0.037042-0.32963 0.53137 0.03798 0.8105 0.55888 0.8105 0.55888 0.47184 0.82972 1.2387 0.59008 1.5412 0.45126 0.047625-0.35088 0.18389-0.59008 0.33514-0.72573-1.1752-0.13564-2.4103-0.60229-2.4103-2.6814 0-0.59234 0.20505-1.0762 0.5446-1.456-0.059532-0.13701-0.23812-0.68865 0.046302-1.4361 0 0 0.44318-0.1456 1.4552 0.55617 0.42333-0.12073 0.87312-0.18041 1.3229-0.18313 0.44979 0.00272 0.89958 0.062398 1.3229 0.18313 1.0054-0.70176 1.4486-0.55617 1.4486-0.55617 0.28443 0.74743 0.10583 1.2991 0.05292 1.4361 0.33734 0.37982 0.54239 0.86364 0.54239 1.456 0 2.0845-1.2369 2.5434-2.4143 2.6768 0.18521 0.16278 0.35719 0.49557 0.35719 1.0038 0 0.72618-0.00658 1.3095-0.00658 1.4858 0 0.14243 0.092603 0.31199 0.3638 0.25774 2.1171-0.71171 3.6318-2.7465 3.6318-5.1407 0-2.9965-2.3693-5.426-5.2916-5.426" stroke-width=".44653"/><path d="m0 0v1.0583 14.817 0.26458 0.79375h42.333v-0.79375-0.26458-15.081-0.79375h-42.333zm1.0583 1.0583h40.217v14.817h-40.217v-14.817z" stroke-width=".29891"/><path d="m20.162 11.015h-1.4073a0.066007 0.065331 0 0 0-0.06601 0.06533v0.68205a0.066007 0.065331 0 0 0 0.06601 0.06533h0.54918v0.84799a1.6726 1.6555 0 0 1-0.46337 0.04198c-0.40265 0-0.96502-0.14632-0.96502-1.3693 0-1.223 0.58482-1.385 1.1353-1.385a2.231 2.2082 0 0 1 0.81056 0.12282 0.066007 0.065331 0 0 0 0.07923-0.06533l0.15842-0.65853a0.062046 0.061411 0 0 0-0.02644-0.050959 2.264 2.2408 0 0 0-1.1921-0.21559c-0.9439 0-1.9076 0.3946-1.9076 2.2996 0 1.905 1.105 2.1886 2.0356 2.1886a2.2918 2.2683 0 0 0 1.2383-0.32667 0.056766 0.056184 0 0 0 0.02096-0.04963v-2.1273a0.066007 0.065331 0 0 0-0.06601-0.06533zm7.3202-1.6908a0.066007 0.065331 0 0 0-0.06601-0.06533h-0.7934a0.066007 0.065331 0 0 0-0.06601 0.06533v1.517h-1.2357v-1.517a0.066007 0.065331 0 0 0-0.06601-0.06533h-0.79208a0.066007 0.065331 0 0 0-0.06601 0.06533v4.1093a0.066007 0.065331 0 0 0 0.06601 0.06533h0.79208a0.066007 0.065331 0 0 0 0.06601-0.06533v-1.7574h1.237l-0.0026 1.7574a0.066007 0.065331 0 0 0 0.06601 0.06533h0.79604a0.066007 0.065331 0 0 0 0.06601-0.06533zm-5.7941 0.53832a0.51221 0.50697 0 1 0-0.51089 0.51219 0.51485 0.50958 0 0 0 0.51089-0.51219zm-0.05543 2.7021v-1.8959a0.066007 0.065331 0 0 0-0.06601-0.06533h-0.79208a0.075248 0.074477 0 0 0-0.06731 0.07317v2.7178c0 0.07837 0.05015 0.10321 0.11486 0.10321h0.71287c0.07923 0 0.09769-0.03901 0.09769-0.10454zm8.9294-1.956h-0.78812a0.066007 0.065331 0 0 0-0.06601 0.06533v2.0148a0.88845 0.87935 0 0 1-0.48448 0.14371c-0.28385 0-0.35909-0.12672-0.35909-0.40114v-1.7561a0.066007 0.065331 0 0 0-0.066-0.06533h-0.79736a0.066007 0.065331 0 0 0-0.06601 0.06533v1.8894c0 0.81794 0.45943 1.0178 1.0931 1.0178a1.8456 1.8266 0 0 0 0.9373-0.28356 1.6819 1.6646 0 0 0 0.02894 0.16726 0.068647 0.067944 0 0 0 0.05808 0.03506l0.50826-0.0026a0.066007 0.065331 0 0 0 0.06601-0.06534v-2.7593a0.066007 0.065331 0 0 0-0.06601-0.06533zm2.1941-0.09146a1.4799 1.4647 0 0 0-0.75116 0.19599v-1.3889a0.066007 0.065331 0 0 0-0.06601-0.06533h-0.79472a0.066007 0.065331 0 0 0-0.06601 0.06533v4.1093a0.066007 0.065331 0 0 0 0.06601 0.06533h0.55181a0.066007 0.065331 0 0 0 0.05808-0.03506 1.2845 1.2713 0 0 0 0.03293-0.18815 1.4257 1.4111 0 0 0 0.94126 0.30445c0.72343 0 1.138-0.36322 1.138-1.6307 0-1.2674-0.6627-1.4307-1.1102-1.4307zm-0.31025 2.314a0.94522 0.93553 0 0 1-0.45809-0.13067v-1.3014a1.0469 1.0361 0 0 1 0.40659-0.13067c0.28385-0.02469 0.5571 0.0601 0.5571 0.72909 0 0.70557-0.12409 0.84538-0.50561 0.83493zm-8.5479-2.2291h-0.59406l-0.0026-0.77743c0-0.03008-0.01447-0.04444-0.0489-0.04444h-0.81188c-0.03193 0-0.0474 0.01309-0.0474 0.04311v0.80357l-0.43563 0.10453a0.066007 0.065331 0 0 0-0.0464 0.06272v0.50568a0.066007 0.065331 0 0 0 0.06601 0.06534h0.41582v1.2152c0 0.90417 0.63894 0.99302 1.0719 0.99302a1.8152 1.7966 0 0 0 0.47131-0.07842 0.060726 0.060104 0 0 0 0.03692-0.05748l0.0013-0.55662a0.066007 0.065331 0 0 0-0.06601-0.06533c-0.03443 0-0.12409 0.01284-0.2152 0.01284-0.29174 0-0.39078-0.13329-0.39078-0.30835v-1.1551h0.59538a0.066007 0.065331 0 0 0 0.06601-0.06533v-0.63216a0.066007 0.065331 0 0 0-0.06601-0.06533z" stroke-width="1.3134"/></g><g fill="#fff" stroke-width=".26458" aria-label="Source on"><path d="m18.738 4.3819v0.42375q-0.19017-0.12196-0.38241-0.18397-0.19017-0.062012-0.38447-0.062012-0.29559 0-0.46716 0.13849-0.17156 0.13643-0.17156 0.37 0 0.20464 0.11162 0.31213 0.11369 0.10749 0.42168 0.17983l0.21911 0.049609q0.43408 0.10129 0.63252 0.31833 0.19844 0.21704 0.19844 0.59118 0 0.44028-0.27285 0.67179t-0.79375 0.23151q-0.21704 0-0.43615-0.047542-0.21911-0.045475-0.44028-0.13849v-0.44442q0.23771 0.1509 0.44855 0.22117 0.21291 0.07028 0.42788 0.07028 0.31626 0 0.49196-0.14056 0.1757-0.14263 0.1757-0.39687 0-0.23151-0.12196-0.35347-0.11989-0.12196-0.41961-0.1881l-0.22324-0.051676q-0.42995-0.097152-0.62425-0.29352-0.1943-0.19637-0.1943-0.5271 0-0.41341 0.27699-0.66146 0.27905-0.25011 0.74-0.25011 0.17777 0 0.37414 0.041341 0.19637 0.039274 0.41341 0.11989z"/><path d="m20.468 5.3142q-0.28939 0-0.43822 0.22531-0.14883 0.22531-0.14883 0.66766 0 0.44028 0.14883 0.66766 0.14883 0.22531 0.43822 0.22531 0.29146 0 0.44028-0.22531 0.14883-0.22738 0.14883-0.66766 0-0.44235-0.14883-0.66766-0.14883-0.22531-0.44028-0.22531zm0-0.32246q0.48162 0 0.73587 0.31213 0.25632 0.31213 0.25632 0.9033 0 0.59324-0.25425 0.90537-0.25425 0.31006-0.73794 0.31006-0.48162 0-0.73587-0.31006-0.25425-0.31213-0.25425-0.90537 0-0.59118 0.25425-0.9033 0.25425-0.31213 0.73587-0.31213z"/><path d="m22.146 6.4862v-1.4345h0.38034v1.4345q0 0.31213 0.10955 0.45889 0.11162 0.14676 0.34313 0.14676 0.26872 0 0.41134-0.1881 0.14263-0.19017 0.14263-0.54364v-1.3084h0.3824v2.311h-0.3824v-0.34727q-0.10129 0.2005-0.27699 0.30386-0.17363 0.10335-0.40721 0.10335-0.35553 0-0.52917-0.23151-0.17363-0.23358-0.17363-0.70487z"/><path d="m26.68 5.525q-0.12196-0.095084-0.24805-0.13849-0.12609-0.043408-0.27699-0.043408-0.35553 0-0.54364 0.22324t-0.1881 0.64492v1.1513h-0.38241v-2.3151h0.38241v0.45269q0.09508-0.24598 0.29146-0.3762 0.19844-0.13229 0.46922-0.13229 0.14056 0 0.26252 0.03514 0.12196 0.03514 0.23358 0.10955z"/><path d="m29.034 7.2448q-0.15296 0.088883-0.31626 0.13229-0.16123 0.045475-0.33073 0.045475-0.53743 0-0.84129-0.32246-0.30179-0.32246-0.30179-0.89297 0-0.57051 0.30179-0.89297 0.30386-0.32246 0.84129-0.32246 0.16743 0 0.3266 0.043408t0.32039 0.13436v0.39894q-0.1509-0.13436-0.30386-0.1943-0.1509-0.059945-0.34313-0.059945-0.3576 0-0.54984 0.23151-0.19224 0.23151-0.19224 0.66146 0 0.42788 0.19224 0.66146 0.1943 0.23151 0.54984 0.23151 0.19844 0 0.35553-0.059945 0.1571-0.062012 0.29146-0.19017z"/><path d="m31.705 6.0149v0.18604h-1.6474v0.012402q-0.01654 0.47336 0.17983 0.68006 0.19844 0.20671 0.5581 0.20671 0.1819 0 0.38034-0.057878t0.42375-0.1757v0.37827q-0.21704 0.088883-0.41961 0.13229-0.2005 0.045475-0.38861 0.045475-0.5395 0-0.84336-0.32246-0.30386-0.32453-0.30386-0.89297 0-0.55397 0.29766-0.8847t0.79375-0.33073q0.44235 0 0.6966 0.29972 0.25632 0.29972 0.27285 0.72347zm-0.38034-0.11162q-0.0248-0.23978-0.1757-0.41341-0.14883-0.1757-0.42995-0.1757-0.27492 0-0.45268 0.1819-0.17777 0.1819-0.1943 0.40928z"/><path d="m35.76 5.3142q-0.28939 0-0.43822 0.22531-0.14883 0.22531-0.14883 0.66766 0 0.44028 0.14883 0.66766 0.14883 0.22531 0.43822 0.22531 0.29146 0 0.44028-0.22531 0.14883-0.22738 0.14883-0.66766 0-0.44235-0.14883-0.66766-0.14883-0.22531-0.44028-0.22531zm0-0.32246q0.48162 0 0.73587 0.31213 0.25632 0.31213 0.25632 0.9033 0 0.59324-0.25425 0.90537-0.25425 0.31006-0.73794 0.31006-0.48162 0-0.73587-0.31006-0.25425-0.31213-0.25425-0.90537 0-0.59118 0.25425-0.9033t0.73587-0.31213z"/><path d="m39.208 5.9281v1.4345h-0.3824v-1.4345q0-0.31213-0.10955-0.45889-0.10955-0.14676-0.34313-0.14676-0.26665 0-0.41134 0.19017-0.14263 0.1881-0.14263 0.54157v1.3084h-0.38034v-2.3151h0.38034v0.34727q0.10129-0.19844 0.27492-0.29972 0.17363-0.10335 0.41134-0.10335 0.35347 0 0.5271 0.23358 0.1757 0.23151 0.1757 0.7028z"/></g></svg>
