<?xml version="1.0" encoding="UTF-8" standalone="no"?>
<!-- Created with Inkscape (http://www.inkscape.org/) -->

<svg
   width="160"
   height="64"
   viewBox="0 0 42.333333 16.933333"
   version="1.1"
   id="svg5"
   xml:space="preserve"
   inkscape:version="1.2.2 (732a01da63, 2022-12-09)"
   sodipodi:docname="source_on_github.svg"
   xmlns:inkscape="http://www.inkscape.org/namespaces/inkscape"
   xmlns:sodipodi="http://sodipodi.sourceforge.net/DTD/sodipodi-0.dtd"
   xmlns="http://www.w3.org/2000/svg"
   xmlns:svg="http://www.w3.org/2000/svg"><sodipodi:namedview
     id="namedview7"
     pagecolor="#ffffff"
     bordercolor="#666666"
     borderopacity="1.0"
     inkscape:showpageshadow="2"
     inkscape:pageopacity="0.0"
     inkscape:pagecheckerboard="0"
     inkscape:deskcolor="#d1d1d1"
     inkscape:document-units="px"
     showgrid="false"
     inkscape:zoom="6.0546018"
     inkscape:cx="77.792069"
     inkscape:cy="13.708581"
     inkscape:window-width="1920"
     inkscape:window-height="1009"
     inkscape:window-x="-8"
     inkscape:window-y="-8"
     inkscape:window-maximized="1"
     inkscape:current-layer="layer1"
     showguides="true"><inkscape:grid
       type="xygrid"
       id="grid232" /><sodipodi:guide
       position="16.933333,10.318752"
       orientation="1,0"
       id="guide322"
       inkscape:locked="false" /><sodipodi:guide
       position="8.4666665,8.4666668"
       orientation="0,-1"
       id="guide326"
       inkscape:locked="false" /><sodipodi:guide
       position="8.4666837,13.758318"
       orientation="0,-1"
       id="guide536"
       inkscape:locked="false" /><sodipodi:guide
       position="8.4666665,3.1750157"
       orientation="0,-1"
       id="guide538"
       inkscape:locked="false" /><sodipodi:guide
       position="8.9942597,5.8213655"
       orientation="0,-1"
       id="guide605"
       inkscape:locked="false" /><sodipodi:guide
       position="8.993518,11.111721"
       orientation="0,-1"
       id="guide611"
       inkscape:locked="false" /></sodipodi:namedview><defs
     id="defs2"><clipPath
       clipPathUnits="userSpaceOnUse"
       id="clipPath700"><g
         id="g704"
         transform="translate(-177.2812,-151.0127)"><path
           d="M 0,576 H 576 V 0 H 0 Z"
           id="path702" /></g></clipPath><clipPath
       clipPathUnits="userSpaceOnUse"
       id="clipPath694"><g
         id="g698"
         transform="translate(-333.2646,-187.751)"><path
           d="M 0,576 H 576 V 0 H 0 Z"
           id="path696" /></g></clipPath><clipPath
       clipPathUnits="userSpaceOnUse"
       id="clipPath688"><g
         id="g692"
         transform="translate(-209.4404,-176.0498)"><path
           d="M 0,576 H 576 V 0 H 0 Z"
           id="path690" /></g></clipPath><clipPath
       clipPathUnits="userSpaceOnUse"
       id="clipPath682"><g
         id="g686"
         transform="translate(-208.2217,-117.3857)"><path
           d="M 0,576 H 576 V 0 H 0 Z"
           id="path684" /></g></clipPath><clipPath
       clipPathUnits="userSpaceOnUse"
       id="clipPath676"><g
         id="g680"
         transform="translate(-398.0322,-159.8369)"><path
           d="M 0,576 H 576 V 0 H 0 Z"
           id="path678" /></g></clipPath><clipPath
       clipPathUnits="userSpaceOnUse"
       id="clipPath670"><g
         id="g674"
         transform="translate(-437.584,-111.5947)"><path
           d="M 0,576 H 576 V 0 H 0 Z"
           id="path672" /></g></clipPath><clipPath
       clipPathUnits="userSpaceOnUse"
       id="clipPath664"><g
         id="g668"
         transform="translate(-257.2017,-159.9785)"><path
           d="M 0,576 H 576 V 0 H 0 Z"
           id="path666" /></g></clipPath></defs><g
     inkscape:label="Layer 1"
     inkscape:groupmode="layer"
     id="layer1"><rect
       style="fill:#1a1a1a;stroke-width:0.264583"
       id="rect111"
       width="42.333332"
       height="16.933332"
       x="0"
       y="0" /><path
       d="M 8.4666511,3.1750151 C 5.5430136,3.1750151 3.175,5.6045087 3.175,8.6010192 c 0,2.3978418 1.5160579,4.4312358 3.6181661,5.1479208 0.2645822,0.0511 0.3615966,-0.11665 0.3615966,-0.2609 0,-0.128883 -0.00442,-0.470255 -0.00658,-0.922422 -1.471996,0.327369 -1.7824394,-0.727987 -1.7824394,-0.727987 -0.24077,-0.626252 -0.5886962,-0.793553 -0.5886962,-0.793553 -0.4793353,-0.336412 0.037042,-0.32963 0.037042,-0.32963 0.5313699,0.03798 0.8105046,0.558878 0.8105046,0.558878 0.4718389,0.829725 1.2386868,0.590078 1.5411928,0.451262 0.047625,-0.350881 0.1838852,-0.590077 0.3351381,-0.725727 C 6.3257367,10.86322 5.0905774,10.396575 5.0905774,8.3175109 c 0,-0.592339 0.2050514,-1.0761583 0.544599,-1.455978 -0.059532,-0.1370064 -0.2381242,-0.6886503 0.046302,-1.4360823 0,0 0.4431758,-0.1455979 1.4552041,0.5561653 0.4233314,-0.1207297 0.8731217,-0.1804147 1.3229119,-0.1831276 0.4497903,0.00272 0.8995806,0.062398 1.3229128,0.1831276 1.0054148,-0.7017634 1.4485888,-0.5561653 1.4485888,-0.5561653 0.284426,0.747432 0.105834,1.2990759 0.05292,1.4360823 0.337342,0.3798197 0.542393,0.863639 0.542393,1.455978 0,2.0844911 -1.236923,2.5434391 -2.4143145,2.6768291 0.1852077,0.162783 0.3571866,0.495573 0.3571866,1.00381 0,0.726179 -0.00658,1.309474 -0.00658,1.48582 0,0.142433 0.092603,0.311994 0.3638009,0.257735 2.117096,-0.71171 3.631831,-2.746462 3.631831,-5.1406858 0,-2.9965105 -2.369334,-5.4260041 -5.2916494,-5.4260041"
       id="path115"
       style="fill:#ffffff;stroke-width:0.446534" /><path
       id="rect1058"
       style="fill:#ffffff;stroke-width:0.298912"
       d="M 0 0 L 0 1.0583333 L 0 15.875 L 0 16.139583 L 0 16.933333 L 42.333333 16.933333 L 42.333333 16.139583 L 42.333333 15.875 L 42.333333 0.79374999 L 42.333333 0 L 0 0 z M 1.0583333 1.0583333 L 41.274999 1.0583333 L 41.274999 15.875 L 1.0583333 15.875 L 1.0583333 1.0583333 z " /><path
       id="path3882"
       style="fill:#ffffff;stroke-width:1.31336"
       d="m 20.162412,11.015395 h -1.407267 a 0.06600688,0.06533063 0 0 0 -0.06601,0.06533 v 0.68205 a 0.06600688,0.06533063 0 0 0 0.06601,0.06533 h 0.549179 v 0.847989 a 1.6726138,1.6554778 0 0 1 -0.463374,0.04198 c -0.402653,0 -0.965024,-0.146324 -0.965024,-1.369328 0,-1.222991 0.584824,-1.3850114 1.13532,-1.3850114 a 2.2310319,2.2081748 0 0 1 0.810564,0.1228224 0.06600688,0.06533063 0 0 0 0.07923,-0.06533 L 20.059456,9.362694 A 0.06204647,0.06141079 0 0 0 20.033016,9.311735 2.2640353,2.2408401 0 0 0 18.840931,9.0961452 c -0.943898,0 -1.907599,0.3945962 -1.907599,2.2996388 0,1.905038 1.104954,2.188575 2.035649,2.188575 a 2.2917582,2.2682789 0 0 0 1.238293,-0.326673 0.05676588,0.05618431 0 0 0 0.02096,-0.04963 v -2.127335 a 0.06600688,0.06533063 0 0 0 -0.06601,-0.06533 z M 27.48257,9.324637 a 0.06600688,0.06533063 0 0 0 -0.06601,-0.06533 h -0.793399 a 0.06600688,0.06533063 0 0 0 -0.06601,0.06533 v 1.516977 H 25.3215 V 9.324637 a 0.06600688,0.06533063 0 0 0 -0.06601,-0.06533 h -0.792082 a 0.06600688,0.06533063 0 0 0 -0.06601,0.06533 v 4.109298 a 0.06600688,0.06533063 0 0 0 0.06601,0.06533 h 0.792082 a 0.06600688,0.06533063 0 0 0 0.06601,-0.06533 V 11.67654 h 1.236971 l -0.0026,1.757395 a 0.06600688,0.06533063 0 0 0 0.06601,0.06533 h 0.796044 a 0.06600688,0.06533063 0 0 0 0.06601,-0.06533 z m -5.794081,0.5383246 a 0.51221322,0.50696555 0 1 0 -0.510894,0.5121924 0.51485351,0.50957879 0 0 0 0.510894,-0.5121924 z m -0.05543,2.7020764 v -1.895897 a 0.06600688,0.06533063 0 0 0 -0.06601,-0.06533 h -0.792082 a 0.07524782,0.0744769 0 0 0 -0.06731,0.07317 v 2.717755 c 0,0.07837 0.05015,0.103212 0.114859,0.103212 h 0.712874 c 0.07923,0 0.09769,-0.03901 0.09769,-0.104545 z m 8.929395,-1.956001 h -0.788121 a 0.06600688,0.06533063 0 0 0 -0.06601,0.06533 v 2.014797 a 0.88845233,0.87935006 0 0 1 -0.48448,0.143707 c -0.283852,0 -0.359094,-0.126719 -0.359094,-0.401145 v -1.756052 a 0.06600688,0.06533063 0 0 0 -0.066,-0.06533 h -0.797361 a 0.06600688,0.06533063 0 0 0 -0.06601,0.06533 v 1.889364 c 0,0.817938 0.459433,1.017849 1.093074,1.017849 a 1.8455518,1.826644 0 0 0 0.937301,-0.283562 1.6818548,1.664624 0 0 0 0.02894,0.167263 0.06864712,0.06794382 0 0 0 0.05808,0.03506 l 0.508255,-0.0026 a 0.06600688,0.06533063 0 0 0 0.06601,-0.06534 v -2.759335 a 0.06600688,0.06533063 0 0 0 -0.06601,-0.06533 z m 2.19407,-0.09146 a 1.4798738,1.4647123 0 0 0 -0.751158,0.195994 V 9.324637 a 0.06600688,0.06533063 0 0 0 -0.06601,-0.06533 h -0.794722 a 0.06600688,0.06533063 0 0 0 -0.06601,0.06533 v 4.109298 a 0.06600688,0.06533063 0 0 0 0.06601,0.06533 h 0.551813 a 0.06600688,0.06533063 0 0 0 0.05808,-0.03506 1.2844935,1.2713337 0 0 0 0.03293,-0.188153 1.4257482,1.4111413 0 0 0 0.941258,0.304451 c 0.723432,0 1.137954,-0.363217 1.137954,-1.630652 0,-1.267414 -0.662705,-1.430741 -1.110232,-1.430741 z m -0.310246,2.314013 a 0.94521821,0.93553437 0 0 1 -0.458086,-0.13067 v -1.301386 a 1.0468688,1.0361435 0 0 1 0.406594,-0.130669 c 0.283852,-0.02469 0.557097,0.0601 0.557097,0.729087 0,0.705571 -0.124089,0.845381 -0.50561,0.834927 z m -8.547876,-2.229083 h -0.594065 l -0.0026,-0.7774346 c 0,-0.03008 -0.01447,-0.04444 -0.0489,-0.04444 h -0.811881 c -0.03193,0 -0.0474,0.01309 -0.0474,0.04311 v 0.8035666 l -0.435633,0.104531 a 0.06600688,0.06533063 0 0 0 -0.0464,0.06272 v 0.505684 a 0.06600688,0.06533063 0 0 0 0.06601,0.06534 h 0.415824 v 1.215152 c 0,0.904172 0.638945,0.993024 1.071948,0.993024 a 1.8151887,1.7965919 0 0 0 0.471308,-0.07842 0.0607263,0.06010415 0 0 0 0.03692,-0.05748 l 0.0013,-0.556615 a 0.06600688,0.06533063 0 0 0 -0.06601,-0.06533 c -0.03443,0 -0.124089,0.01284 -0.215197,0.01284 -0.291736,0 -0.390778,-0.133287 -0.390778,-0.308352 v -1.15507 h 0.595382 a 0.06600688,0.06533063 0 0 0 0.06601,-0.06533 V 10.66784 a 0.06600688,0.06533063 0 0 0 -0.06601,-0.06533 z" /><g
       aria-label="Source on"
       id="text382"
       style="font-size:4.23333px;font-family:'MesloLGS NF';-inkscape-font-specification:'MesloLGS NF';fill:#00877e;stroke-width:0.264583"><path
         d="m 18.737872,4.3819081 v 0.4237464 q -0.19017,-0.1219563 -0.382406,-0.1839679 -0.190169,-0.062012 -0.384472,-0.062012 -0.295589,0 -0.467155,0.1384927 -0.171565,0.1364257 -0.171565,0.370003 0,0.2046385 0.111621,0.3121254 0.113688,0.1074868 0.421679,0.1798338 l 0.219108,0.049609 q 0.434082,0.1012857 0.632519,0.3183266 0.198437,0.2170408 0.198437,0.5911779 0,0.4402828 -0.272851,0.671793 -0.272851,0.2315102 -0.793749,0.2315102 -0.217041,0 -0.436149,-0.047542 -0.219108,-0.045475 -0.440283,-0.1384928 V 6.7920949 q 0.237712,0.1508951 0.448551,0.2211749 0.212907,0.07028 0.427881,0.07028 0.316259,0 0.491959,-0.1405597 0.1757,-0.1426269 0.1757,-0.3968747 0,-0.2315102 -0.121957,-0.3534665 Q 18.274851,6.0706925 17.975128,6.0045467 L 17.751886,5.9528703 Q 17.321939,5.8557187 17.127635,5.6593485 16.933332,5.4629782 16.933332,5.1322493 q 0,-0.4134111 0.276986,-0.6614578 0.279052,-0.2501137 0.740005,-0.2501137 0.177767,0 0.374137,0.041341 0.196371,0.039274 0.413412,0.1198892 z"
         style="fill:#ffffff"
         id="path630" /><path
         d="m 20.467997,5.3141502 q -0.289388,0 -0.438216,0.225309 -0.148828,0.2253091 -0.148828,0.667659 0,0.4402828 0.148828,0.6676589 0.148828,0.2253091 0.438216,0.2253091 0.291455,0 0.440283,-0.2253091 0.148828,-0.2273761 0.148828,-0.6676589 0,-0.4423499 -0.148828,-0.667659 -0.148828,-0.225309 -0.440283,-0.225309 z m 0,-0.3224607 q 0.481624,0 0.735872,0.3121254 0.256315,0.3121254 0.256315,0.9033033 0,0.5932449 -0.254248,0.9053703 -0.254248,0.3100583 -0.737939,0.3100583 -0.481624,0 -0.735872,-0.3100583 -0.254247,-0.3121254 -0.254247,-0.9053703 0,-0.5911779 0.254247,-0.9033033 0.254248,-0.3121254 0.735872,-0.3121254 z"
         style="fill:#ffffff"
         id="path632" /><path
         d="M 22.146446,6.4861707 V 5.0516341 h 0.380339 v 1.4345366 q 0,0.3121254 0.109554,0.4588863 0.111621,0.146761 0.343131,0.146761 0.268717,0 0.411344,-0.1881021 0.142627,-0.1901691 0.142627,-0.5436356 V 5.0516341 h 0.382405 V 7.3626022 H 23.533441 V 7.0153369 q -0.101286,0.2005044 -0.276986,0.3038572 -0.173632,0.1033527 -0.40721,0.1033527 -0.355533,0 -0.529166,-0.2315102 -0.173633,-0.2335773 -0.173633,-0.7048659 z"
         style="fill:#ffffff"
         id="path634" /><path
         d="M 26.6795,5.5249898 Q 26.557543,5.4299053 26.431453,5.3864971 26.305362,5.343089 26.154467,5.343089 q -0.355533,0 -0.543635,0.223242 Q 25.42273,5.789573 25.42273,6.2112523 V 7.3626022 H 25.040324 V 5.0475 h 0.382406 v 0.4526852 q 0.09508,-0.2459796 0.291455,-0.3762041 0.198437,-0.1322916 0.469221,-0.1322916 0.14056,0 0.262516,0.03514 0.121957,0.03514 0.233578,0.1095539 z"
         style="fill:#ffffff"
         id="path636" /><path
         d="m 29.033876,7.2447801 q -0.152962,0.088883 -0.31626,0.1322915 -0.16123,0.045475 -0.330729,0.045475 -0.537434,0 -0.841291,-0.3224606 -0.30179,-0.3224607 -0.30179,-0.892968 0,-0.5705074 0.30179,-0.892968 0.303857,-0.3224607 0.841291,-0.3224607 0.167432,0 0.326595,0.043408 0.159163,0.043408 0.320394,0.1343586 V 5.568398 q -0.150895,-0.1343586 -0.303858,-0.1943032 -0.150895,-0.059945 -0.343131,-0.059945 -0.3576,0 -0.549837,0.2315102 -0.192236,0.2315102 -0.192236,0.6614578 0,0.4278805 0.192236,0.6614578 0.194304,0.2315102 0.549837,0.2315102 0.198438,0 0.355534,-0.059945 0.157096,-0.062012 0.291455,-0.1901691 z"
         style="fill:#ffffff"
         id="path638" /><path
         d="m 31.704511,6.014882 v 0.186035 h -1.647443 v 0.012402 q -0.01654,0.4733558 0.179834,0.6800613 0.198437,0.2067056 0.558105,0.2067056 0.181901,0 0.380338,-0.057878 0.198437,-0.057878 0.423746,-0.1756997 v 0.3782712 q -0.21704,0.088883 -0.419612,0.1322915 -0.200504,0.045475 -0.388606,0.045475 -0.539502,0 -0.843359,-0.3224606 -0.303857,-0.3245277 -0.303857,-0.892968 0,-0.5539709 0.297656,-0.8846998 0.297656,-0.3307289 0.793749,-0.3307289 0.44235,0 0.696598,0.2997231 0.256315,0.299723 0.272851,0.7234694 z M 31.324173,5.903261 q -0.0248,-0.2397784 -0.1757,-0.4134111 -0.148828,-0.1756997 -0.429947,-0.1756997 -0.274919,0 -0.452685,0.1819009 -0.177767,0.1819009 -0.194304,0.409277 z"
         style="fill:#ffffff"
         id="path640" /><path
         d="m 35.760075,5.3141502 q -0.289388,0 -0.438216,0.225309 -0.148828,0.2253091 -0.148828,0.667659 0,0.4402828 0.148828,0.6676589 0.148828,0.2253091 0.438216,0.2253091 0.291455,0 0.440283,-0.2253091 0.148828,-0.2273761 0.148828,-0.6676589 0,-0.4423499 -0.148828,-0.667659 -0.148828,-0.225309 -0.440283,-0.225309 z m 0,-0.3224607 q 0.481624,0 0.735872,0.3121254 0.256315,0.3121254 0.256315,0.9033033 0,0.5932449 -0.254248,0.9053703 -0.254248,0.3100583 -0.737939,0.3100583 -0.481624,0 -0.735872,-0.3100583 -0.254248,-0.3121254 -0.254248,-0.9053703 0,-0.5911779 0.254248,-0.9033033 0.254248,-0.3121254 0.735872,-0.3121254 z"
         style="fill:#ffffff"
         id="path642" /><path
         d="M 39.207923,5.9280657 V 7.3626022 H 38.825518 V 5.9280657 q 0,-0.3121254 -0.109554,-0.4588864 -0.109554,-0.1467609 -0.343131,-0.1467609 -0.26665,0 -0.411344,0.1901691 -0.142627,0.1881021 -0.142627,0.5415686 V 7.3626022 H 37.438524 V 5.0475 h 0.380338 v 0.3472653 q 0.101286,-0.1984373 0.274919,-0.299723 0.173632,-0.1033528 0.411344,-0.1033528 0.353466,0 0.527099,0.2335773 0.175699,0.2315102 0.175699,0.7027989 z"
         style="fill:#ffffff"
         id="path644" /></g></g></svg>
