<?xml version="1.0" encoding="UTF-8" standalone="no"?>
<!-- Created with Inkscape (http://www.inkscape.org/) -->

<svg
   width="160"
   height="64"
   viewBox="0 0 42.333332 16.933333"
   version="1.1"
   id="svg1002"
   xml:space="preserve"
   inkscape:version="1.2.1 (9c6d41e410, 2022-07-14)"
   sodipodi:docname="work_without_javascript.svg"
   xmlns:inkscape="http://www.inkscape.org/namespaces/inkscape"
   xmlns:sodipodi="http://sodipodi.sourceforge.net/DTD/sodipodi-0.dtd"
   xmlns="http://www.w3.org/2000/svg"
   xmlns:svg="http://www.w3.org/2000/svg"><sodipodi:namedview
     id="namedview1004"
     pagecolor="#ffffff"
     bordercolor="#666666"
     borderopacity="1.0"
     inkscape:showpageshadow="2"
     inkscape:pageopacity="0.0"
     inkscape:pagecheckerboard="0"
     inkscape:deskcolor="#d1d1d1"
     inkscape:document-units="mm"
     showgrid="false"
     showguides="true"
     inkscape:zoom="4"
     inkscape:cx="18.75"
     inkscape:cy="54.5"
     inkscape:window-width="1366"
     inkscape:window-height="699"
     inkscape:window-x="0"
     inkscape:window-y="0"
     inkscape:window-maximized="1"
     inkscape:current-layer="layer1"><sodipodi:guide
       position="13.758333,13.758333"
       orientation="0.7071068,-0.70710676"
       id="guide3211"
       inkscape:locked="false" /></sodipodi:namedview><defs
     id="defs999" /><g
     inkscape:label="Layer 1"
     inkscape:groupmode="layer"
     id="layer1"><rect
       style="fill:#f7df1e;fill-opacity:1;stroke-width:0.264583"
       id="rect1210"
       width="42.333332"
       height="16.933332"
       x="0"
       y="-0.026458334" /><path
       id="path3032"
       style="stroke-width:0.440971"
       d="M 3.175 3.148645 L 3.175 12.262301 L 12.288139 3.148645 L 3.175 3.148645 z M 13.758333 3.1755168 L 8.9209025 8.0129476 L 8.9302043 8.0129476 L 8.9281372 8.0377523 C 8.9281372 8.9505634 8.9334372 9.8563772 8.9281372 10.762134 C 8.9303422 11.324812 8.9783664 11.827908 8.7534709 12.238013 C 8.5978077 12.555512 8.2998342 12.760527 7.9545532 12.860197 C 7.4240643 12.979259 6.9177168 12.906293 6.540686 12.681396 C 6.2875683 12.529262 6.0912389 12.290516 5.9567424 12.012703 L 6.7613444 11.51661 C 6.7688404 11.51661 6.7898897 11.556609 6.8176717 11.602909 C 6.9204181 11.774446 7.0089182 11.893717 7.1835409 11.980147 C 7.353756 12.033505 7.7284181 12.072104 7.873938 11.768274 C 7.9625749 11.614816 7.9349162 11.116276 7.9349162 10.572998 C 7.9349162 10.045862 7.9363432 9.5212496 7.9375 8.9963501 L 3.2018717 13.731978 L 13.758333 13.731978 L 13.758333 3.1755168 z M 11.228772 7.9364665 C 11.766408 7.943782 12.107788 8.101315 12.368237 8.3927694 C 12.448494 8.4717033 12.507557 8.5517266 12.626619 8.7369344 C 12.308679 8.9349312 12.308985 8.9349305 11.853023 9.2330282 C 11.753364 9.0213604 11.594537 8.8890731 11.422559 8.8361532 C 11.157975 8.7567782 10.820522 8.8422238 10.754382 9.1270915 C 10.728362 9.2130804 10.734406 9.2926627 10.774536 9.4381836 C 10.881693 9.6829233 11.242698 9.7888604 11.567253 9.9409953 C 12.499909 10.319348 12.814033 10.724721 12.891203 11.207585 L 12.871049 11.178129 C 12.944253 11.594848 12.851273 11.866053 12.838493 11.905733 C 12.494094 13.083129 10.575995 13.122946 9.8087036 12.3486 C 9.6499538 12.163392 9.5437056 12.071408 9.4511027 11.859741 L 10.258289 11.396204 C 10.476569 11.726932 10.674774 11.905935 11.032402 11.985315 C 11.515707 12.044846 12.004848 11.879583 11.899015 11.363647 C 11.786567 10.939873 10.906724 10.840889 10.304797 10.391097 C 9.6962562 9.9809921 9.5509418 8.9889355 10.05365 8.4196411 C 10.225629 8.2079743 10.509512 8.0490173 10.807609 7.9762573 L 11.118701 7.9369832 C 11.156322 7.9361289 11.19293 7.9359788 11.228772 7.9364665 z " /><path
       id="rect3041"
       style="fill:#ffffff;fill-opacity:1;stroke-width:0.223237"
       d="M 0,-0.02645833 V 1.031875 15.848542 16.906875 H 42.333333 V 15.848542 1.031875 -0.02645833 Z M 1.0583333,1.031875 H 41.275 V 15.848542 H 1.0583333 Z" /><g
       aria-label="Work Without JavaScript"
       id="text3127"
       style="font-size:3.175px;line-height:1.25;stroke-width:0.264583"><path
         d="m 17.228608,7.2608938 h 0.409575 l 0.15875,-0.7366 c 0.02858,-0.130175 0.04445,-0.26035 0.0635,-0.38735 h 0.0095 c 0.0127,0.127 0.0381,0.257175 0.06668,0.38735 l 0.161925,0.7366 h 0.415925 l 0.2794,-2.0764499 h -0.371475 l -0.1016,1.2033249 c -0.0127,0.17145 -0.01588,0.301625 -0.0254,0.498475 h -0.0127 c -0.03175,-0.19685 -0.06032,-0.327025 -0.1016,-0.498475 l -0.161925,-0.6731 h -0.276225 l -0.17145,0.6731 c -0.0381,0.174625 -0.06668,0.3048 -0.1016,0.498475 h -0.0095 c -0.0064,-0.193675 -0.01588,-0.32385 -0.02858,-0.498475 L 17.327033,5.1844439 h -0.3937 z"
         style="font-weight:600;font-family:'Source Code Pro';-inkscape-font-specification:'Source Code Pro Semi-Bold'"
         id="path4453" /><path
         d="m 19.768609,7.2989938 c 0.409575,0 0.784225,-0.29845 0.784225,-0.815975 0,-0.5207 -0.37465,-0.81915 -0.784225,-0.81915 -0.409575,0 -0.784225,0.29845 -0.784225,0.81915 0,0.517525 0.37465,0.815975 0.784225,0.815975 z m 0,-0.29845 c -0.254,0 -0.4064,-0.206375 -0.4064,-0.517525 0,-0.314325 0.1524,-0.5207 0.4064,-0.5207 0.254,0 0.4064,0.206375 0.4064,0.5207 0,0.31115 -0.1524,0.517525 -0.4064,0.517525 z"
         style="font-weight:600;font-family:'Source Code Pro';-inkscape-font-specification:'Source Code Pro Semi-Bold'"
         id="path4455" /><path
         d="m 21.13386,7.2608938 h 0.3683 v -0.860425 c 0.15875,-0.301625 0.3683,-0.41275 0.581025,-0.41275 0.117475,0 0.180975,0.015875 0.282575,0.047625 l 0.0762,-0.307975 c -0.09208,-0.04445 -0.174625,-0.0635 -0.301625,-0.0635 -0.269875,0 -0.504825,0.1397 -0.663575,0.390525 h -0.0095 l -0.03175,-0.352425 H 21.13386 Z"
         style="font-weight:600;font-family:'Source Code Pro';-inkscape-font-specification:'Source Code Pro Semi-Bold'"
         id="path4457" /><path
         d="m 22.911862,7.2608938 h 0.368299 v -0.4064 l 0.295275,-0.3048 0.492125,0.7112 h 0.40005 l -0.6731,-0.936625 0.606425,-0.6223 h -0.4064 l -0.701675,0.720725 h -0.0127 V 5.0193439 h -0.368299 z"
         style="font-weight:600;font-family:'Source Code Pro';-inkscape-font-specification:'Source Code Pro Semi-Bold'"
         id="path4459" /><path
         d="m 26.753613,7.2608938 h 0.409575 l 0.15875,-0.7366 c 0.02858,-0.130175 0.04445,-0.26035 0.0635,-0.38735 h 0.0095 c 0.0127,0.127 0.0381,0.257175 0.06668,0.38735 l 0.161925,0.7366 h 0.415925 l 0.2794,-2.0764499 h -0.371475 l -0.1016,1.2033249 c -0.0127,0.17145 -0.01588,0.301625 -0.0254,0.498475 h -0.0127 c -0.03175,-0.19685 -0.06032,-0.327025 -0.1016,-0.498475 l -0.161925,-0.6731 h -0.276225 l -0.17145,0.6731 c -0.0381,0.174625 -0.06668,0.3048 -0.1016,0.498475 h -0.0095 c -0.0064,-0.193675 -0.01588,-0.32385 -0.02858,-0.498475 L 26.852038,5.1844439 h -0.3937 z"
         style="font-weight:600;font-family:'Source Code Pro';-inkscape-font-specification:'Source Code Pro Semi-Bold'"
         id="path4461" /><path
         d="m 29.28409,7.2608938 h 0.365125 v -1.558925 h -1.0414 v 0.288925 h 0.676275 z m 0.155575,-1.844675 c 0.149225,0 0.26035,-0.09525 0.26035,-0.2444749 0,-0.14605 -0.111125,-0.24765 -0.26035,-0.24765 -0.149225,0 -0.26035,0.1016 -0.26035,0.24765 0,0.149225 0.111125,0.2444749 0.26035,0.2444749 z"
         style="font-weight:600;font-family:'Source Code Pro';-inkscape-font-specification:'Source Code Pro Semi-Bold'"
         id="path4463" /><path
         d="m 31.487542,7.2989938 c 0.2032,0 0.358775,-0.041275 0.498475,-0.0889 l -0.06985,-0.2667 c -0.1016,0.0381 -0.20955,0.0635 -0.339725,0.0635 -0.2667,0 -0.36195,-0.117475 -0.36195,-0.37465 v -0.64135 h 0.7112 v -0.288925 h -0.7112 V 5.2130189 h -0.301625 l -0.04763,0.4889499 -0.4318,0.015875 v 0.27305 h 0.415925 v 0.64135 c 0,0.40005 0.161925,0.66675 0.638175,0.66675 z"
         style="font-weight:600;font-family:'Source Code Pro';-inkscape-font-specification:'Source Code Pro Semi-Bold'"
         id="path4465" /><path
         d="m 32.411467,7.2608938 h 0.3683 v -1.063625 c 0.142875,-0.14605 0.24765,-0.219075 0.40005,-0.219075 0.212725,0 0.2921,0.1143 0.2921,0.365125 v 0.917575 h 0.3683 v -0.9652 c 0,-0.403225 -0.1651,-0.631825 -0.523875,-0.631825 -0.238125,0 -0.41275,0.123825 -0.549275,0.2667 h -0.0095 l 0.02222,-0.333375 V 5.0193439 h -0.3683 z"
         style="font-weight:600;font-family:'Source Code Pro';-inkscape-font-specification:'Source Code Pro Semi-Bold'"
         id="path4467" /><path
         d="m 35.008618,7.2989938 c 0.409575,0 0.784225,-0.29845 0.784225,-0.815975 0,-0.5207 -0.37465,-0.81915 -0.784225,-0.81915 -0.409575,0 -0.784225,0.29845 -0.784225,0.81915 0,0.517525 0.37465,0.815975 0.784225,0.815975 z m 0,-0.29845 c -0.254,0 -0.4064,-0.206375 -0.4064,-0.517525 0,-0.314325 0.1524,-0.5207 0.4064,-0.5207 0.254,0 0.4064,0.206375 0.4064,0.5207 0,0.31115 -0.1524,0.517525 -0.4064,0.517525 z"
         style="font-weight:600;font-family:'Source Code Pro';-inkscape-font-specification:'Source Code Pro Semi-Bold'"
         id="path4469" /><path
         d="m 36.704069,7.2989938 c 0.231775,0 0.4064,-0.1143 0.55245,-0.28575 h 0.0127 l 0.02858,0.24765 h 0.29845 v -1.558925 h -0.365125 v 1.050925 c -0.1397,0.17145 -0.244475,0.231775 -0.390525,0.231775 -0.2159,0 -0.2921,-0.1143 -0.2921,-0.365125 v -0.917575 h -0.365125 v 0.9652 c 0,0.403225 0.15875,0.631825 0.5207,0.631825 z"
         style="font-weight:600;font-family:'Source Code Pro';-inkscape-font-specification:'Source Code Pro Semi-Bold'"
         id="path4471" /><path
         d="m 39.107546,7.2989938 c 0.2032,0 0.358775,-0.041275 0.498475,-0.0889 l -0.06985,-0.2667 c -0.1016,0.0381 -0.20955,0.0635 -0.339725,0.0635 -0.2667,0 -0.36195,-0.117475 -0.36195,-0.37465 v -0.64135 h 0.7112 v -0.288925 h -0.7112 V 5.2130189 h -0.301625 l -0.04763,0.4889499 -0.4318,0.015875 v 0.27305 h 0.415925 v 0.64135 c 0,0.40005 0.161925,0.66675 0.638175,0.66675 z"
         style="font-weight:600;font-family:'Source Code Pro';-inkscape-font-specification:'Source Code Pro Semi-Bold'"
         id="path4473" /><path
         d="m 17.781058,11.378472 c 0.5461,0 0.733425,-0.327025 0.733425,-0.7239 V 9.2639225 h -1.209675 v 0.307975 h 0.841375 v 1.0509245 c 0,0.314325 -0.12065,0.434975 -0.37465,0.434975 -0.149225,0 -0.301625,-0.08255 -0.422275,-0.250825 l -0.2159,0.2286 c 0.161925,0.244475 0.4191,0.3429 0.6477,0.3429 z"
         style="font-weight:600;font-family:'Source Code Pro';-inkscape-font-specification:'Source Code Pro Semi-Bold'"
         id="path4475" /><path
         d="m 19.562234,11.378472 c 0.20955,0 0.4191,-0.104775 0.5842,-0.231775 h 0.0095 l 0.02858,0.193675 h 0.29845 v -0.923925 c 0,-0.4349745 -0.238125,-0.6730995 -0.669925,-0.6730995 -0.2667,0 -0.523875,0.104775 -0.7112,0.2159 l 0.13335,0.2444745 c 0.161925,-0.0889 0.33655,-0.1651 0.511175,-0.1651 0.254,0 0.358775,0.130175 0.371475,0.3048 -0.76835,0.05397 -1.076325,0.2286 -1.076325,0.57785 0,0.27305 0.2159,0.4572 0.5207,0.4572 z m 0.111125,-0.28575 c -0.155575,0 -0.2794,-0.06033 -0.2794,-0.200025 0,-0.168275 0.1651,-0.282575 0.7239,-0.320675 v 0.3302 c -0.142875,0.1143 -0.288925,0.1905 -0.4445,0.1905 z"
         style="font-weight:600;font-family:'Source Code Pro';-inkscape-font-specification:'Source Code Pro Semi-Bold'"
         id="path4477" /><path
         d="m 21.473585,11.340372 h 0.415925 l 0.606425,-1.5589245 h -0.34925 L 21.84506,10.591072 c -0.05715,0.155575 -0.104775,0.31115 -0.155575,0.4699 h -0.0127 c -0.0508,-0.15875 -0.09842,-0.314325 -0.155575,-0.4699 L 21.219585,9.7814475 h -0.3683 z"
         style="font-weight:600;font-family:'Source Code Pro';-inkscape-font-specification:'Source Code Pro Semi-Bold'"
         id="path4479" /><path
         d="m 23.372236,11.378472 c 0.20955,0 0.4191,-0.104775 0.5842,-0.231775 h 0.0095 l 0.02858,0.193675 h 0.29845 v -0.923925 c 0,-0.4349745 -0.238125,-0.6730995 -0.669925,-0.6730995 -0.2667,0 -0.523874,0.104775 -0.711199,0.2159 l 0.13335,0.2444745 c 0.161924,-0.0889 0.336549,-0.1651 0.511174,-0.1651 0.254,0 0.358775,0.130175 0.371475,0.3048 -0.76835,0.05397 -1.076324,0.2286 -1.076324,0.57785 0,0.27305 0.2159,0.4572 0.520699,0.4572 z m 0.111125,-0.28575 c -0.155575,0 -0.2794,-0.06033 -0.2794,-0.200025 0,-0.168275 0.1651,-0.282575 0.7239,-0.320675 v 0.3302 c -0.142875,0.1143 -0.288925,0.1905 -0.4445,0.1905 z"
         style="font-weight:600;font-family:'Source Code Pro';-inkscape-font-specification:'Source Code Pro Semi-Bold'"
         id="path4481" /><path
         d="m 25.489963,11.378472 c 0.4826,0 0.76835,-0.2794 0.76835,-0.61595 0,-0.301625 -0.187325,-0.4572 -0.45085,-0.561975 l -0.27305,-0.117475 c -0.187325,-0.07302 -0.3556,-0.1333495 -0.3556,-0.2920995 0,-0.155575 0.13335,-0.244475 0.3302,-0.244475 0.20955,0 0.3556,0.066675 0.4953,0.1778 l 0.1905,-0.23495 c -0.17145,-0.161925 -0.41275,-0.263525 -0.66675,-0.263525 -0.422275,0 -0.720725,0.254 -0.720725,0.5842 0,0.3047995 0.225425,0.4667245 0.4445,0.5524495 l 0.282575,0.123825 c 0.206375,0.08573 0.34925,0.136525 0.34925,0.320675 0,0.14605 -0.130175,0.250825 -0.371475,0.250825 -0.219075,0 -0.42545,-0.09525 -0.581025,-0.23495 l -0.2159,0.250825 c 0.206375,0.193675 0.4826,0.3048 0.7747,0.3048 z"
         style="font-weight:600;font-family:'Source Code Pro';-inkscape-font-specification:'Source Code Pro Semi-Bold'"
         id="path4483" /><path
         d="m 27.528313,11.378472 c 0.22225,0 0.45085,-0.07938 0.631825,-0.23495 l -0.1524,-0.23495 c -0.12065,0.09208 -0.2667,0.17145 -0.4445,0.17145 -0.307975,0 -0.517525,-0.206375 -0.517525,-0.517525 0,-0.314325 0.2159,-0.5207 0.52705,-0.5207 0.1397,0 0.263525,0.0508 0.384175,0.149225 l 0.174625,-0.2285995 c -0.130175,-0.123825 -0.327025,-0.219075 -0.57785,-0.219075 -0.47625,0 -0.885825,0.2984495 -0.885825,0.8191495 0,0.517525 0.371475,0.815975 0.860425,0.815975 z"
         style="font-weight:600;font-family:'Source Code Pro';-inkscape-font-specification:'Source Code Pro Semi-Bold'"
         id="path4485" /><path
         d="m 28.753865,11.340372 h 0.3683 v -0.860425 c 0.15875,-0.301625 0.3683,-0.41275 0.581025,-0.41275 0.117475,0 0.180975,0.01587 0.282575,0.04763 l 0.0762,-0.3079745 c -0.09208,-0.04445 -0.174625,-0.0635 -0.301625,-0.0635 -0.269875,0 -0.504825,0.1397 -0.663575,0.3905245 h -0.0095 L 29.05549,9.7814475 h -0.301625 z"
         style="font-weight:600;font-family:'Source Code Pro';-inkscape-font-specification:'Source Code Pro Semi-Bold'"
         id="path4487" /><path
         d="m 31.189092,11.340372 h 0.365125 V 9.7814475 h -1.0414 v 0.2889245 h 0.676275 z m 0.155575,-1.8446745 c 0.149225,0 0.26035,-0.09525 0.26035,-0.244475 0,-0.14605 -0.111125,-0.24765 -0.26035,-0.24765 -0.149225,0 -0.26035,0.1016 -0.26035,0.24765 0,0.149225 0.111125,0.244475 0.26035,0.244475 z"
         style="font-weight:600;font-family:'Source Code Pro';-inkscape-font-specification:'Source Code Pro Semi-Bold'"
         id="path4489" /><path
         d="m 32.411467,11.956322 h 0.3683 v -0.48895 l -0.01905,-0.27305 h 0.0095 c 0.123825,0.117475 0.282575,0.18415 0.42545,0.18415 0.358775,0 0.69215,-0.307975 0.69215,-0.841375 0,-0.4826 -0.231775,-0.7937495 -0.638175,-0.7937495 -0.1778,0 -0.365125,0.092075 -0.498475,0.2159 h -0.0095 l -0.02857,-0.1778 h -0.301625 z m 0.708025,-0.879475 c -0.09525,0 -0.225425,-0.0381 -0.339725,-0.142875 v -0.701675 c 0.127,-0.130175 0.250825,-0.187325 0.3683,-0.187325 0.254,0 0.36195,0.18415 0.36195,0.4953 0,0.352425 -0.168275,0.536575 -0.390525,0.536575 z"
         style="font-weight:600;font-family:'Source Code Pro';-inkscape-font-specification:'Source Code Pro Semi-Bold'"
         id="path4491" /><path
         d="m 35.297543,11.378472 c 0.2032,0 0.358775,-0.04128 0.498475,-0.0889 l -0.06985,-0.2667 c -0.1016,0.0381 -0.20955,0.0635 -0.339725,0.0635 -0.2667,0 -0.36195,-0.117475 -0.36195,-0.37465 v -0.64135 h 0.7112 V 9.7814475 h -0.7112 v -0.48895 h -0.301625 l -0.04762,0.48895 -0.4318,0.015875 v 0.2730495 h 0.415925 v 0.64135 c 0,0.40005 0.161925,0.66675 0.638175,0.66675 z"
         style="font-weight:600;font-family:'Source Code Pro';-inkscape-font-specification:'Source Code Pro Semi-Bold'"
         id="path4493" /></g><rect
       style="fill:#000000;fill-opacity:1;stroke-width:0.281309"
       id="rect3215"
       width="17.197916"
       height="1.0583333"
       x="-8.5802488"
       y="11.974037"
       transform="rotate(-45)" /></g></svg>
