<?xml version="1.0" encoding="UTF-8"?>
<svg width="160" height="64" version="1.1" viewBox="0 0 42.333 16.933" xml:space="preserve" xmlns="http://www.w3.org/2000/svg"><rect y="-.026458" width="42.333" height="16.933" fill="#f7df1e" stroke-width=".26458"/><path d="m3.175 3.1486v9.1137l9.1131-9.1137h-9.1131zm10.583 0.026872-4.8374 4.8374h0.0093018l-0.0020671 0.024805c0 0.91281 0.0053 1.8186 0 2.7244 0.002205 0.56268 0.050229 1.0658-0.17467 1.4759-0.15566 0.3175-0.45364 0.52251-0.79892 0.62218-0.53049 0.11906-1.0368 0.046096-1.4139-0.1788-0.25312-0.15213-0.44945-0.39088-0.58394-0.66869l0.8046-0.49609c0.007496 0 0.028545 0.039999 0.056327 0.086299 0.10275 0.17154 0.19125 0.29081 0.36587 0.37724 0.17022 0.053358 0.54488 0.091957 0.6904-0.21187 0.088637-0.15346 0.060978-0.652 0.060978-1.1953 0-0.52714 0.001427-1.0517 0.0025838-1.5766l-4.7356 4.7356h10.556v-10.556zm-2.5296 4.7609c0.53764 0.0073155 0.87902 0.16485 1.1395 0.4563 0.080257 0.078934 0.13932 0.15896 0.25838 0.34416-0.31794 0.198-0.31763 0.198-0.7736 0.49609-0.099659-0.21167-0.25849-0.34396-0.43046-0.39688-0.26458-0.079375-0.60204 0.0060706-0.66818 0.29094-0.02602 0.085989-0.019976 0.16557 0.020154 0.31109 0.10716 0.24474 0.46816 0.35068 0.79272 0.50281 0.93266 0.37835 1.2468 0.78373 1.324 1.2666l-0.020154-0.029456c0.073204 0.41672-0.019776 0.68792-0.032556 0.7276-0.3444 1.1774-2.2625 1.2172-3.0298 0.44287-0.15875-0.18521-0.265-0.27719-0.3576-0.48886l0.80719-0.46354c0.21828 0.33073 0.41648 0.50973 0.77411 0.58911 0.4833 0.059531 0.97245-0.10573 0.86661-0.62167-0.11245-0.42377-0.99229-0.52276-1.5942-0.97255-0.60854-0.4101-0.75386-1.4022-0.25115-1.9715 0.17198-0.21167 0.45586-0.37062 0.75396-0.44338l0.31109-0.039274c0.037621-8.543e-4 0.074229-0.0010044 0.11007-5.167e-4z" stroke-width=".44097"/><path d="m0-0.026458v16.933h42.333v-16.933zm1.0583 1.0583h40.217v14.817h-40.217z" fill="#fff" stroke-width=".22324"/><g stroke-width=".26458" aria-label="Work Without JavaScript"><path d="m17.229 7.2609h0.40958l0.15875-0.7366c0.02858-0.13018 0.04445-0.26035 0.0635-0.38735h0.0095c0.0127 0.127 0.0381 0.25718 0.06668 0.38735l0.16192 0.7366h0.41592l0.2794-2.0764h-0.37148l-0.1016 1.2033c-0.0127 0.17145-0.01588 0.30162-0.0254 0.49848h-0.0127c-0.03175-0.19685-0.06032-0.32702-0.1016-0.49848l-0.16192-0.6731h-0.27622l-0.17145 0.6731c-0.0381 0.17462-0.06668 0.3048-0.1016 0.49848h-0.0095c-0.0064-0.19368-0.01588-0.32385-0.02858-0.49848l-0.10478-1.2033h-0.3937z"/><path d="m19.769 7.299c0.40958 0 0.78422-0.29845 0.78422-0.81598 0-0.5207-0.37465-0.81915-0.78422-0.81915s-0.78422 0.29845-0.78422 0.81915c0 0.51752 0.37465 0.81598 0.78422 0.81598zm0-0.29845c-0.254 0-0.4064-0.20638-0.4064-0.51752 0-0.31432 0.1524-0.5207 0.4064-0.5207s0.4064 0.20638 0.4064 0.5207c0 0.31115-0.1524 0.51752-0.4064 0.51752z"/><path d="m21.134 7.2609h0.3683v-0.86042c0.15875-0.30162 0.3683-0.41275 0.58102-0.41275 0.11748 0 0.18098 0.015875 0.28258 0.047625l0.0762-0.30798c-0.09208-0.04445-0.17462-0.0635-0.30162-0.0635-0.26988 0-0.50482 0.1397-0.66358 0.39052h-0.0095l-0.03175-0.35242h-0.30165z"/><path d="m22.912 7.2609h0.3683v-0.4064l0.29528-0.3048 0.49212 0.7112h0.40005l-0.6731-0.93662 0.60642-0.6223h-0.4064l-0.70168 0.72072h-0.0127v-1.4033h-0.3683z"/><path d="m26.754 7.2609h0.40958l0.15875-0.7366c0.02858-0.13018 0.04445-0.26035 0.0635-0.38735h0.0095c0.0127 0.127 0.0381 0.25718 0.06668 0.38735l0.16192 0.7366h0.41592l0.2794-2.0764h-0.37148l-0.1016 1.2033c-0.0127 0.17145-0.01588 0.30162-0.0254 0.49848h-0.0127c-0.03175-0.19685-0.06032-0.32702-0.1016-0.49848l-0.16192-0.6731h-0.27622l-0.17145 0.6731c-0.0381 0.17462-0.06668 0.3048-0.1016 0.49848h-0.0095c-0.0064-0.19368-0.01588-0.32385-0.02858-0.49848l-0.10478-1.2033h-0.3937z"/><path d="m29.284 7.2609h0.36512v-1.5589h-1.0414v0.28892h0.67628zm0.15558-1.8447c0.14922 0 0.26035-0.09525 0.26035-0.24447 0-0.14605-0.11112-0.24765-0.26035-0.24765s-0.26035 0.1016-0.26035 0.24765c0 0.14922 0.11112 0.24447 0.26035 0.24447z"/><path d="m31.488 7.299c0.2032 0 0.35878-0.041275 0.49848-0.0889l-0.06985-0.2667c-0.1016 0.0381-0.20955 0.0635-0.33972 0.0635-0.2667 0-0.36195-0.11748-0.36195-0.37465v-0.64135h0.7112v-0.28892h-0.7112v-0.48895h-0.30162l-0.04763 0.48895-0.4318 0.015875v0.27305h0.41592v0.64135c0 0.40005 0.16192 0.66675 0.63818 0.66675z"/><path d="m32.411 7.2609h0.3683v-1.0636c0.14288-0.14605 0.24765-0.21908 0.40005-0.21908 0.21272 0 0.2921 0.1143 0.2921 0.36512v0.91758h0.3683v-0.9652c0-0.40322-0.1651-0.63182-0.52388-0.63182-0.23812 0-0.41275 0.12382-0.54928 0.2667h-0.0095l0.02222-0.33338v-0.57785h-0.3683z"/><path d="m35.009 7.299c0.40958 0 0.78422-0.29845 0.78422-0.81598 0-0.5207-0.37465-0.81915-0.78422-0.81915s-0.78422 0.29845-0.78422 0.81915c0 0.51752 0.37465 0.81598 0.78422 0.81598zm0-0.29845c-0.254 0-0.4064-0.20638-0.4064-0.51752 0-0.31432 0.1524-0.5207 0.4064-0.5207s0.4064 0.20638 0.4064 0.5207c0 0.31115-0.1524 0.51752-0.4064 0.51752z"/><path d="m36.704 7.299c0.23178 0 0.4064-0.1143 0.55245-0.28575h0.0127l0.02858 0.24765h0.29845v-1.5589h-0.36512v1.0509c-0.1397 0.17145-0.24448 0.23178-0.39052 0.23178-0.2159 0-0.2921-0.1143-0.2921-0.36512v-0.91758h-0.36512v0.9652c0 0.40322 0.15875 0.63182 0.5207 0.63182z"/><path d="m39.108 7.299c0.2032 0 0.35878-0.041275 0.49848-0.0889l-0.06985-0.2667c-0.1016 0.0381-0.20955 0.0635-0.33972 0.0635-0.2667 0-0.36195-0.11748-0.36195-0.37465v-0.64135h0.7112v-0.28892h-0.7112v-0.48895h-0.30162l-0.04763 0.48895-0.4318 0.015875v0.27305h0.41592v0.64135c0 0.40005 0.16192 0.66675 0.63818 0.66675z"/><path d="m17.781 11.378c0.5461 0 0.73342-0.32702 0.73342-0.7239v-1.3906h-1.2097v0.30798h0.84138v1.0509c0 0.31432-0.12065 0.43498-0.37465 0.43498-0.14922 0-0.30162-0.08255-0.42228-0.25082l-0.2159 0.2286c0.16192 0.24448 0.4191 0.3429 0.6477 0.3429z"/><path d="m19.562 11.378c0.20955 0 0.4191-0.10478 0.5842-0.23178h0.0095l0.02858 0.19368h0.29845v-0.92392c0-0.43497-0.23812-0.6731-0.66992-0.6731-0.2667 0-0.52388 0.10478-0.7112 0.2159l0.13335 0.24447c0.16192-0.0889 0.33655-0.1651 0.51118-0.1651 0.254 0 0.35878 0.13018 0.37148 0.3048-0.76835 0.05397-1.0763 0.2286-1.0763 0.57785 0 0.27305 0.2159 0.4572 0.5207 0.4572zm0.11112-0.28575c-0.15558 0-0.2794-0.06033-0.2794-0.20002 0-0.16828 0.1651-0.28258 0.7239-0.32068v0.3302c-0.14288 0.1143-0.28892 0.1905-0.4445 0.1905z"/><path d="m21.474 11.34h0.41592l0.60642-1.5589h-0.34925l-0.30162 0.80962c-0.05715 0.15558-0.10478 0.31115-0.15558 0.4699h-0.0127c-0.0508-0.15875-0.09842-0.31432-0.15558-0.4699l-0.30162-0.80962h-0.3683z"/><path d="m23.372 11.378c0.20955 0 0.4191-0.10478 0.5842-0.23178h0.0095l0.02858 0.19368h0.29845v-0.92392c0-0.43497-0.23812-0.6731-0.66992-0.6731-0.2667 0-0.52387 0.10478-0.7112 0.2159l0.13335 0.24447c0.16192-0.0889 0.33655-0.1651 0.51117-0.1651 0.254 0 0.35878 0.13018 0.37148 0.3048-0.76835 0.05397-1.0763 0.2286-1.0763 0.57785 0 0.27305 0.2159 0.4572 0.5207 0.4572zm0.11112-0.28575c-0.15558 0-0.2794-0.06033-0.2794-0.20002 0-0.16828 0.1651-0.28258 0.7239-0.32068v0.3302c-0.14288 0.1143-0.28892 0.1905-0.4445 0.1905z"/><path d="m25.49 11.378c0.4826 0 0.76835-0.2794 0.76835-0.61595 0-0.30162-0.18732-0.4572-0.45085-0.56198l-0.27305-0.11748c-0.18732-0.07302-0.3556-0.13335-0.3556-0.2921 0-0.15558 0.13335-0.24448 0.3302-0.24448 0.20955 0 0.3556 0.066675 0.4953 0.1778l0.1905-0.23495c-0.17145-0.16192-0.41275-0.26352-0.66675-0.26352-0.42228 0-0.72072 0.254-0.72072 0.5842 0 0.3048 0.22542 0.46672 0.4445 0.55245l0.28258 0.12382c0.20638 0.08573 0.34925 0.13652 0.34925 0.32068 0 0.14605-0.13018 0.25082-0.37148 0.25082-0.21908 0-0.42545-0.09525-0.58102-0.23495l-0.2159 0.25082c0.20638 0.19368 0.4826 0.3048 0.7747 0.3048z"/><path d="m27.528 11.378c0.22225 0 0.45085-0.07938 0.63182-0.23495l-0.1524-0.23495c-0.12065 0.09208-0.2667 0.17145-0.4445 0.17145-0.30798 0-0.51752-0.20638-0.51752-0.51752 0-0.31432 0.2159-0.5207 0.52705-0.5207 0.1397 0 0.26352 0.0508 0.38418 0.14922l0.17462-0.2286c-0.13018-0.12382-0.32702-0.21908-0.57785-0.21908-0.47625 0-0.88582 0.29845-0.88582 0.81915 0 0.51752 0.37148 0.81598 0.86042 0.81598z"/><path d="m28.754 11.34h0.3683v-0.86042c0.15875-0.30162 0.3683-0.41275 0.58102-0.41275 0.11748 0 0.18098 0.01587 0.28258 0.04763l0.0762-0.30797c-0.09208-0.04445-0.17462-0.0635-0.30162-0.0635-0.26988 0-0.50482 0.1397-0.66358 0.39052h-0.0095l-0.031775-0.35243h-0.30162z"/><path d="m31.189 11.34h0.36512v-1.5589h-1.0414v0.28892h0.67628zm0.15558-1.8447c0.14922 0 0.26035-0.09525 0.26035-0.24448 0-0.14605-0.11112-0.24765-0.26035-0.24765s-0.26035 0.1016-0.26035 0.24765c0 0.14922 0.11112 0.24448 0.26035 0.24448z"/><path d="m32.411 11.956h0.3683v-0.48895l-0.01905-0.27305h0.0095c0.12382 0.11748 0.28258 0.18415 0.42545 0.18415 0.35878 0 0.69215-0.30798 0.69215-0.84138 0-0.4826-0.23178-0.79375-0.63818-0.79375-0.1778 0-0.36512 0.092075-0.49848 0.2159h-0.0095l-0.02857-0.1778h-0.30162zm0.70802-0.87948c-0.09525 0-0.22542-0.0381-0.33972-0.14288v-0.70168c0.127-0.13018 0.25082-0.18732 0.3683-0.18732 0.254 0 0.36195 0.18415 0.36195 0.4953 0 0.35242-0.16828 0.53658-0.39052 0.53658z"/><path d="m35.298 11.378c0.2032 0 0.35878-0.04128 0.49848-0.0889l-0.06985-0.2667c-0.1016 0.0381-0.20955 0.0635-0.33972 0.0635-0.2667 0-0.36195-0.11748-0.36195-0.37465v-0.64135h0.7112v-0.28892h-0.7112v-0.48895h-0.30162l-0.04762 0.48895-0.4318 0.015875v0.27305h0.41592v0.64135c0 0.40005 0.16192 0.66675 0.63818 0.66675z"/></g><rect transform="rotate(-45)" x="-8.5802" y="11.974" width="17.198" height="1.0583" stroke-width=".28131"/></svg>
