<?xml version="1.0" encoding="UTF-8"?>
<!-- Created with Inkscape (http://www.inkscape.org/) -->
<svg width="160" height="64" version="1.1" viewBox="0 0 42.333 16.933" xmlns="http://www.w3.org/2000/svg">
    <rect x="2.89e-7" y="2.5454e-7" width="42.333" height="16.933" fill="#92ad00" stroke-width=".26458"/>
    <text x="4.6727533" y="12.789798" fill="#a3c300" font-size="13.548px" stroke-width="1.129" xml:space="preserve"><tspan x="4.6727533" y="12.789798" fill="#ffffff" font-family="Consolas" stroke-width="1.129">3</tspan></text>
    <g stroke-width=".26458">
        <g fill="#fff" aria-label="Years of">
            <path d="m16.933 4.262h0.44442l0.75241 1.3622 0.75034-1.3622h0.44855l-0.99012 1.7012v1.3849h-0.41961v-1.3849z"/>
            <path d="m21.721 6.0004v0.18604h-1.6474v0.012402q-0.01654 0.47336 0.17983 0.68006 0.19844 0.20671 0.5581 0.20671 0.1819 0 0.38034-0.057878t0.42375-0.1757v0.37827q-0.21704 0.088883-0.41961 0.13229-0.2005 0.045475-0.38861 0.045475-0.5395 0-0.84336-0.32246-0.30386-0.32453-0.30386-0.89297 0-0.55397 0.29766-0.8847 0.29766-0.33073 0.79375-0.33073 0.44235 0 0.6966 0.29972 0.25632 0.29972 0.27285 0.72347zm-0.38034-0.11162q-0.02481-0.23978-0.1757-0.41341-0.14883-0.1757-0.42995-0.1757-0.27492 0-0.45268 0.1819t-0.1943 0.40928z"/>
            <path d="m23.405 6.1843h-0.12609q-0.3328 0-0.50229 0.11782-0.16743 0.11576-0.16743 0.34727 0 0.20877 0.12609 0.32453 0.12609 0.11576 0.34933 0.11576 0.31419 0 0.49403-0.21704 0.17983-0.21911 0.1819-0.60358v-0.084749zm0.73794-0.1571v1.3208h-0.38241v-0.34313q-0.12196 0.20671-0.30799 0.30592-0.18397 0.097152-0.44855 0.097152-0.35347 0-0.56431-0.19844-0.21084-0.2005-0.21084-0.53537 0-0.38654 0.25838-0.58704 0.26045-0.2005 0.76274-0.2005h0.51056v-0.059945q-0.0021-0.27699-0.14056-0.40101-0.13849-0.12609-0.44235-0.12609-0.1943 0-0.39274 0.05581t-0.38654 0.1633v-0.38034q0.21084-0.080615 0.40308-0.11989 0.1943-0.041341 0.3762-0.041341 0.28732 0 0.48989 0.084749 0.20464 0.084749 0.33073 0.25425 0.07855 0.10335 0.11162 0.25631 0.03307 0.1509 0.03307 0.45475z"/>
            <path d="m26.89 5.5105q-0.12196-0.095085-0.24805-0.13849-0.12609-0.043408-0.27698-0.043408-0.35553 0-0.54364 0.22324t-0.1881 0.64492v1.1514h-0.3824v-2.3151h0.3824v0.45269q0.09509-0.24598 0.29146-0.3762 0.19844-0.13229 0.46922-0.13229 0.14056 0 0.26252 0.03514 0.12196 0.03514 0.23358 0.10955z"/>
            <path d="m29.063 5.1136v0.37207q-0.1633-0.095084-0.32866-0.14263-0.16536-0.047542-0.33693-0.047542-0.25838 0-0.38654 0.084749-0.12609 0.082682-0.12609 0.25425 0 0.15503 0.09509 0.23151 0.09508 0.076481 0.47336 0.14883l0.15296 0.028939q0.28319 0.053743 0.42788 0.21497 0.14676 0.16123 0.14676 0.41961 0 0.34313-0.24391 0.53743-0.24391 0.19224-0.678 0.19224-0.17156 0-0.35967-0.037207-0.1881-0.03514-0.40721-0.10749v-0.39274q0.21291 0.10955 0.40721 0.16536 0.1943 0.053743 0.36794 0.053743 0.25218 0 0.39067-0.10129 0.13849-0.10335 0.13849-0.28732 0-0.26458-0.50643-0.36587l-0.016541-0.0041338-0.14263-0.028939q-0.32866-0.064079-0.47956-0.21497-0.1509-0.15296-0.1509-0.41548 0-0.3328 0.22531-0.51263 0.22531-0.1819 0.64285-0.1819 0.18604 0 0.3576 0.03514 0.17157 0.033073 0.33693 0.10129z"/>
            <path d="m33.422 5.2996q-0.28939 0-0.43822 0.22531-0.14883 0.22531-0.14883 0.66766 0 0.44028 0.14883 0.66766 0.14883 0.22531 0.43822 0.22531 0.29146 0 0.44028-0.22531 0.14883-0.22738 0.14883-0.66766 0-0.44235-0.14883-0.66766-0.14883-0.22531-0.44028-0.22531zm0-0.32246q0.48162 0 0.73587 0.31213 0.25631 0.31213 0.25631 0.9033 0 0.59324-0.25425 0.90537-0.25425 0.31006-0.73794 0.31006-0.48162 0-0.73587-0.31006-0.25425-0.31213-0.25425-0.90537 0-0.59118 0.25425-0.9033 0.25425-0.31213 0.73587-0.31213z"/>
            <path d="m36.895 4.1317v0.31626h-0.43202q-0.20464 0-0.28525 0.084749-0.07855 0.082682-0.07855 0.29559v0.20464h0.79582v0.29559h-0.79581v2.0195h-0.38034v-2.0195h-0.61805v-0.29559h0.61805v-0.16123q0-0.38034 0.17363-0.56017 0.1757-0.17983 0.5457-0.17983z"/>
        </g>
        <g fill="#fff" aria-label="Service">
            <path d="m18.738 9.7503v0.42375q-0.19017-0.12196-0.38241-0.18397-0.19017-0.062012-0.38447-0.062012-0.29559 0-0.46716 0.13849-0.17156 0.13643-0.17156 0.37 0 0.20464 0.11162 0.31213 0.11369 0.10749 0.42168 0.17983l0.21911 0.04961q0.43408 0.10128 0.63252 0.31833t0.19844 0.59118q0 0.44028-0.27285 0.67179t-0.79375 0.23151q-0.21704 0-0.43615-0.04754-0.21911-0.04547-0.44028-0.13849v-0.44442q0.23771 0.1509 0.44855 0.22118 0.21291 0.07028 0.42788 0.07028 0.31626 0 0.49196-0.14056 0.1757-0.14263 0.1757-0.39688 0-0.23151-0.12196-0.35347-0.11989-0.12196-0.41961-0.1881l-0.22324-0.05168q-0.42995-0.09715-0.62425-0.29352-0.1943-0.19637-0.1943-0.5271 0-0.41341 0.27699-0.66146 0.27905-0.25011 0.74-0.25011 0.17777 0 0.37414 0.041341 0.19637 0.039274 0.41341 0.11989z"/>
            <path d="m21.51 11.383v0.18604h-1.6474v0.0124q-0.01654 0.47336 0.17983 0.68006 0.19844 0.20671 0.5581 0.20671 0.1819 0 0.38034-0.05788t0.42375-0.1757v0.37827q-0.21704 0.08888-0.41961 0.13229-0.2005 0.04547-0.38861 0.04547-0.5395 0-0.84336-0.32246-0.30386-0.32453-0.30386-0.89297 0-0.55397 0.29766-0.8847t0.79375-0.33073q0.44235 0 0.6966 0.29972 0.25632 0.29972 0.27285 0.72347zm-0.38034-0.11162q-0.02481-0.23978-0.1757-0.41341-0.14883-0.1757-0.42995-0.1757-0.27492 0-0.45269 0.1819-0.17777 0.1819-0.1943 0.40928z"/>
            <path d="m24.131 10.893q-0.12196-0.09508-0.24805-0.13849-0.12609-0.04341-0.27698-0.04341-0.35553 0-0.54364 0.22324t-0.1881 0.64492v1.1514h-0.3824v-2.3151h0.3824v0.45268q0.09508-0.24598 0.29146-0.3762 0.19844-0.13229 0.46922-0.13229 0.14056 0 0.26252 0.03514 0.12196 0.03514 0.23358 0.10955z"/>
            <path d="m24.499 10.416h0.39481l0.67179 1.943 0.67386-1.943h0.39481l-0.82269 2.3151h-0.48989z"/>
            <path d="m27.494 10.424h0.97358v2.0112h0.75448v0.29559h-1.8893v-0.29559h0.75448v-1.7157h-0.59324zm0.59324-0.89917h0.38034v0.47956h-0.38034z"/>
            <path d="m31.583 12.613q-0.15296 0.08888-0.31626 0.13229-0.16123 0.04547-0.33073 0.04547-0.53744 0-0.84129-0.32246-0.30179-0.32246-0.30179-0.89297 0-0.57051 0.30179-0.89297 0.30386-0.32246 0.84129-0.32246 0.16743 0 0.32659 0.04341 0.15916 0.04341 0.32039 0.13436v0.39894q-0.1509-0.13436-0.30386-0.1943-0.1509-0.05994-0.34313-0.05994-0.3576 0-0.54984 0.23151t-0.19224 0.66146q0 0.42788 0.19224 0.66146 0.1943 0.23151 0.54984 0.23151 0.19844 0 0.35553-0.05994 0.1571-0.06201 0.29146-0.19017z"/>
            <path d="m34.253 11.383v0.18604h-1.6474v0.0124q-0.01654 0.47336 0.17983 0.68006 0.19844 0.20671 0.5581 0.20671 0.1819 0 0.38034-0.05788 0.19844-0.05788 0.42375-0.1757v0.37827q-0.21704 0.08888-0.41961 0.13229-0.2005 0.04547-0.38861 0.04547-0.5395 0-0.84336-0.32246-0.30386-0.32453-0.30386-0.89297 0-0.55397 0.29766-0.8847t0.79375-0.33073q0.44235 0 0.6966 0.29972 0.25632 0.29972 0.27285 0.72347zm-0.38034-0.11162q-0.0248-0.23978-0.1757-0.41341-0.14883-0.1757-0.42995-0.1757-0.27492 0-0.45268 0.1819t-0.1943 0.40928z"/>
        </g>
        <text x="38.199791" y="3.1348011" fill="#ffffff" font-family="Consolas" font-size="2.8222px" xml:space="preserve"><tspan x="38.199791" y="3.1348011" fill="#ffffff" font-size="2.8222px" stroke-width=".26458"/></text>
    </g>
    <path d="m-1.8011e-7 2.5454e-7v16.933h42.333v-16.933zm1.0583 1.0583h40.217v14.817h-40.217z" fill="#fff" stroke-width=".29891"/>
</svg>
