<?xml version="1.0" encoding="UTF-8" standalone="no"?>
<!-- Created with Inkscape (http://www.inkscape.org/) -->

<svg
   width="160"
   height="64"
   viewBox="0 0 42.333332 16.933333"
   version="1.1"
   id="svg275"
   inkscape:version="1.2.2 (732a01da63, 2022-12-09)"
   sodipodi:docname="certified_preschooler.svg"
   xmlns:inkscape="http://www.inkscape.org/namespaces/inkscape"
   xmlns:sodipodi="http://sodipodi.sourceforge.net/DTD/sodipodi-0.dtd"
   xmlns="http://www.w3.org/2000/svg"
   xmlns:svg="http://www.w3.org/2000/svg">
  <sodipodi:namedview
     id="namedview277"
     pagecolor="#ffffff"
     bordercolor="#000000"
     borderopacity="0.25"
     inkscape:showpageshadow="2"
     inkscape:pageopacity="0.0"
     inkscape:pagecheckerboard="0"
     inkscape:deskcolor="#d1d1d1"
     inkscape:document-units="mm"
     showgrid="false"
     showguides="true"
     inkscape:zoom="6.0546018"
     inkscape:cx="66.395778"
     inkscape:cy="44.429016"
     inkscape:window-width="1920"
     inkscape:window-height="1009"
     inkscape:window-x="-8"
     inkscape:window-y="-8"
     inkscape:window-maximized="1"
     inkscape:current-layer="layer1">
    <sodipodi:guide
       position="8.4666468,8.4666548"
       orientation="0,-1"
       id="guide963"
       inkscape:locked="false" />
    <sodipodi:guide
       position="8.4666468,8.4666548"
       orientation="1,0"
       id="guide965"
       inkscape:locked="false" />
    <sodipodi:guide
       position="15.738137,11.486734"
       orientation="1,0"
       id="guide2364"
       inkscape:locked="false" />
  </sodipodi:namedview>
  <defs
     id="defs272" />
  <g
     inkscape:label="Layer 1"
     inkscape:groupmode="layer"
     id="layer1">
    <rect
       style="fill:#00877e;fill-opacity:1;stroke-width:0.264583"
       id="rect111"
       width="42.333332"
       height="16.933332"
       x="0"
       y="0" />
    <g
       aria-label="Certified"
       id="text5668"
       style="font-size:3.52778px;font-family:Consolas;-inkscape-font-specification:Consolas;fill:#ffffff;stroke-width:0.264583">
      <path
         d="m 17.346998,7.5316722 q -0.132636,0.070625 -0.272163,0.1050754 -0.139526,0.036174 -0.296278,0.036174 -0.494372,0 -0.768257,-0.3496775 -0.272163,-0.3496774 -0.272163,-0.9835754 0,-0.6304528 0.273886,-0.9818528 0.275607,-0.3531225 0.766534,-0.3531225 0.156752,0 0.296278,0.036174 0.139527,0.034451 0.272163,0.1050755 V 5.5025096 Q 17.219529,5.3974341 17.073113,5.3423126 16.926696,5.287191 16.778557,5.287191 q -0.339342,0 -0.508152,0.2618274 -0.16881,0.2618274 -0.16881,0.7906499 0,0.5271 0.16881,0.7889274 0.16881,0.2618274 0.508152,0.2618274 0.151584,0 0.296278,-0.055121 0.146417,-0.055122 0.272163,-0.1601971 z"
         style="font-family:'MesloLGS NF';-inkscape-font-specification:'MesloLGS NF'"
         id="path462" />
      <path
         d="m 19.551861,6.4998654 v 0.1550294 h -1.372872 v 0.010335 q -0.01378,0.3944637 0.149862,0.5667186 0.165365,0.1722548 0.465088,0.1722548 0.151584,0 0.316949,-0.048231 0.165365,-0.048231 0.353123,-0.1464167 V 7.524782 q -0.180868,0.07407 -0.349678,0.1102431 -0.167087,0.037896 -0.323839,0.037896 -0.449585,0 -0.7028,-0.2687177 -0.253215,-0.2704401 -0.253215,-0.7441411 0,-0.4616431 0.248047,-0.7372509 0.248047,-0.2756078 0.661459,-0.2756078 0.368626,0 0.580499,0.2497696 0.213596,0.2497696 0.227377,0.6028921 z M 19.234912,6.4068478 Q 19.214241,6.2070321 19.088495,6.062338 18.964471,5.9159213 18.730205,5.9159213 q -0.229099,0 -0.377238,0.1515843 -0.14814,0.1515843 -0.16192,0.3410647 z"
         style="font-family:'MesloLGS NF';-inkscape-font-specification:'MesloLGS NF'"
         id="path464" />
      <path
         d="M 21.736053,6.0916213 Q 21.634422,6.0123841 21.529347,5.9762105 21.424271,5.940037 21.298525,5.940037 q -0.296278,0 -0.45303,0.1860353 -0.156752,0.1860353 -0.156752,0.5374352 V 7.6229672 H 20.370071 V 5.6937125 h 0.318672 v 0.3772382 q 0.07924,-0.2049833 0.242879,-0.3135039 0.165365,-0.1102431 0.391019,-0.1102431 0.117133,0 0.218764,0.029283 0.10163,0.029283 0.194648,0.091295 z"
         style="font-family:'MesloLGS NF';-inkscape-font-specification:'MesloLGS NF'"
         id="path466" />
      <path
         d="m 22.928056,5.145942 v 0.5477705 h 0.720026 V 5.940037 h -0.720026 v 1.0473097 q 0,0.2135961 0.08096,0.298001 0.08096,0.084405 0.282498,0.084405 h 0.356568 v 0.2532146 h -0.387574 q -0.356567,0 -0.502984,-0.1429715 -0.146417,-0.1429716 -0.146417,-0.492649 V 5.940037 H 22.096065 V 5.6937125 h 0.515042 V 5.145942 Z"
         style="font-family:'MesloLGS NF';-inkscape-font-specification:'MesloLGS NF'"
         id="path468" />
      <path
         d="m 24.53864,5.7006027 h 0.81132 v 1.6760401 h 0.62873 V 7.6229672 H 24.404281 V 7.3766428 h 0.62873 V 5.9469272 H 24.53864 Z M 25.033011,4.951294 h 0.316949 v 0.3996313 h -0.316949 z"
         style="font-family:'MesloLGS NF';-inkscape-font-specification:'MesloLGS NF'"
         id="path470" />
      <path
         d="m 27.949287,4.9426812 v 0.26355 h -0.360013 q -0.170532,0 -0.237712,0.070624 -0.06546,0.068902 -0.06546,0.2463245 v 0.1705323 h 0.663181 V 5.940037 H 27.286106 V 7.6229672 H 26.969157 V 5.940037 H 26.454114 V 5.6937125 h 0.515043 V 5.5593537 q 0,-0.316949 0.144694,-0.4668107 0.146416,-0.1498618 0.454753,-0.1498618 z"
         style="font-family:'MesloLGS NF';-inkscape-font-specification:'MesloLGS NF'"
         id="path472" />
      <path
         d="m 28.786445,5.7006027 h 0.811321 v 1.6760401 h 0.62873 v 0.2463244 h -1.57441 V 7.3766428 h 0.628731 V 5.9469272 H 28.786445 Z M 29.280817,4.951294 h 0.316949 v 0.3996313 h -0.316949 z"
         style="font-family:'MesloLGS NF';-inkscape-font-specification:'MesloLGS NF'"
         id="path474" />
      <path
         d="m 32.295277,6.4998654 v 0.1550294 h -1.372872 v 0.010335 q -0.01378,0.3944637 0.149862,0.5667186 0.165365,0.1722548 0.465088,0.1722548 0.151585,0 0.316949,-0.048231 0.165365,-0.048231 0.353123,-0.1464167 V 7.524782 q -0.180868,0.07407 -0.349678,0.1102431 -0.167087,0.037896 -0.323839,0.037896 -0.449585,0 -0.7028,-0.2687177 -0.253214,-0.2704401 -0.253214,-0.7441411 0,-0.4616431 0.248047,-0.7372509 0.248047,-0.2756078 0.661458,-0.2756078 0.368626,0 0.580499,0.2497696 0.213596,0.2497696 0.227377,0.6028921 z M 31.978328,6.4068478 Q 31.957657,6.2070321 31.831911,6.062338 31.707888,5.9159213 31.473621,5.9159213 q -0.229099,0 -0.377238,0.1515843 -0.148139,0.1515843 -0.16192,0.3410647 z"
         style="font-family:'MesloLGS NF';-inkscape-font-specification:'MesloLGS NF'"
         id="path476" />
      <path
         d="M 33.967872,5.940037 V 4.9426812 h 0.316949 v 2.680286 H 33.967872 V 7.3800879 q -0.07924,0.1429715 -0.211873,0.2187637 -0.130914,0.07407 -0.303169,0.07407 -0.349677,0 -0.551215,-0.2704402 -0.199816,-0.2721627 -0.199816,-0.7493088 0,-0.4702558 0.201538,-0.7372509 0.201538,-0.2687176 0.549493,-0.2687176 0.173978,0 0.306614,0.075792 0.132636,0.07407 0.208428,0.2170411 z m -0.931899,0.7200254 q 0,0.3686255 0.117134,0.5563833 0.117133,0.1877578 0.346232,0.1877578 0.229099,0 0.347955,-0.1894803 0.120578,-0.1894804 0.120578,-0.5546608 0,-0.3669029 -0.120578,-0.5546607 -0.118856,-0.1894804 -0.347955,-0.1894804 -0.229099,0 -0.346232,0.1877579 -0.117134,0.1877578 -0.117134,0.5563832 z"
         style="font-family:'MesloLGS NF';-inkscape-font-specification:'MesloLGS NF'"
         id="path478" />
    </g>
    <g
       aria-label="Preschooler"
       id="text5676"
       style="font-size:3.52778px;font-family:Consolas;-inkscape-font-specification:Consolas;fill:#ffffff;stroke-width:0.264583">
      <path
         d="m 16.086092,9.665216 v 0.96635 h 0.403077 q 0.241156,0 0.375515,-0.127469 0.136082,-0.127468 0.136082,-0.356567 0,-0.2290993 -0.134359,-0.3548454 Q 16.732048,9.665216 16.489169,9.665216 Z M 15.738137,9.3792729 h 0.751032 q 0.430637,0 0.652846,0.1963706 0.222208,0.194648 0.222208,0.5718865 0,0.380683 -0.222208,0.575331 -0.220487,0.194648 -0.652846,0.194648 h -0.403077 v 1.033529 h -0.347955 z"
         style="font-family:'MesloLGS NF';-inkscape-font-specification:'MesloLGS NF'"
         id="path481" />
      <path
         d="m 19.512242,10.419692 q -0.101631,-0.07924 -0.206706,-0.11541 -0.105075,-0.03617 -0.230822,-0.03617 -0.296278,0 -0.45303,0.186035 -0.156752,0.186036 -0.156752,0.537436 v 0.959459 h -0.318671 v -1.929254 h 0.318671 v 0.377238 q 0.07924,-0.204983 0.24288,-0.313504 0.165364,-0.1102432 0.391018,-0.1102432 0.117133,0 0.218764,0.029283 0.10163,0.02928 0.194648,0.0913 z"
         style="font-family:'MesloLGS NF';-inkscape-font-specification:'MesloLGS NF'"
         id="path483" />
      <path
         d="m 21.575855,10.827937 v 0.155029 h -1.372871 v 0.01034 q -0.01378,0.394464 0.149862,0.566719 0.165364,0.172255 0.465088,0.172255 0.151584,0 0.316949,-0.04823 0.165365,-0.04823 0.353122,-0.146416 v 0.315226 q -0.180867,0.07407 -0.349677,0.110243 -0.167087,0.0379 -0.323839,0.0379 -0.449585,0 -0.7028,-0.268717 -0.253215,-0.270441 -0.253215,-0.744141 0,-0.461644 0.248047,-0.737251 0.248047,-0.2756082 0.661459,-0.2756082 0.368625,0 0.580499,0.2497692 0.213596,0.24977 0.227376,0.602893 z m -0.316949,-0.09302 q -0.02067,-0.199816 -0.146416,-0.34451 -0.124024,-0.146417 -0.35829,-0.146417 -0.229099,0 -0.377239,0.151585 -0.148139,0.151584 -0.161919,0.341064 z"
         style="font-family:'MesloLGS NF';-inkscape-font-specification:'MesloLGS NF'"
         id="path485" />
      <path
         d="m 23.446544,10.088963 v 0.310059 q -0.136082,-0.07924 -0.273886,-0.118856 -0.137804,-0.03962 -0.280775,-0.03962 -0.215319,0 -0.322117,0.07062 -0.105075,0.0689 -0.105075,0.211873 0,0.129192 0.07924,0.192926 0.07924,0.06373 0.394464,0.124023 l 0.127468,0.02412 q 0.235989,0.04479 0.356568,0.179145 0.122301,0.134359 0.122301,0.349678 0,0.285943 -0.203261,0.447862 -0.203261,0.160197 -0.564996,0.160197 -0.142972,0 -0.299723,-0.03101 -0.156752,-0.02928 -0.339343,-0.08957 V 11.55313 q 0.177423,0.0913 0.339343,0.137803 0.161919,0.04479 0.306613,0.04479 0.210151,0 0.325562,-0.08441 0.115411,-0.08613 0.115411,-0.239434 0,-0.220487 -0.422025,-0.304892 l -0.01378,-0.0034 -0.118856,-0.02412 q -0.273885,-0.0534 -0.399631,-0.179145 -0.125746,-0.127469 -0.125746,-0.346233 0,-0.27733 0.187757,-0.427192 0.187758,-0.1515842 0.535713,-0.1515842 0.15503,0 0.298001,0.029283 0.142972,0.02756 0.280776,0.08441 z"
         style="font-family:'MesloLGS NF';-inkscape-font-specification:'MesloLGS NF'"
         id="path487" />
      <path
         d="m 25.722031,11.852853 q -0.127469,0.07407 -0.26355,0.110243 -0.134359,0.0379 -0.275608,0.0379 -0.447863,0 -0.701078,-0.268717 -0.251492,-0.268718 -0.251492,-0.744141 0,-0.475424 0.251492,-0.744142 0.253215,-0.2687172 0.701078,-0.2687172 0.139526,0 0.272163,0.036173 0.132636,0.03617 0.266995,0.111966 v 0.332452 q -0.125746,-0.111966 -0.253215,-0.16192 -0.125746,-0.04995 -0.285943,-0.04995 -0.298001,0 -0.458198,0.192926 -0.160197,0.192925 -0.160197,0.551216 0,0.356567 0.160197,0.551215 0.161919,0.192926 0.458198,0.192926 0.165365,0 0.296278,-0.04995 0.130914,-0.05168 0.24288,-0.158475 z"
         style="font-family:'MesloLGS NF';-inkscape-font-specification:'MesloLGS NF'"
         id="path489" />
      <path
         d="m 27.828708,10.755589 v 1.195449 h -0.318671 v -1.195449 q 0,-0.260104 -0.09129,-0.382405 -0.0913,-0.122301 -0.285943,-0.122301 -0.222209,0 -0.342788,0.158474 -0.118855,0.156752 -0.118855,0.451308 v 1.090373 H 26.354207 V 9.2707523 h 0.316949 v 1.0404197 q 0.08441,-0.165365 0.229099,-0.24977 0.144694,-0.086127 0.342787,-0.086127 0.294556,0 0.43925,0.1946482 0.146416,0.192925 0.146416,0.585666 z"
         style="font-family:'MesloLGS NF';-inkscape-font-specification:'MesloLGS NF'"
         id="path491" />
      <path
         d="m 29.203302,10.243992 q -0.241157,0 -0.36518,0.187758 -0.124024,0.187758 -0.124024,0.556384 0,0.366902 0.124024,0.556383 0.124023,0.187758 0.36518,0.187758 0.242879,0 0.366903,-0.187758 0.124023,-0.189481 0.124023,-0.556383 0,-0.368626 -0.124023,-0.556384 -0.124024,-0.187758 -0.366903,-0.187758 z m 0,-0.2687172 q 0.401354,0 0.613227,0.2601052 0.213596,0.260105 0.213596,0.752754 0,0.494371 -0.211873,0.754476 -0.211874,0.258382 -0.61495,0.258382 -0.401354,0 -0.613227,-0.258382 -0.211874,-0.260105 -0.211874,-0.754476 0,-0.492649 0.211874,-0.752754 0.211873,-0.2601052 0.613227,-0.2601052 z"
         style="font-family:'MesloLGS NF';-inkscape-font-specification:'MesloLGS NF'"
         id="path493" />
      <path
         d="m 31.327204,10.243992 q -0.241157,0 -0.36518,0.187758 -0.124024,0.187758 -0.124024,0.556384 0,0.366902 0.124024,0.556383 0.124023,0.187758 0.36518,0.187758 0.24288,0 0.366903,-0.187758 0.124024,-0.189481 0.124024,-0.556383 0,-0.368626 -0.124024,-0.556384 -0.124023,-0.187758 -0.366903,-0.187758 z m 0,-0.2687172 q 0.401354,0 0.613228,0.2601052 0.213596,0.260105 0.213596,0.752754 0,0.494371 -0.211874,0.754476 -0.211873,0.258382 -0.61495,0.258382 -0.401354,0 -0.613227,-0.258382 -0.211874,-0.260105 -0.211874,-0.754476 0,-0.492649 0.211874,-0.752754 0.211873,-0.2601052 0.613227,-0.2601052 z"
         style="font-family:'MesloLGS NF';-inkscape-font-specification:'MesloLGS NF'"
         id="path495" />
      <path
         d="m 33.62853,11.253406 q 0,0.213596 0.07752,0.322117 0.07924,0.10852 0.232544,0.10852 h 0.370348 v 0.266995 h -0.401354 q -0.284221,0 -0.440972,-0.180867 -0.15503,-0.18259 -0.15503,-0.516765 V 9.5084641 H 32.803429 V 9.260417 h 0.825101 z"
         style="font-family:'MesloLGS NF';-inkscape-font-specification:'MesloLGS NF'"
         id="path497" />
      <path
         d="m 36.443176,10.827937 v 0.155029 h -1.372872 v 0.01034 q -0.01378,0.394464 0.149862,0.566719 0.165365,0.172255 0.465088,0.172255 0.151584,0 0.316949,-0.04823 0.165365,-0.04823 0.353123,-0.146416 v 0.315226 q -0.180868,0.07407 -0.349678,0.110243 -0.167087,0.0379 -0.323839,0.0379 -0.449585,0 -0.7028,-0.268717 -0.253215,-0.270441 -0.253215,-0.744141 0,-0.461644 0.248047,-0.737251 0.248047,-0.2756082 0.661459,-0.2756082 0.368626,0 0.580499,0.2497692 0.213596,0.24977 0.227377,0.602893 z m -0.316949,-0.09302 q -0.02067,-0.199816 -0.146417,-0.34451 -0.124024,-0.146417 -0.35829,-0.146417 -0.229099,0 -0.377239,0.151585 -0.148139,0.151584 -0.161919,0.341064 z"
         style="font-family:'MesloLGS NF';-inkscape-font-specification:'MesloLGS NF'"
         id="path499" />
      <path
         d="m 38.627368,10.419692 q -0.10163,-0.07924 -0.206706,-0.11541 -0.105075,-0.03617 -0.230821,-0.03617 -0.296279,0 -0.453031,0.186035 -0.156752,0.186036 -0.156752,0.537436 v 0.959459 h -0.318671 v -1.929254 h 0.318671 v 0.377238 q 0.07924,-0.204983 0.24288,-0.313504 0.165364,-0.1102432 0.391018,-0.1102432 0.117134,0 0.218764,0.029283 0.10163,0.02928 0.194648,0.0913 z"
         style="font-family:'MesloLGS NF';-inkscape-font-specification:'MesloLGS NF'"
         id="path501" />
    </g>
    <text
       xml:space="preserve"
       style="font-style:normal;font-variant:normal;font-weight:normal;font-stretch:normal;font-size:2.82222px;font-family:Consolas;-inkscape-font-specification:Consolas;fill:#ffffff;fill-opacity:1;stroke-width:0.264583"
       x="38.199791"
       y="3.1348009"
       id="text12316"><tspan
         sodipodi:role="line"
         id="tspan12314"
         style="font-size:2.82222px;fill:#ffffff;fill-opacity:1;stroke-width:0.264583"
         x="38.199791"
         y="3.1348009" /></text>
    <path
       id="rect1058"
       style="fill:#ffffff;stroke-width:0.298912"
       d="M -4.6911622e-7,0 V 1.0583333 15.875 v 0.264583 0.79375 H 42.333333 V 16.139583 15.875 0.79375 0 Z M 1.0583325,1.0583333 H 41.274999 V 15.875 H 1.0583325 Z" />
    <path
       d="m 13.624929,7.9140054 c 0,-0.9948115 -0.589517,-1.8790884 -1.400105,-2.2843821 0.405294,-0.3316038 0.663207,-0.847432 0.663207,-1.4001049 0,-0.2210693 -0.147379,-0.3684488 -0.368448,-0.3684488 -0.221069,0 -0.368448,0.1473795 -0.368448,0.3684488 0,0.4789832 -0.331604,0.8842767 -0.810588,1.0316563 L 10.972099,5.3717093 C 9.719373,5.4085537 8.6508713,6.3665208 8.4666465,7.5824015 H 6.8454726 c -0.07369,0 -0.1105346,0 -0.1842243,0 0,0 -0.036844,0 -0.036844,0 -0.036844,0 -0.1105346,0 -0.1473794,0.036844 C 5.297988,7.7666258 4.4137111,8.7614373 4.4137111,9.977318 v 0.515828 c -0.6263627,0.07369 -1.105346,0.626363 -1.105346,1.28957 0,0.700054 0.5895179,1.289571 1.2895704,1.289571 h 0.5526731 c 0.8105871,0 1.4737947,-0.663208 1.4737947,-1.473794 v -0.36845 h 1.2895706 l 0.8105876,1.252727 c 0.1842235,0.294758 0.5158273,0.478983 0.8474311,0.552673 0.3316039,0.07369 0.7000534,-0.03685 0.9948114,-0.221069 0.552674,-0.405295 0.663208,-1.179037 0.29476,-1.73171 0,0 0,0 0,0 L 10.45627,10.456301 c 0.184225,0.03684 0.36845,0.07369 0.589519,0.07369 1.43695,-0.03684 2.57914,-1.1790354 2.57914,-2.6159856 z M 11.414237,7.5455566 c 0,-0.2210693 0.147379,-0.3684487 0.368448,-0.3684487 0.221069,0 0.36845,0.1473794 0.36845,0.3684487 V 8.282454 c 0,0.2210692 -0.147381,0.3684487 -0.36845,0.3684487 -0.221069,0 -0.368448,-0.1473795 -0.368448,-0.3684487 z M 6.2559547,10.493146 H 5.1506086 V 9.977318 c 0,-0.7368974 0.4789832,-1.3632601 1.1053461,-1.5843294 z"
       id="path830"
       style="fill:#ffffff;fill-opacity:1;stroke-width:0.368448" />
  </g>
</svg>
