<?xml version="1.0" encoding="UTF-8"?>
<!-- Created with Inkscape (http://www.inkscape.org/) -->
<svg width="160" height="64" version="1.1" viewBox="0 0 42.333 16.933" xml:space="preserve" xmlns="http://www.w3.org/2000/svg"><rect y="-.026458" width="42.333" height="16.933" fill="#f7df1e" stroke-width=".26458"/><path d="m3.175 3.1486v9.1137l9.1131-9.1137h-9.1131zm10.583 0.026872-4.8374 4.8374h0.0093018l-0.0020671 0.024805c0 0.91281 0.0053 1.8186 0 2.7244 0.002205 0.56268 0.050229 1.0658-0.17467 1.4759-0.15566 0.3175-0.45364 0.52251-0.79892 0.62218-0.53049 0.11906-1.0368 0.046096-1.4139-0.1788-0.25312-0.15213-0.44945-0.39088-0.58394-0.66869l0.8046-0.49609c0.007496 0 0.028545 0.039999 0.056327 0.086299 0.10275 0.17154 0.19125 0.29081 0.36587 0.37724 0.17022 0.053358 0.54488 0.091957 0.6904-0.21187 0.088637-0.15346 0.060978-0.652 0.060978-1.1953 0-0.52714 0.001427-1.0517 0.0025838-1.5766l-4.7356 4.7356h10.556v-10.556zm-2.5296 4.7609c0.53764 0.0073155 0.87902 0.16485 1.1395 0.4563 0.080257 0.078934 0.13932 0.15896 0.25838 0.34416-0.31794 0.198-0.31763 0.198-0.7736 0.49609-0.099659-0.21167-0.25849-0.34396-0.43046-0.39688-0.26458-0.079375-0.60204 0.0060706-0.66818 0.29094-0.02602 0.085989-0.019976 0.16557 0.020154 0.31109 0.10716 0.24474 0.46816 0.35068 0.79272 0.50281 0.93266 0.37835 1.2468 0.78373 1.324 1.2666l-0.020154-0.029456c0.073204 0.41672-0.019776 0.68792-0.032556 0.7276-0.3444 1.1774-2.2625 1.2172-3.0298 0.44287-0.15875-0.18521-0.265-0.27719-0.3576-0.48886l0.80719-0.46354c0.21828 0.33073 0.41648 0.50973 0.77411 0.58911 0.4833 0.059531 0.97245-0.10573 0.86661-0.62167-0.11245-0.42377-0.99229-0.52276-1.5942-0.97255-0.60854-0.4101-0.75386-1.4022-0.25115-1.9715 0.17198-0.21167 0.45586-0.37062 0.75396-0.44338l0.31109-0.039274c0.037621-8.543e-4 0.074229-0.0010044 0.11007-5.167e-4z" stroke-width=".44097"/><path d="m0-0.026458v16.933h42.333v-16.933zm1.0583 1.0583h40.217v14.817h-40.217z" fill="#fff" stroke-width=".22324"/><rect transform="rotate(-45)" x="-8.5802" y="11.974" width="17.198" height="1.0583" stroke-width=".28131"/><g stroke-width=".26458" aria-label="Work without"><path d="m16.867 5.2819h0.30541l0.22169 1.879 0.26355-1.2433h0.32711l0.26665 1.2464 0.22169-1.8821h0.30541l-0.34572 2.3146h-0.29611l-0.31471-1.3751-0.31316 1.3751h-0.29611z"/><path d="m19.734 6.0602q-0.21704 0-0.32866 0.16898-0.11162 0.16898-0.11162 0.50074 0 0.33021 0.11162 0.50074 0.11162 0.16898 0.32866 0.16898 0.21859 0 0.33021-0.16898 0.11162-0.17053 0.11162-0.50074 0-0.33176-0.11162-0.50074-0.11162-0.16898-0.33021-0.16898zm0-0.24185q0.36122 0 0.5519 0.23409 0.19224 0.23409 0.19224 0.67748 0 0.44493-0.19069 0.67903-0.19069 0.23254-0.55346 0.23254-0.36122 0-0.5519-0.23254-0.19069-0.23409-0.19069-0.67903 0-0.44338 0.19069-0.67748 0.19069-0.23409 0.5519-0.23409z"/><path d="m22.481 6.2183q-0.09147-0.071313-0.18604-0.10387-0.09457-0.032556-0.20774-0.032556-0.26665 0-0.40773 0.16743-0.14108 0.16743-0.14108 0.48369v0.86351h-0.2868v-1.7363h0.2868v0.33951q0.07131-0.18448 0.21859-0.28215 0.14883-0.099219 0.35192-0.099219 0.10542 0 0.19689 0.026355 0.09147 0.026355 0.17518 0.082165z"/><path d="m22.968 5.1842h0.29456v1.3968l0.74879-0.72089h0.34727l-0.68368 0.65422 0.79065 1.0821h-0.34882l-0.64182-0.89607-0.21239 0.19999v0.69608h-0.29456z"/><path d="m26.425 5.8602h0.28215l0.30231 1.403 0.24805-0.89607h0.2434l0.25115 0.89607 0.30231-1.403h0.28215l-0.40618 1.7363h-0.27285l-0.2775-0.95188-0.27595 0.95188h-0.27285z"/><path d="m28.826 5.8664h0.73019v1.5084h0.56586v0.22169h-1.417v-0.22169h0.56586v-1.2867h-0.44493zm0.44493-0.67438h0.28525v0.35967h-0.28525z"/><path d="m31.2 5.3672v0.49299h0.64802v0.22169h-0.64802v0.94258q0 0.19224 0.07286 0.2682 0.07286 0.075964 0.25425 0.075964h0.32091v0.22789h-0.34882q-0.32091 0-0.45269-0.12867-0.13177-0.12867-0.13177-0.44338v-0.94258h-0.46354v-0.22169h0.46354v-0.49299z"/><path d="m33.789 6.5206v1.0759h-0.2868v-1.0759q0-0.23409-0.08217-0.34416t-0.25735-0.11007q-0.19999 0-0.30851 0.14263-0.10697 0.14108-0.10697 0.40618v0.98134h-0.28525v-2.4123h0.28525v0.93638q0.07596-0.14883 0.20619-0.22479 0.13022-0.077515 0.30851-0.077515 0.2651 0 0.39532 0.17518 0.13178 0.17363 0.13178 0.5271z"/><path d="m35.026 6.0602q-0.21704 0-0.32866 0.16898-0.11162 0.16898-0.11162 0.50074 0 0.33021 0.11162 0.50074 0.11162 0.16898 0.32866 0.16898 0.21859 0 0.33021-0.16898 0.11162-0.17053 0.11162-0.50074 0-0.33176-0.11162-0.50074-0.11162-0.16898-0.33021-0.16898zm0-0.24185q0.36122 0 0.5519 0.23409 0.19224 0.23409 0.19224 0.67748 0 0.44493-0.19069 0.67903-0.19069 0.23254-0.55345 0.23254-0.36122 0-0.5519-0.23254-0.19069-0.23409-0.19069-0.67903 0-0.44338 0.19069-0.67748 0.19069-0.23409 0.5519-0.23409z"/><path d="m36.285 6.9392v-1.0759h0.28525v1.0759q0 0.23409 0.08216 0.34417 0.08372 0.11007 0.25735 0.11007 0.20154 0 0.30851-0.14108 0.10697-0.14263 0.10697-0.40773v-0.98134h0.2868v1.7332h-0.2868v-0.26045q-0.07596 0.15038-0.20774 0.22789-0.13022 0.077515-0.30541 0.077515-0.26665 0-0.39688-0.17363-0.13022-0.17518-0.13022-0.52865z"/><path d="m38.846 5.3672v0.49299h0.64802v0.22169h-0.64802v0.94258q0 0.19224 0.07286 0.2682 0.07286 0.075964 0.25425 0.075964h0.32091v0.22789h-0.34882q-0.32091 0-0.45269-0.12867-0.13177-0.12867-0.13177-0.44338v-0.94258h-0.46354v-0.22169h0.46354v-0.49299z"/></g><g stroke-width=".26458" aria-label="JavaScript"><path d="m16.867 11.544v-0.36587q0.14108 0.12557 0.29146 0.18914 0.15038 0.06201 0.31161 0.06201 0.22169 0 0.30851-0.11472 0.08837-0.11627 0.08837-0.43098v-1.296h-0.59066v-0.26355h0.90382v1.5596q0 0.43718-0.16433 0.61857-0.16278 0.18138-0.5457 0.18138-0.14883 0-0.29611-0.03411t-0.30696-0.10542z"/><path d="m19.698 10.766h-0.09457q-0.2496 0-0.37672 0.08837-0.12557 0.08682-0.12557 0.26045 0 0.15658 0.09457 0.2434 0.09457 0.08682 0.262 0.08682 0.23564 0 0.37052-0.16278 0.13488-0.16433 0.13643-0.45269v-0.06356zm0.55345-0.11782v0.99064h-0.2868v-0.25735q-0.09147 0.15503-0.23099 0.22944-0.13798 0.07286-0.33641 0.07286-0.2651 0-0.42323-0.14883-0.15813-0.15038-0.15813-0.40152 0-0.2899 0.19379-0.44028 0.19534-0.15038 0.57206-0.15038h0.38292v-0.04496q-0.0016-0.20774-0.10542-0.30076-0.10387-0.09457-0.33176-0.09457-0.14573 0-0.29456 0.04186t-0.2899 0.12247v-0.28525q0.15813-0.060462 0.30231-0.089917 0.14573-0.031006 0.28215-0.031006 0.21549 0 0.36742 0.063562 0.15348 0.063562 0.24805 0.19069 0.05891 0.07752 0.08372 0.19224 0.0248 0.11317 0.0248 0.34106z"/><path d="m20.676 9.9021h0.29611l0.50384 1.4573 0.5054-1.4573h0.29611l-0.61702 1.7363h-0.36742z"/><path d="m23.521 10.766h-0.09457q-0.2496 0-0.37672 0.08837-0.12557 0.08682-0.12557 0.26045 0 0.15658 0.09457 0.2434 0.09457 0.08682 0.262 0.08682 0.23564 0 0.37052-0.16278 0.13488-0.16433 0.13642-0.45269v-0.06356zm0.55345-0.11782v0.99064h-0.2868v-0.25735q-0.09147 0.15503-0.23099 0.22944-0.13798 0.07286-0.33641 0.07286-0.2651 0-0.42323-0.14883-0.15813-0.15038-0.15813-0.40152 0-0.2899 0.19379-0.44028 0.19534-0.15038 0.57206-0.15038h0.38292v-0.04496q-0.0015-0.20774-0.10542-0.30076-0.10387-0.09457-0.33176-0.09457-0.14573 0-0.29456 0.04186t-0.2899 0.12247v-0.28525q0.15813-0.060462 0.30231-0.089917 0.14573-0.031006 0.28215-0.031006 0.21549 0 0.36742 0.063562 0.15348 0.063562 0.24805 0.19069 0.05891 0.07752 0.08372 0.19224 0.0248 0.11317 0.0248 0.34106z"/><path d="m25.913 9.4029v0.31781q-0.14263-0.091467-0.2868-0.13798-0.14263-0.046509-0.28836-0.046509-0.22169 0-0.35037 0.10387-0.12867 0.10232-0.12867 0.2775 0 0.15348 0.08372 0.23409 0.08527 0.08061 0.31626 0.13488l0.16433 0.03721q0.32556 0.07596 0.47439 0.23874 0.14883 0.16278 0.14883 0.44338 0 0.33021-0.20464 0.50385-0.20464 0.17363-0.59531 0.17363-0.16278 0-0.32711-0.03566-0.16433-0.03411-0.33021-0.10387v-0.33331q0.17828 0.11317 0.33641 0.16588 0.15968 0.05271 0.32091 0.05271 0.2372 0 0.36897-0.10542 0.13178-0.10697 0.13178-0.29766 0-0.17363-0.09147-0.2651-0.08992-0.09147-0.31471-0.14108l-0.16743-0.03876q-0.32246-0.07286-0.46819-0.22014-0.14573-0.14728-0.14573-0.39533 0-0.31006 0.20774-0.49609 0.20929-0.18759 0.555-0.18759 0.13332 0 0.2806 0.031006 0.14728 0.029456 0.31006 0.089917z"/><path d="m27.901 11.55q-0.11472 0.06666-0.2372 0.09922-0.12092 0.03411-0.24805 0.03411-0.40308 0-0.63097-0.24185-0.22634-0.24185-0.22634-0.66973t0.22634-0.66973q0.22789-0.24185 0.63097-0.24185 0.12557 0 0.24495 0.032556 0.11937 0.032556 0.2403 0.10077v0.29921q-0.11317-0.10077-0.22789-0.14573-0.11317-0.04496-0.25735-0.04496-0.2682 0-0.41238 0.17363-0.14418 0.17363-0.14418 0.49609 0 0.32091 0.14418 0.49609 0.14573 0.17363 0.41238 0.17363 0.14883 0 0.26665-0.04496 0.11782-0.04651 0.21859-0.14263z"/><path d="m29.958 10.26q-0.09147-0.07131-0.18604-0.10387-0.09457-0.03256-0.20774-0.03256-0.26665 0-0.40773 0.16743-0.14108 0.16743-0.14108 0.48369v0.86351h-0.2868v-1.7363h0.2868v0.33951q0.07131-0.18448 0.21859-0.28215 0.14883-0.099219 0.35192-0.099219 0.10542 0 0.19689 0.026355 0.09147 0.026355 0.17518 0.082166z"/><path d="m30.569 9.9083h0.73019v1.5084h0.56586v0.22169h-1.417v-0.22169h0.56586v-1.2867h-0.44493zm0.44493-0.67438h0.28525v0.35967h-0.28525z"/><path d="m32.572 11.42v0.87902h-0.2868v-2.3968h0.2868v0.22169q0.07131-0.12867 0.18914-0.19534 0.11937-0.068213 0.2744-0.068213 0.31471 0 0.49299 0.2434 0.17983 0.2434 0.17983 0.67438 0 0.42323-0.17983 0.66508-0.17983 0.2403-0.49299 0.2403-0.15813 0-0.2775-0.06666-0.11782-0.06821-0.18604-0.19689zm0.83716-0.64802q0-0.33176-0.10542-0.50074-0.10387-0.16898-0.31006-0.16898-0.20774 0-0.31471 0.17053-0.10697 0.16898-0.10697 0.49919 0 0.32866 0.10697 0.4992 0.10697 0.17053 0.31471 0.17053 0.20619 0 0.31006-0.16898 0.10542-0.16898 0.10542-0.50074z"/><path d="m34.854 9.4091v0.49299h0.64802v0.22169h-0.64802v0.94258q0 0.19224 0.07286 0.2682 0.07286 0.07596 0.25425 0.07596h0.32091v0.22789h-0.34882q-0.32091 0-0.45268-0.12867-0.13178-0.12868-0.13178-0.44338v-0.94257h-0.46353v-0.22169h0.46354v-0.49299z"/></g></svg>
