<?xml version="1.0" encoding="UTF-8" standalone="no"?>
<!-- Created with Inkscape (http://www.inkscape.org/) -->

<svg
   width="160"
   height="64"
   viewBox="0 0 42.333332 16.933333"
   version="1.1"
   id="svg1002"
   xml:space="preserve"
   inkscape:version="1.2.2 (732a01da63, 2022-12-09)"
   sodipodi:docname="work_without_javascript.svg"
   xmlns:inkscape="http://www.inkscape.org/namespaces/inkscape"
   xmlns:sodipodi="http://sodipodi.sourceforge.net/DTD/sodipodi-0.dtd"
   xmlns="http://www.w3.org/2000/svg"
   xmlns:svg="http://www.w3.org/2000/svg"><sodipodi:namedview
     id="namedview1004"
     pagecolor="#ffffff"
     bordercolor="#666666"
     borderopacity="1.0"
     inkscape:showpageshadow="2"
     inkscape:pageopacity="0.0"
     inkscape:pagecheckerboard="0"
     inkscape:deskcolor="#d1d1d1"
     inkscape:document-units="mm"
     showgrid="false"
     showguides="true"
     inkscape:zoom="5.6568542"
     inkscape:cx="69.296465"
     inkscape:cy="44.547727"
     inkscape:window-width="1920"
     inkscape:window-height="1009"
     inkscape:window-x="-8"
     inkscape:window-y="-8"
     inkscape:window-maximized="1"
     inkscape:current-layer="layer1"><sodipodi:guide
       position="13.758333,13.758333"
       orientation="0.7071068,-0.70710676"
       id="guide3211"
       inkscape:locked="false" /><sodipodi:guide
       position="8.4666662,8.4930217"
       orientation="0,-1"
       id="guide314"
       inkscape:locked="false" /><sodipodi:guide
       position="16.867187,8.4930218"
       orientation="1,0"
       id="guide316"
       inkscape:locked="false" /></sodipodi:namedview><defs
     id="defs999" /><g
     inkscape:label="Layer 1"
     inkscape:groupmode="layer"
     id="layer1"><rect
       style="fill:#f7df1e;fill-opacity:1;stroke-width:0.264583"
       id="rect1210"
       width="42.333332"
       height="16.933332"
       x="0"
       y="-0.026458334" /><path
       id="path3032"
       style="stroke-width:0.440971"
       d="M 3.175 3.148645 L 3.175 12.262301 L 12.288139 3.148645 L 3.175 3.148645 z M 13.758333 3.1755168 L 8.9209025 8.0129476 L 8.9302043 8.0129476 L 8.9281372 8.0377523 C 8.9281372 8.9505634 8.9334372 9.8563772 8.9281372 10.762134 C 8.9303422 11.324812 8.9783664 11.827908 8.7534709 12.238013 C 8.5978077 12.555512 8.2998342 12.760527 7.9545532 12.860197 C 7.4240643 12.979259 6.9177168 12.906293 6.540686 12.681396 C 6.2875683 12.529262 6.0912389 12.290516 5.9567424 12.012703 L 6.7613444 11.51661 C 6.7688404 11.51661 6.7898897 11.556609 6.8176717 11.602909 C 6.9204181 11.774446 7.0089182 11.893717 7.1835409 11.980147 C 7.353756 12.033505 7.7284181 12.072104 7.873938 11.768274 C 7.9625749 11.614816 7.9349162 11.116276 7.9349162 10.572998 C 7.9349162 10.045862 7.9363432 9.5212496 7.9375 8.9963501 L 3.2018717 13.731978 L 13.758333 13.731978 L 13.758333 3.1755168 z M 11.228772 7.9364665 C 11.766408 7.943782 12.107788 8.101315 12.368237 8.3927694 C 12.448494 8.4717033 12.507557 8.5517266 12.626619 8.7369344 C 12.308679 8.9349312 12.308985 8.9349305 11.853023 9.2330282 C 11.753364 9.0213604 11.594537 8.8890731 11.422559 8.8361532 C 11.157975 8.7567782 10.820522 8.8422238 10.754382 9.1270915 C 10.728362 9.2130804 10.734406 9.2926627 10.774536 9.4381836 C 10.881693 9.6829233 11.242698 9.7888604 11.567253 9.9409953 C 12.499909 10.319348 12.814033 10.724721 12.891203 11.207585 L 12.871049 11.178129 C 12.944253 11.594848 12.851273 11.866053 12.838493 11.905733 C 12.494094 13.083129 10.575995 13.122946 9.8087036 12.3486 C 9.6499538 12.163392 9.5437056 12.071408 9.4511027 11.859741 L 10.258289 11.396204 C 10.476569 11.726932 10.674774 11.905935 11.032402 11.985315 C 11.515707 12.044846 12.004848 11.879583 11.899015 11.363647 C 11.786567 10.939873 10.906724 10.840889 10.304797 10.391097 C 9.6962562 9.9809921 9.5509418 8.9889355 10.05365 8.4196411 C 10.225629 8.2079743 10.509512 8.0490173 10.807609 7.9762573 L 11.118701 7.9369832 C 11.156322 7.9361289 11.19293 7.9359788 11.228772 7.9364665 z " /><path
       id="rect3041"
       style="fill:#ffffff;fill-opacity:1;stroke-width:0.223237"
       d="M 0,-0.02645833 V 1.031875 15.848542 16.906875 H 42.333333 V 15.848542 1.031875 -0.02645833 Z M 1.0583333,1.031875 H 41.275 V 15.848542 H 1.0583333 Z" /><rect
       style="fill:#000000;fill-opacity:1;stroke-width:0.281309"
       id="rect3215"
       width="17.197916"
       height="1.0583333"
       x="-8.5802488"
       y="11.974037"
       transform="rotate(-45)" /><g
       aria-label="Work without"
       id="text372"
       style="font-size:3.175px;font-family:'MesloLGS NF';-inkscape-font-specification:'MesloLGS NF';fill:#ffffff;stroke-width:0.264583"><path
         d="m 16.867187,5.2819145 h 0.305408 l 0.221692,1.878955 0.26355,-1.2433349 h 0.327112 l 0.26665,1.2464355 0.221692,-1.8820556 h 0.305408 L 18.432983,7.5965018 H 18.136877 L 17.822168,6.221392 17.509009,7.5965018 h -0.296106 z"
         style="fill:#000000"
         id="path1890" /><path
         d="m 19.733679,6.0601615 q -0.217041,0 -0.328662,0.1689819 -0.111621,0.168982 -0.111621,0.5007447 0,0.3302124 0.111621,0.5007446 0.111621,0.1689819 0.328662,0.1689819 0.218591,0 0.330213,-0.1689819 0.111621,-0.1705322 0.111621,-0.5007446 0,-0.3317627 -0.111621,-0.5007447 Q 19.95227,6.0601615 19.733679,6.0601615 Z m 0,-0.2418457 q 0.361218,0 0.551904,0.2340943 0.192237,0.2340942 0.192237,0.677478 0,0.444934 -0.190686,0.6790283 -0.190686,0.2325439 -0.553455,0.2325439 -0.361218,0 -0.551904,-0.2325439 -0.190686,-0.2340943 -0.190686,-0.6790283 0,-0.4433838 0.190686,-0.677478 0.190686,-0.2340943 0.551904,-0.2340943 z"
         style="fill:#000000"
         id="path1892" /><path
         d="m 22.480798,6.2182914 q -0.09147,-0.071313 -0.186035,-0.1038696 -0.09457,-0.032556 -0.207739,-0.032556 -0.266651,0 -0.407727,0.1674317 Q 21.53822,6.4167289 21.53822,6.7329887 V 7.5965018 H 21.251416 V 5.8601737 h 0.286804 v 0.3395142 q 0.07131,-0.1844849 0.218591,-0.2821533 0.148829,-0.099219 0.351917,-0.099219 0.10542,0 0.196887,0.026355 0.09147,0.026355 0.175183,0.082165 z"
         style="fill:#000000"
         id="path1894" /><path
         d="m 22.96759,5.184246 h 0.294556 v 1.3968139 l 0.748791,-0.7208862 h 0.347266 l -0.683679,0.6542237 0.790649,1.0821044 H 24.116357 L 23.474536,6.7004325 23.262146,6.9004203 V 7.5965018 H 22.96759 Z"
         style="fill:#000000"
         id="path1896" /><path
         d="m 26.424744,5.8601737 h 0.282153 l 0.302307,1.4030151 0.248047,-0.8960693 h 0.243396 l 0.251147,0.8960693 0.302308,-1.4030151 h 0.282153 L 27.930078,7.5965018 H 27.657227 L 27.379724,6.644622 27.103772,7.5965018 H 26.83092 Z"
         style="fill:#000000"
         id="path1898" /><path
         d="m 28.826147,5.8663749 h 0.730188 v 1.508435 h 0.565857 V 7.5965018 H 28.705224 V 7.3748099 h 0.565857 V 6.0880668 h -0.444934 z m 0.444934,-0.6743774 h 0.285254 v 0.3596679 h -0.285254 z"
         style="fill:#000000"
         id="path1900" /><path
         d="m 31.199645,5.3671806 v 0.4929931 h 0.648023 v 0.2216919 h -0.648023 v 0.9425781 q 0,0.1922364 0.07286,0.2682007 0.07286,0.075964 0.254248,0.075964 h 0.320911 v 0.227893 h -0.348816 q -0.320911,0 -0.452686,-0.1286743 Q 30.914392,7.3391532 30.914392,7.0244437 V 6.0818656 H 30.450854 V 5.8601737 h 0.463538 V 5.3671806 Z"
         style="fill:#000000"
         id="path1902" /><path
         d="M 33.788635,6.5205985 V 7.5965018 H 33.501831 V 6.5205985 q 0,-0.2340942 -0.08217,-0.344165 -0.08217,-0.1100708 -0.257349,-0.1100708 -0.199987,0 -0.308508,0.1426269 -0.10697,0.1410767 -0.10697,0.4061768 V 7.5965018 H 32.461584 V 5.184246 h 0.285254 v 0.9363769 q 0.07596,-0.1488281 0.206189,-0.2247924 0.130225,-0.077515 0.308508,-0.077515 0.2651,0 0.395325,0.1751831 0.131775,0.1736328 0.131775,0.5270996 z"
         style="fill:#000000"
         id="path1904" /><path
         d="m 35.025768,6.0601615 q -0.217041,0 -0.328662,0.1689819 -0.111621,0.168982 -0.111621,0.5007447 0,0.3302124 0.111621,0.5007446 0.111621,0.1689819 0.328662,0.1689819 0.218591,0 0.330212,-0.1689819 0.111621,-0.1705322 0.111621,-0.5007446 0,-0.3317627 -0.111621,-0.5007447 -0.111621,-0.1689819 -0.330212,-0.1689819 z m 0,-0.2418457 q 0.361218,0 0.551904,0.2340943 0.192236,0.2340942 0.192236,0.677478 0,0.444934 -0.190686,0.6790283 -0.190686,0.2325439 -0.553454,0.2325439 -0.361218,0 -0.551904,-0.2325439 -0.190686,-0.2340943 -0.190686,-0.6790283 0,-0.4433838 0.190686,-0.677478 0.190686,-0.2340943 0.551904,-0.2340943 z"
         style="fill:#000000"
         id="path1906" /><path
         d="M 36.284607,6.9391776 V 5.8632743 h 0.285254 v 1.0759033 q 0,0.2340943 0.08216,0.3441651 0.08372,0.1100708 0.257349,0.1100708 0.201538,0 0.308508,-0.1410767 0.10697,-0.142627 0.10697,-0.4077271 V 5.8632743 h 0.286805 V 7.5965018 H 37.324853 V 7.3360526 q -0.07596,0.1503784 -0.207739,0.2278931 -0.130224,0.077515 -0.305407,0.077515 -0.266651,0 -0.396875,-0.1736328 -0.130225,-0.1751831 -0.130225,-0.5286499 z"
         style="fill:#000000"
         id="path1908" /><path
         d="m 38.84569,5.3671806 v 0.4929931 h 0.648023 V 6.0818656 H 38.84569 v 0.9425781 q 0,0.1922364 0.07286,0.2682007 0.07286,0.075964 0.254248,0.075964 h 0.320911 v 0.227893 h -0.348816 q -0.320911,0 -0.452686,-0.1286743 Q 38.560436,7.3391532 38.560436,7.0244437 V 6.0818656 H 38.096899 V 5.8601737 h 0.463537 V 5.3671806 Z"
         style="fill:#000000"
         id="path1910" /></g><g
       aria-label="JavaScript"
       id="text1082"
       style="font-size:3.175px;font-family:'MesloLGS NF';-inkscape-font-specification:'MesloLGS NF';stroke-width:0.264583"><path
         d="m 16.867188,11.543895 v -0.365869 q 0.141077,0.125574 0.291455,0.189136 0.150378,0.06201 0.311609,0.06201 0.221692,0 0.308508,-0.114721 0.08837,-0.116272 0.08837,-0.430982 V 9.5874255 H 17.276465 V 9.3238757 h 0.903821 V 10.88347 q 0,0.437183 -0.164331,0.618567 -0.162781,0.181385 -0.545703,0.181385 -0.148828,0 -0.296106,-0.03411 -0.147278,-0.03411 -0.306958,-0.10542 z"
         id="path1869" /><path
         d="m 19.698023,10.765648 h -0.09457 q -0.249597,0 -0.376721,0.08837 -0.125574,0.08682 -0.125574,0.260449 0,0.15658 0.09457,0.243396 0.09457,0.08682 0.261999,0.08682 0.235645,0 0.37052,-0.16278 0.134876,-0.164331 0.136426,-0.452686 v -0.06356 z m 0.553454,-0.117822 v 0.990637 h -0.286804 v -0.257349 q -0.09147,0.15503 -0.230993,0.229444 -0.137977,0.07286 -0.336414,0.07286 -0.2651,0 -0.42323,-0.148829 -0.15813,-0.150378 -0.15813,-0.401525 0,-0.289905 0.193787,-0.440284 0.195337,-0.150378 0.572058,-0.150378 h 0.382922 v -0.04496 q -0.0016,-0.207739 -0.10542,-0.300756 -0.103869,-0.09457 -0.331762,-0.09457 -0.145728,0 -0.294556,0.04186 -0.148828,0.04186 -0.289905,0.122473 V 9.9811999 q 0.15813,-0.060462 0.302307,-0.089917 0.145728,-0.031006 0.282154,-0.031006 0.21549,0 0.367419,0.063562 0.153479,0.063562 0.248047,0.190686 0.05891,0.07752 0.08372,0.192236 0.0248,0.113172 0.0248,0.341065 z"
         id="path1871" /><path
         d="m 20.676258,9.9021349 h 0.296106 l 0.503845,1.4572751 0.505395,-1.4572751 h 0.296106 l -0.617016,1.7363281 h -0.36742 z"
         id="path1873" /><path
         d="m 23.521045,10.765648 h -0.09457 q -0.249597,0 -0.376721,0.08837 -0.125574,0.08682 -0.125574,0.260449 0,0.15658 0.09457,0.243396 0.09457,0.08682 0.261999,0.08682 0.235645,0 0.370521,-0.16278 0.134875,-0.164331 0.136425,-0.452686 v -0.06356 z m 0.553454,-0.117822 v 0.990637 h -0.286804 v -0.257349 q -0.09147,0.15503 -0.230993,0.229444 -0.137976,0.07286 -0.336414,0.07286 -0.2651,0 -0.42323,-0.148829 -0.15813,-0.150378 -0.15813,-0.401525 0,-0.289905 0.193787,-0.440284 0.195337,-0.150378 0.572058,-0.150378 h 0.382922 v -0.04496 q -0.0015,-0.207739 -0.10542,-0.300756 -0.103869,-0.09457 -0.331762,-0.09457 -0.145728,0 -0.294556,0.04186 -0.148828,0.04186 -0.289905,0.122473 V 9.9811999 q 0.15813,-0.060462 0.302307,-0.089917 0.145728,-0.031006 0.282154,-0.031006 0.21549,0 0.367419,0.063562 0.153479,0.063562 0.248047,0.190686 0.05891,0.07752 0.08372,0.192236 0.0248,0.113172 0.0248,0.341065 z"
         id="path1875" /><path
         d="m 25.913147,9.4029406 v 0.31781 q -0.142627,-0.091467 -0.286804,-0.137976 -0.142627,-0.046509 -0.288355,-0.046509 -0.221691,0 -0.350366,0.1038696 -0.128674,0.1023193 -0.128674,0.2775025 0,0.1534791 0.08372,0.2340941 0.08527,0.08061 0.31626,0.134876 l 0.164331,0.03721 q 0.325561,0.07596 0.474389,0.238745 0.148828,0.16278 0.148828,0.443383 0,0.330213 -0.204638,0.503846 -0.204639,0.173633 -0.595313,0.173633 -0.162781,0 -0.327112,-0.03566 -0.164331,-0.03411 -0.330212,-0.10387 v -0.333313 q 0.178284,0.113172 0.336414,0.165882 0.15968,0.05271 0.32091,0.05271 0.237195,0 0.36897,-0.105419 0.131775,-0.106971 0.131775,-0.297657 0,-0.173633 -0.09147,-0.2651 -0.08992,-0.09147 -0.31471,-0.141076 l -0.167432,-0.03876 q -0.322461,-0.07286 -0.468188,-0.220141 -0.145728,-0.147278 -0.145728,-0.3953251 0,-0.3100586 0.20774,-0.4960937 0.209289,-0.1875855 0.555005,-0.1875855 0.133325,0 0.280603,0.031006 0.147277,0.029456 0.310058,0.089917 z"
         id="path1877" /><path
         d="m 27.900623,11.550096 q -0.114722,0.06666 -0.237195,0.09922 -0.120923,0.03411 -0.248047,0.03411 -0.403076,0 -0.630969,-0.241846 -0.226343,-0.241846 -0.226343,-0.669727 0,-0.427881 0.226343,-0.669726 0.227893,-0.241846 0.630969,-0.241846 0.125574,0 0.244947,0.032556 0.119372,0.032556 0.240295,0.100769 v 0.2992068 q -0.113171,-0.100769 -0.227893,-0.145728 -0.113172,-0.04496 -0.257349,-0.04496 -0.2682,0 -0.412378,0.173633 -0.144177,0.173632 -0.144177,0.496093 0,0.320911 0.144177,0.496094 0.145728,0.173633 0.412378,0.173633 0.148828,0 0.266651,-0.04496 0.117822,-0.04651 0.218591,-0.142627 z"
         id="path1879" /><path
         d="m 29.957861,10.260253 q -0.09147,-0.07131 -0.186035,-0.10387 -0.09457,-0.03256 -0.207739,-0.03256 -0.266651,0 -0.407728,0.167431 -0.141076,0.167432 -0.141076,0.483692 v 0.863513 H 28.728479 V 9.9021349 h 0.286804 v 0.3395141 q 0.07131,-0.184485 0.218591,-0.2821532 0.148828,-0.099219 0.351917,-0.099219 0.10542,0 0.196887,0.026355 0.09147,0.026355 0.175183,0.082166 z"
         id="path1881" /><path
         d="m 30.568677,9.9083361 h 0.730188 v 1.5084349 h 0.565856 v 0.221692 h -1.416967 v -0.221692 h 0.565857 v -1.286743 h -0.444934 z m 0.444934,-0.6743774 h 0.285254 v 0.3596679 h -0.285254 z"
         id="path1883" /><path
         d="m 32.571655,11.419872 v 0.879016 H 32.284851 V 9.9021349 h 0.286804 v 0.2216921 q 0.07131,-0.1286745 0.189136,-0.1953371 0.119373,-0.068213 0.274402,-0.068213 0.314709,0 0.492993,0.243396 0.179834,0.243396 0.179834,0.674377 0,0.42323 -0.179834,0.665076 -0.179834,0.240296 -0.492993,0.240296 -0.15813,0 -0.277503,-0.06666 -0.117822,-0.06821 -0.186035,-0.196887 z m 0.837158,-0.648023 q 0,-0.331762 -0.105419,-0.500744 -0.10387,-0.168982 -0.310059,-0.168982 -0.207739,0 -0.31471,0.170532 -0.10697,0.168982 -0.10697,0.499194 0,0.328662 0.10697,0.499195 0.106971,0.170532 0.31471,0.170532 0.206189,0 0.310059,-0.168982 0.105419,-0.168982 0.105419,-0.500745 z"
         id="path1885" /><path
         d="m 34.853686,9.4091418 v 0.4929931 h 0.648022 v 0.2216921 h -0.648022 v 0.942578 q 0,0.192236 0.07286,0.268201 0.07286,0.07596 0.254248,0.07596 h 0.32091 v 0.227893 h -0.348816 q -0.32091,0 -0.452685,-0.128674 -0.131775,-0.128675 -0.131775,-0.443384 V 10.123827 H 34.104894 V 9.9021349 h 0.463538 V 9.4091418 Z"
         id="path1887" /></g></g></svg>
